<?xml version="1.0" encoding="utf-8"?>
<!-- Generator: Adobe Illustrator 22.0.1, SVG Export Plug-In . SVG Version: 6.00 Build 0)  -->
<svg version="1.1" id="Слой_1" xmlns="http://www.w3.org/2000/svg" xmlns:xlink="http://www.w3.org/1999/xlink" x="0px" y="0px"
	 viewBox="0 0 92.8 45.1" style="enable-background:new 0 0 92.8 45.1;" xml:space="preserve">
<style type="text/css">
	.st0{fill-rule:evenodd;clip-rule:evenodd;}
	.st1{fill-rule:evenodd;clip-rule:evenodd;fill:#FFFFFF;}
	.st2{fill-rule:evenodd;clip-rule:evenodd;fill:#ED1C24;stroke:#EC008C;stroke-width:0.216;stroke-miterlimit:22.9256;}
</style>
<g>
	<path class="st0" d="M6.2,8.9l1.6,1.3c25-3.9,49.7-4.4,74.1-0.8l2-0.9l2,7.8l1.8,18.1l2.2,1.4c2.4,3.1,3.3,6.3,2.6,9.4
		c-61.4-7.3-29.8-7.5-92.3,0c-0.7-3.5-0.2-6.5,1.4-8.6l2-2.2l1.3-19L6.2,8.9L6.2,8.9z"/>
	<path class="st1" d="M80.7,16.2l-30.5-2.8c-1.3-0.1-2.3,0.8-2.3,2V28c0,1.2,1,2.4,2.3,2.5L66.8,32L62,26.8l-0.8,1.7l-0.9-0.4
		l4.6-10.2l0.9,0.4l-3.4,7.5l5.1,5.6L66.9,32l13.7,1.2c1.3,0.1,2.3-0.8,2.3-2.1V18.6C82.9,17.4,81.9,16.3,80.7,16.2L80.7,16.2z
		 M10.3,16.4L10.3,16.4l30.6-2.8c1.2-0.1,2.3,0.8,2.3,2.1v12.6c0,1.2-1,2.4-2.3,2.5l-30.6,2.8C9,33.6,8,32.7,8,31.4V18.9
		C8,17.6,9,16.5,10.3,16.4L10.3,16.4z M25.6,18L25.6,18l-0.9,0.4l3.4,7.5L23,31.5l0.7,0.7l4.9-5.3l0.8,1.7l0.9-0.4L25.6,18L25.6,18z
		"/>
	<path class="st2" d="M44.1,0.1h1c0.9,0,1.6,0.8,1.6,1.6v3.6c0,0-4.3,0.2-4.3,0V1.8C42.4,0.8,43.2,0.1,44.1,0.1L44.1,0.1z"/>
	<path class="st2" d="M57.4,0.6l1,0.1c0.9,0.1,1.5,1.1,1.4,1.9l-0.5,3.6c0,0-4.3-0.5-4.3-0.7L55.5,2C55.6,1.1,56.5,0.5,57.4,0.6
		L57.4,0.6z"/>
	<path class="st2" d="M32,0.9l-1,0.1c-0.9,0.1-1.5,1.1-1.4,1.9l0.5,3.5c0,0,4.3-0.5,4.3-0.7l-0.6-3.6C33.8,1.4,32.9,0.8,32,0.9
		L32,0.9z"/>
</g>
</svg>
