<?xml version="1.0" encoding="utf-8"?>
<!-- Generator: Adobe Illustrator 21.0.0, SVG Export Plug-In . SVG Version: 6.00 Build 0)  -->
<svg version="1.1" id="Layer_1" xmlns="http://www.w3.org/2000/svg" xmlns:xlink="http://www.w3.org/1999/xlink" x="0px" y="0px"
	 viewBox="0 0 42.5 13.7" style="enable-background:new 0 0 42.5 13.7;" xml:space="preserve">
<style type="text/css">
	.st0{clip-path:url(#SVGID_2_);fill-rule:evenodd;clip-rule:evenodd;fill:#231F20;}
	.st1{clip-path:url(#SVGID_2_);fill-rule:evenodd;clip-rule:evenodd;fill:#FFFFFF;}
	.st2{clip-path:url(#SVGID_2_);fill-rule:evenodd;clip-rule:evenodd;fill:#ED1C24;}
	.st3{clip-path:url(#SVGID_4_);fill:#231F20;}
	.st4{clip-path:url(#SVGID_4_);fill:#FFFFFF;}
	.st5{clip-path:url(#SVGID_4_);fill:#00AEEF;}
	.st6{clip-path:url(#SVGID_6_);fill:#231F20;}
	.st7{clip-path:url(#SVGID_6_);fill:#FFFFFF;}
	.st8{clip-path:url(#SVGID_8_);fill:#231F20;}
	.st9{clip-path:url(#SVGID_8_);fill:#FFFFFF;}
	.st10{clip-path:url(#SVGID_8_);fill:#00AEEF;}
	.st11{clip-path:url(#SVGID_10_);fill:#231F20;}
	.st12{clip-path:url(#SVGID_10_);fill:#FFFFFF;}
	.st13{clip-path:url(#SVGID_10_);fill:#00AEEF;}
	.st14{clip-path:url(#SVGID_12_);fill-rule:evenodd;clip-rule:evenodd;fill:#231F20;}
	.st15{clip-path:url(#SVGID_12_);fill-rule:evenodd;clip-rule:evenodd;fill:#FFFFFF;}
	.st16{clip-path:url(#SVGID_12_);fill-rule:evenodd;clip-rule:evenodd;fill:#ED1C24;}
</style>
<g>
	<defs>
		<rect id="SVGID_9_" y="0" width="42.5" height="13.7"/>
	</defs>
	<clipPath id="SVGID_2_">
		<use xlink:href="#SVGID_9_"  style="overflow:visible;"/>
	</clipPath>
	<path style="clip-path:url(#SVGID_2_);fill:#231F20;" d="M2.4,0h37.7c1.3,0,2.4,1.1,2.4,2.4v8.9c0,1.3-1.1,2.4-2.4,2.4H2.4
		c-1.3,0-2.4-1.1-2.4-2.4V2.4C0,1.1,1.1,0,2.4,0"/>
	<path style="clip-path:url(#SVGID_2_);fill:#FFFFFF;" d="M2.4,0.7h37.7c1,0,1.8,0.8,1.8,1.7v8.9c0,0.9-0.8,1.7-1.8,1.7H2.4
		c-1,0-1.7-0.8-1.7-1.7V2.4C0.7,1.4,1.4,0.7,2.4,0.7"/>
	<path style="clip-path:url(#SVGID_2_);fill:#00AEEF;" d="M3,1.3h36.6c0.9,0,1.7,0.7,1.7,1.5v8c0,0.8-0.8,1.5-1.7,1.5H3
		c-0.9,0-1.7-0.7-1.7-1.5v-8C1.3,2,2,1.3,3,1.3"/>
</g>
</svg>
