<?xml version="1.0" encoding="utf-8"?>
<!-- Generator: Adobe Illustrator 21.0.0, SVG Export Plug-In . SVG Version: 6.00 Build 0)  -->
<svg version="1.1" id="Layer_1" xmlns="http://www.w3.org/2000/svg" xmlns:xlink="http://www.w3.org/1999/xlink" x="0px" y="0px"
	 viewBox="0 0 46.3 41.6" style="enable-background:new 0 0 46.3 41.6;" xml:space="preserve">
<style type="text/css">
	.st0{clip-path:url(#SVGID_2_);fill-rule:evenodd;clip-rule:evenodd;fill:#231F20;}
	.st1{clip-path:url(#SVGID_2_);fill-rule:evenodd;clip-rule:evenodd;fill:#FFFFFF;}
	.st2{clip-path:url(#SVGID_2_);fill-rule:evenodd;clip-rule:evenodd;fill:#ED1C24;}
	.st3{clip-path:url(#SVGID_4_);fill:#231F20;}
	.st4{clip-path:url(#SVGID_4_);fill:#FFFFFF;}
	.st5{clip-path:url(#SVGID_4_);fill:#00AEEF;}
	.st6{clip-path:url(#SVGID_6_);fill:#231F20;}
	.st7{clip-path:url(#SVGID_6_);fill:#FFFFFF;}
	.st8{clip-path:url(#SVGID_8_);fill:#231F20;}
	.st9{clip-path:url(#SVGID_8_);fill:#FFFFFF;}
	.st10{clip-path:url(#SVGID_8_);fill:#00AEEF;}
	.st11{clip-path:url(#SVGID_10_);fill:#231F20;}
	.st12{clip-path:url(#SVGID_10_);fill:#FFFFFF;}
	.st13{clip-path:url(#SVGID_10_);fill:#00AEEF;}
	.st14{clip-path:url(#SVGID_12_);fill-rule:evenodd;clip-rule:evenodd;fill:#231F20;}
	.st15{clip-path:url(#SVGID_12_);fill-rule:evenodd;clip-rule:evenodd;fill:#FFFFFF;}
	.st16{clip-path:url(#SVGID_12_);fill-rule:evenodd;clip-rule:evenodd;fill:#ED1C24;}
</style>
<g>
	<defs>
		<rect id="SVGID_1_" x="0" width="46.3" height="41.6"/>
	</defs>
	<clipPath id="SVGID_2_">
		<use xlink:href="#SVGID_1_"  style="overflow:visible;"/>
	</clipPath>
	<path class="st0" d="M27.7,3.7l17,29.4c1.6,2.7,0.6,6.2-2.1,7.8c-0.9,0.5-1.8,0.8-2.8,0.8l-34.2,0C2.5,41.6,0,39.1,0,36
		c0-1,0.3-2,0.8-2.8L17.8,3.6c1.6-2.7,5.1-3.6,7.8-2.1C26.5,2.1,27.2,2.8,27.7,3.7"/>
	<path class="st1" d="M27.1,4.1l17.1,29.4c1.4,2.4,0.6,5.4-1.8,6.8c-0.8,0.4-1.6,0.7-2.5,0.7l-34.2,0c-2.7,0-4.9-2.2-4.9-4.9
		c0-0.9,0.2-1.7,0.7-2.5L18.5,4c1.4-2.4,4.4-3.2,6.8-1.8C26,2.7,26.7,3.3,27.1,4.1"/>
	<path class="st2" d="M26.4,4.4l17.1,29.4c1.2,2,0.5,4.6-1.5,5.7c-0.7,0.4-1.4,0.6-2.1,0.6l-34.2,0c-2.3,0-4.2-1.9-4.2-4.2
		c0-0.8,0.2-1.5,0.6-2.1L19.1,4.4c1.2-2,3.7-2.7,5.7-1.5C25.6,3.2,26.1,3.8,26.4,4.4 M22.8,6.5L39.9,36H5.7L22.8,6.5z"/>
</g>
</svg>
