<?xml version="1.0" encoding="UTF-8"?>
<svg id="Layer_1" data-name="Layer 1" xmlns="http://www.w3.org/2000/svg" xmlns:xlink="http://www.w3.org/1999/xlink" viewBox="0 0 113.71 221.34">
  <defs>
    <style>
      .cls-1 {
        fill: #603131;
      }

      .cls-1, .cls-2, .cls-3, .cls-4, .cls-5, .cls-6, .cls-7, .cls-8, .cls-9, .cls-10, .cls-11 {
        stroke-width: 0px;
      }

      .cls-2, .cls-3 {
        fill: #00aeef;
      }

      .cls-2, .cls-7, .cls-9, .cls-10, .cls-11 {
        fill-rule: evenodd;
      }

      .cls-12 {
        clip-path: url(#clippath-2);
      }

      .cls-13 {
        clip-path: url(#clippath-6);
      }

      .cls-4, .cls-14 {
        fill: none;
      }

      .cls-15 {
        clip-path: url(#clippath-7);
      }

      .cls-16 {
        clip-path: url(#clippath-1);
      }

      .cls-17 {
        clip-path: url(#clippath-4);
      }

      .cls-5, .cls-7 {
        fill: #fff;
      }

      .cls-6 {
        fill: #9c5849;
      }

      .cls-8, .cls-9 {
        fill: #231f20;
      }

      .cls-18 {
        clip-path: url(#clippath);
      }

      .cls-19 {
        clip-path: url(#clippath-3);
      }

      .cls-10 {
        fill: #0db14b;
      }

      .cls-11 {
        fill: #ed1c24;
      }

      .cls-14 {
        stroke: #fff;
        stroke-miterlimit: 10;
        stroke-width: .57px;
      }

      .cls-20 {
        clip-path: url(#clippath-5);
      }
    </style>
    <clipPath id="clippath">
      <path class="cls-4" d="M21.28,54.7c-.7,0-1.27.62-1.27,1.37v14.08c0,.76.57,1.38,1.27,1.38h13.37c.7,0,1.27-.62,1.27-1.38v-14.08c0-.76-.57-1.37-1.27-1.37h-13.37Z"/>
    </clipPath>
    <clipPath id="clippath-1">
      <rect class="cls-4" y="78.96" width="113.58" height="81.6"/>
    </clipPath>
    <clipPath id="clippath-2">
      <rect class="cls-4" x=".18" y="163.48" width="112.81" height="57.86"/>
    </clipPath>
    <clipPath id="clippath-3">
      <rect class="cls-4" x=".18" y="163.48" width="112.81" height="57.86"/>
    </clipPath>
    <clipPath id="clippath-4">
      <rect class="cls-4" x=".18" y="163.48" width="112.81" height="57.86"/>
    </clipPath>
    <clipPath id="clippath-5">
      <rect class="cls-4" x=".18" y="163.48" width="112.81" height="57.86"/>
    </clipPath>
    <clipPath id="clippath-6">
      <rect class="cls-4" x=".18" y="163.48" width="112.81" height="57.86"/>
    </clipPath>
    <clipPath id="clippath-7">
      <rect class="cls-4" x=".18" y="163.48" width="112.81" height="57.86"/>
    </clipPath>
  </defs>
  <g>
    <path class="cls-9" d="M4.18,0h105.35c2.3,0,4.18,2.03,4.18,4.52v67c0,2.49-1.88,4.52-4.18,4.52H4.18C1.88,76.04,0,74.01,0,71.52V4.52C0,2.03,1.88,0,4.18,0"/>
    <path class="cls-7" d="M4.18.92h105.35c1.83,0,3.32,1.62,3.32,3.6v67c0,1.98-1.49,3.6-3.32,3.6H4.18c-1.83,0-3.33-1.62-3.33-3.6V4.52C.85,2.54,2.35.92,4.18.92"/>
    <path class="cls-3" d="M109.53,1.84H4.18c-1.36,0-2.47,1.2-2.47,2.68v67c0,1.47,1.11,2.68,2.47,2.68h2.19v-.06h3.77v.06h99.39c1.36,0,2.47-1.2,2.47-2.68V4.52c0-1.47-1.11-2.68-2.47-2.68h0Z"/>
    <path class="cls-5" d="M1.32,51.68v20.21c0,1.5,1.12,2.73,2.49,2.73h2.21v-.06h3.8v.06h100.09c1.37,0,2.49-1.23,2.49-2.73v-20.21H1.32Z"/>
    <path class="cls-7" d="M21.29,4.86h17.58c.7,0,1.27.63,1.27,1.39v7.31c0,.76-.57,1.39-1.27,1.39h-17.58c-.7,0-1.27-.63-1.27-1.39v-7.31c0-.76.57-1.39,1.27-1.39"/>
    <path class="cls-11" d="M21.29,5.38h17.58c.44,0,.79.39.79.87v7.31c0,.48-.36.87-.79.87h-17.58c-.44,0-.79-.39-.79-.87v-7.31c0-.48.36-.87.79-.87"/>
    <g>
      <path class="cls-5" d="M22.52,12.55v-5.47h1.53l.92,3.73.91-3.73h1.53v5.47h-.95v-4.31l-1,4.31h-.98l-1-4.31v4.31h-.95Z"/>
      <path class="cls-5" d="M28.3,11.09v-1.05h1.9v1.05h-1.9Z"/>
    </g>
    <g>
      <path class="cls-5" d="M32.55,7.05c.49,0,.87.19,1.15.57.33.45.49,1.19.49,2.23s-.17,1.78-.5,2.23c-.27.37-.66.56-1.15.56s-.89-.21-1.19-.61c-.3-.41-.45-1.14-.45-2.19s.17-1.77.5-2.22c.27-.37.66-.56,1.15-.56ZM32.55,7.92c-.12,0-.22.04-.31.12-.09.08-.16.23-.21.43-.07.27-.1.73-.1,1.37s.03,1.08.09,1.32c.06.24.13.4.23.48.09.08.2.12.31.12s.22-.04.31-.12c.09-.08.16-.23.21-.43.07-.27.1-.72.1-1.37s-.03-1.08-.09-1.32-.13-.4-.23-.48-.2-.12-.31-.12Z"/>
      <path class="cls-5" d="M38.12,8.41l-.94.11c-.02-.21-.08-.36-.18-.46-.1-.1-.22-.15-.38-.15-.21,0-.38.1-.52.3-.14.2-.23.61-.27,1.24.24-.31.54-.46.9-.46.41,0,.75.17,1.04.5.29.33.43.76.43,1.29,0,.56-.15,1.01-.46,1.35-.3.34-.69.51-1.17.51-.51,0-.93-.21-1.26-.64-.33-.43-.49-1.13-.49-2.11s.17-1.73.51-2.17c.34-.44.79-.66,1.33-.66.38,0,.7.12.95.35.25.23.41.57.48,1.01ZM35.93,10.7c0,.34.07.6.22.79.15.19.31.28.5.28s.33-.08.45-.23c.12-.15.18-.4.18-.75s-.06-.62-.19-.78c-.13-.17-.29-.25-.48-.25s-.34.08-.47.24-.19.39-.19.7Z"/>
    </g>
    <path class="cls-7" d="M21.29,15.88h17.58c.7,0,1.27.63,1.27,1.39v7.31c0,.76-.57,1.39-1.27,1.39h-17.58c-.7,0-1.27-.63-1.27-1.39v-7.31c0-.76.57-1.39,1.27-1.39"/>
    <path class="cls-10" d="M21.29,16.4h17.58c.44,0,.79.39.79.87v7.31c0,.48-.36.87-.79.87h-17.58c-.44,0-.79-.39-.79-.87v-7.31c0-.48.36-.87.79-.87"/>
    <g>
      <path class="cls-5" d="M21.89,23.56v-5.47h3.75v.93h-2.73v1.21h2.54v.92h-2.54v1.49h2.83v.92h-3.85Z"/>
      <path class="cls-5" d="M29.41,23.56v-1.1h-2.07v-.92l2.19-3.47h.81v3.47h.63v.92h-.63v1.1h-.94ZM29.41,21.54v-1.87l-1.16,1.87h1.16Z"/>
    </g>
    <g>
      <path class="cls-5" d="M33.92,23.56h-.97v-3.95c-.35.36-.77.62-1.25.8v-.95c.25-.09.53-.26.82-.51.3-.25.5-.54.61-.88h.79v5.49Z"/>
      <path class="cls-5" d="M35.37,19.14v-.97h3.32v.76c-.27.29-.55.71-.83,1.25s-.5,1.12-.65,1.74c-.15.61-.22,1.16-.22,1.64h-.93c.02-.76.16-1.53.43-2.31.27-.79.64-1.49,1.09-2.11h-2.2Z"/>
    </g>
    <g>
      <path class="cls-5" d="M103.67,13.53v1.12c-.62.81-1.07,1.64-1.36,2.5s-.45,1.86-.5,3.02h-1.18c0-.8.19-1.76.58-2.86.38-1.11.82-1.96,1.31-2.55h-2.69v-1.22h3.84Z"/>
      <path class="cls-5" d="M104.66,15.67c.02-.7.2-1.24.55-1.64.34-.4.81-.6,1.4-.6.56,0,1.01.17,1.36.51.35.34.52.78.52,1.32,0,.33-.07.61-.21.85-.14.24-.33.4-.57.47.31.09.55.27.73.54.18.27.27.6.27,1,0,.64-.19,1.16-.58,1.56-.39.4-.89.61-1.51.61s-1.14-.21-1.52-.63c-.38-.42-.56-.99-.56-1.7v-.1h1.1c0,.42.09.73.25.95.16.22.4.33.7.33.28,0,.5-.09.68-.28.17-.19.26-.43.26-.73,0-.35-.09-.6-.29-.76s-.44-.23-.74-.23c-.11,0-.21,0-.28,0v-.96c.06,0,.12,0,.19,0,.65,0,.98-.28.98-.84,0-.25-.07-.46-.21-.61-.14-.15-.33-.23-.57-.23-.27,0-.48.1-.62.3-.15.2-.22.48-.23.85h-1.09Z"/>
    </g>
    <g>
      <path class="cls-5" d="M53.49,8.32v6.12h-1.15v-4.98h-1.41l-.07,2.6c-.05,1.67-.54,2.5-1.46,2.5-.26,0-.47-.03-.65-.1v-1.08c.12.07.25.1.41.1.18,0,.32-.1.42-.29.1-.19.16-.57.17-1.15l.09-3.72h3.67Z"/>
      <path class="cls-5" d="M57.8,12.98c0,.48-.13.84-.4,1.09s-.61.37-1.05.37h-2v-4.44h1.04v1.52h1.01c.4,0,.74.13,1,.38.26.25.4.61.4,1.08ZM55.39,12.35v1.25h.72c.42,0,.64-.21.64-.62,0-.21-.06-.36-.18-.47s-.27-.16-.47-.16h-.71Z"/>
      <path class="cls-5" d="M58.34,10.01h2.2c.36,0,.65.09.88.28.23.19.34.47.34.84,0,.42-.17.73-.52.91.46.16.7.52.7,1.08,0,.42-.12.74-.37.98-.24.23-.55.35-.93.35h-2.3v-4.44ZM59.37,11.79h.7c.41,0,.62-.17.62-.51,0-.2-.06-.33-.17-.4-.11-.07-.26-.1-.46-.1h-.7v1.01ZM59.37,13.65h.78c.22,0,.39-.04.51-.12s.18-.24.18-.46-.07-.39-.2-.47c-.13-.08-.31-.12-.54-.12h-.73v1.18Z"/>
      <path class="cls-5" d="M63.68,8.32v1.03h-1.05v-1.03h1.05ZM63.68,10.01v4.44h-1.05v-4.44h1.05Z"/>
      <path class="cls-5" d="M64.49,10.01h2.2c.36,0,.65.09.88.28.23.19.34.47.34.84,0,.42-.17.73-.52.91.46.16.7.52.7,1.08,0,.42-.12.74-.37.98-.24.23-.55.35-.93.35h-2.3v-4.44ZM65.52,11.79h.7c.41,0,.62-.17.62-.51,0-.2-.06-.33-.17-.4-.11-.07-.26-.1-.46-.1h-.7v1.01ZM65.52,13.65h.78c.22,0,.39-.04.51-.12s.18-.24.18-.46-.07-.39-.2-.47c-.13-.08-.31-.12-.54-.12h-.73v1.18Z"/>
    </g>
    <g>
      <path class="cls-5" d="M51.81,21.98v.86h-2.79v-4.58h.86v3.72h1.93Z"/>
      <path class="cls-5" d="M54,19.52h.78l-.97,3.32h-.88l-.98-3.32h.83l.61,2.27.61-2.27Z"/>
      <path class="cls-5" d="M55.91,18.25v.77h-.79v-.77h.79ZM55.91,19.52v3.32h-.79v-3.32h.79Z"/>
      <path class="cls-5" d="M58.31,19.52h.78l-.97,3.32h-.88l-.98-3.32h.83l.61,2.27.61-2.27Z"/>
    </g>
    <g>
      <path class="cls-5" d="M103.86,41.47v1.13h-.76v1.54h-1.06v-1.54h-2.41v-1.25l2.44-3.92h1.03v4.04h.76ZM102.04,41.47v-2.49l-1.5,2.49h1.5Z"/>
      <path class="cls-5" d="M106.64,37.41c.31,0,.59.07.83.21.24.14.44.32.59.54.15.22.27.49.37.79.1.31.17.61.21.92.04.31.06.63.06.97,0,1.06-.18,1.9-.55,2.5-.36.61-.87.91-1.5.91s-1.17-.3-1.53-.9-.55-1.44-.55-2.51c0-.43.04-.83.1-1.21.07-.38.18-.74.33-1.09.15-.35.37-.62.65-.83.28-.2.61-.31.99-.31ZM106.64,38.53c-.15,0-.28.04-.39.11-.11.08-.2.19-.27.34-.07.15-.12.29-.16.43-.04.14-.07.32-.08.54-.02.22-.03.39-.03.5,0,.11,0,.27,0,.46,0,1.5.32,2.25.95,2.25s.93-.77.93-2.31c0-.8-.07-1.38-.22-1.75-.15-.37-.39-.56-.72-.56Z"/>
    </g>
    <g>
      <path class="cls-5" d="M54.28,39.98h-1.12v-1.57h-3.34v1.57h-1.12v-2.72h.4c.3-.47.52-1.03.65-1.68.13-.65.2-1.44.2-2.37v-.93h3.75v4.98h.58v2.72ZM52.54,37.26v-3.88h-1.45v.1c0,1.53-.23,2.79-.7,3.78h2.15Z"/>
      <path class="cls-5" d="M55.78,33.97v.55c.28-.45.67-.67,1.18-.67s.92.21,1.23.64.47,1,.47,1.72-.15,1.25-.46,1.67c-.3.42-.7.63-1.2.63s-.91-.22-1.18-.66v2.12h-1.04v-6.01h.99ZM56.71,34.83c-.29,0-.51.12-.67.36s-.24.58-.24,1.01.08.76.24,1.01c.16.24.39.36.67.36s.5-.12.66-.36c.16-.24.24-.57.24-.99s-.08-.77-.24-1.01c-.16-.25-.38-.37-.67-.37Z"/>
      <path class="cls-5" d="M63.14,36.18c0,.71-.18,1.28-.54,1.71s-.83.64-1.43.64-1.08-.21-1.44-.64c-.36-.43-.54-1-.54-1.71s.18-1.27.55-1.7c.36-.43.85-.64,1.44-.64s1.06.21,1.42.64.54,1,.54,1.7ZM62.09,36.18c0-.44-.08-.79-.25-1.04-.17-.25-.39-.37-.68-.37s-.5.13-.67.38c-.16.25-.24.6-.24,1.04s.08.81.24,1.06c.16.25.39.38.68.38s.52-.13.68-.38c.16-.25.24-.61.24-1.06Z"/>
      <path class="cls-5" d="M66.73,34.9h-1.84v3.5h-1.04v-4.44h2.88v.94Z"/>
    </g>
    <g>
      <path class="cls-5" d="M70.82,36.18c0,.71-.18,1.28-.54,1.71s-.83.64-1.43.64-1.08-.21-1.44-.64c-.36-.43-.54-1-.54-1.71s.18-1.27.55-1.7c.36-.43.85-.64,1.44-.64s1.06.21,1.42.64.54,1,.54,1.7ZM69.77,36.18c0-.44-.08-.79-.25-1.04-.17-.25-.39-.37-.68-.37s-.5.13-.67.38c-.16.25-.24.6-.24,1.04s.08.81.24,1.06c.16.25.39.38.68.38s.52-.13.68-.38c.16-.25.24-.61.24-1.06Z"/>
      <path class="cls-5" d="M75.32,36.24c0,.7-.18,1.26-.54,1.67-.36.42-.84.62-1.45.62-.33,0-.62-.08-.87-.24-.25-.16-.44-.37-.58-.64-.14-.27-.24-.56-.31-.87-.07-.31-.1-.64-.1-.98,0-.31,0-.58.03-.82.02-.24.06-.5.11-.8.06-.3.14-.55.25-.76.11-.21.26-.41.46-.59s.43-.31.7-.4c.1-.03.25-.06.45-.09.19-.02.35-.05.47-.09.12-.04.19-.09.22-.17h1c-.03.22-.08.41-.16.56-.08.16-.17.28-.27.37s-.23.17-.39.23c-.16.06-.31.11-.44.13-.13.02-.31.05-.52.07-.79.09-1.24.68-1.34,1.77h.02c.11-.35.29-.65.54-.89.25-.24.57-.37.97-.37.5,0,.92.21,1.25.63.33.42.5.97.5,1.64ZM74.27,36.23c0-.43-.08-.76-.23-1-.16-.24-.37-.36-.65-.36-.26,0-.47.12-.62.36s-.23.58-.23,1.01.08.78.23,1.02c.16.24.37.36.64.36s.48-.12.64-.36c.15-.24.23-.58.23-1.02Z"/>
      <path class="cls-5" d="M79.6,38.4h-1.01v-3l-1.36,3h-1.19v-4.44h1.01v3l1.36-3h1.19v4.44Z"/>
    </g>
    <path class="cls-5" d="M82.81,35.81v-1.84h1.04v4.44h-1.04v-1.75c-.45.13-.86.2-1.22.2-.41,0-.73-.14-.95-.41-.22-.27-.33-.65-.33-1.13v-1.35h1.04v1.1c0,.33.04.55.12.68.08.13.24.19.46.19.31,0,.6-.04.87-.13Z"/>
    <g>
      <path class="cls-5" d="M49.03,46.81v-4.58h1.6c.61,0,1.08.2,1.42.59.33.4.5.96.5,1.7s-.17,1.3-.5,1.7c-.33.4-.8.59-1.42.59h-1.6ZM49.89,45.97h.63c.76,0,1.15-.49,1.15-1.46,0-.47-.1-.83-.29-1.08-.19-.25-.48-.38-.86-.38h-.63v2.91Z"/>
      <path class="cls-5" d="M54.9,43.43v.84c-.11-.03-.21-.04-.3-.04-.26,0-.45.1-.57.29-.12.19-.18.45-.18.77v1.52h-.79v-3.32h.75v.61c.19-.46.5-.69.92-.69.04,0,.09,0,.17.02Z"/>
    </g>
    <g>
      <path class="cls-5" d="M56.51,43.39c.44,0,.79.16,1.06.48.27.32.4.75.4,1.28s-.13.96-.4,1.28c-.27.32-.62.48-1.07.48s-.81-.16-1.08-.48-.4-.75-.4-1.28.14-.95.41-1.28c.27-.32.63-.48,1.08-.48ZM56.49,44.08c-.21,0-.38.09-.5.28-.12.19-.18.45-.18.78s.06.6.18.79.29.28.51.28.39-.1.51-.29c.12-.19.18-.46.18-.8s-.06-.59-.19-.78c-.12-.19-.29-.28-.51-.28Z"/>
      <path class="cls-5" d="M59.27,42.22v1.71c.23-.35.53-.53.9-.53.67,0,1,.41,1,1.23v2.18h-.79v-1.96c0-.23-.04-.4-.11-.52-.07-.12-.2-.18-.4-.18-.24,0-.4.09-.48.26-.09.18-.13.41-.13.7v1.69h-.78v-4.58h.78Z"/>
      <path class="cls-5" d="M63.18,43.39c.44,0,.79.16,1.06.48.27.32.4.75.4,1.28s-.13.96-.4,1.28c-.27.32-.62.48-1.07.48s-.81-.16-1.08-.48-.4-.75-.4-1.28.14-.95.41-1.28c.27-.32.63-.48,1.08-.48ZM63.16,44.08c-.21,0-.38.09-.5.28-.12.19-.18.45-.18.78s.06.6.18.79.29.28.51.28.39-.1.51-.29c.12-.19.18-.46.18-.8s-.06-.59-.19-.78c-.12-.19-.29-.28-.51-.28Z"/>
      <path class="cls-5" d="M65.93,42.22v1.67c.22-.32.52-.48.9-.48s.68.16.9.48c.22.32.33.73.33,1.22,0,.53-.12.96-.35,1.29s-.54.49-.92.49c-.4,0-.69-.17-.9-.51v.42s-.74,0-.74,0v-4.58h.78ZM66.59,44.11c-.21,0-.38.09-.5.27-.12.18-.19.43-.19.74s.06.58.18.76c.12.18.29.28.5.28.2,0,.37-.09.49-.28.12-.19.19-.44.19-.76s-.06-.55-.19-.73c-.12-.18-.29-.28-.49-.28Z"/>
      <path class="cls-5" d="M71.14,43.48l-1.05,3.31c-.05.17-.09.28-.11.35-.02.07-.06.16-.11.28s-.1.2-.14.25c-.04.05-.1.1-.17.16-.07.06-.15.1-.24.12s-.19.03-.31.03c-.1,0-.27,0-.53,0v-.75h.38c.13,0,.23-.04.3-.12.07-.08.1-.19.1-.33,0-.03,0-.08-.02-.13l-1.04-3.17h.85l.65,2.26.63-2.26h.81Z"/>
      <path class="cls-5" d="M74.14,45.53c-.05.43-.19.76-.44,1-.24.24-.55.36-.93.36-.44,0-.79-.16-1.06-.47-.27-.31-.4-.73-.4-1.25s.13-.97.4-1.29c.27-.33.62-.49,1.07-.49.38,0,.69.11.93.34s.38.53.41.92h-.77c-.06-.38-.25-.57-.57-.57-.21,0-.38.1-.5.29-.12.19-.18.46-.18.79s.06.59.17.77c.12.18.28.27.49.27.34,0,.55-.22.61-.67h.76Z"/>
      <path class="cls-5" d="M75.38,42.22v1.71c.23-.35.53-.53.9-.53.67,0,1,.41,1,1.23v2.18h-.79v-1.96c0-.23-.04-.4-.11-.52-.07-.12-.2-.18-.4-.18-.24,0-.4.09-.48.26-.09.18-.13.41-.13.7v1.69h-.78v-4.58h.78Z"/>
    </g>
    <path class="cls-8" d="M108.65,65.09v1.18h-4.12c0-.3.04-.58.1-.83s.13-.46.22-.64.21-.35.38-.54c.17-.19.32-.34.45-.46.13-.12.32-.27.58-.48.03-.03.12-.09.26-.2.14-.11.24-.18.29-.23s.13-.12.24-.23.18-.21.23-.29c.05-.08.09-.19.13-.31s.06-.25.06-.39c0-.29-.07-.53-.22-.7-.15-.17-.34-.26-.58-.26-.58,0-.88.48-.92,1.45h-1.09v-.14c0-.76.19-1.36.55-1.81.37-.45.87-.67,1.5-.67.57,0,1.03.19,1.38.57s.53.87.53,1.48c0,.49-.09.88-.28,1.18-.19.29-.48.6-.88.93-.05.04-.15.12-.3.23-.14.11-.26.2-.34.27s-.18.16-.3.27c-.12.11-.22.21-.31.32-.08.1-.16.21-.22.32h2.66Z"/>
    <g>
      <path class="cls-8" d="M52.68,64.79c-.06.57-.26,1.02-.58,1.34-.32.32-.74.48-1.25.48-.59,0-1.06-.21-1.41-.63-.36-.42-.53-.97-.53-1.67s.18-1.29.54-1.73.83-.65,1.42-.65c.51,0,.92.15,1.24.45s.5.71.55,1.22h-1.03c-.08-.51-.33-.76-.75-.76-.29,0-.51.13-.67.38s-.24.61-.24,1.06.08.78.23,1.03c.16.24.37.37.66.37.46,0,.73-.3.81-.89h1.01Z"/>
      <path class="cls-8" d="M56.38,63h-1.26v3.5h-1.04v-3.5h-1.26v-.94h3.56v.94Z"/>
    </g>
    <g>
      <path class="cls-8" d="M57.36,65.16v1.34h-1.17v-1.34h1.17Z"/>
      <path class="cls-8" d="M65.07,64.13c-.06.77-.29,1.38-.7,1.83-.4.45-.96.68-1.66.68-.76,0-1.38-.29-1.84-.88-.47-.59-.7-1.37-.7-2.33,0-.92.24-1.68.71-2.29s1.1-.91,1.88-.91c.63,0,1.15.21,1.58.62.42.41.66.94.7,1.57h-1.13c-.06-.34-.19-.6-.4-.79-.21-.19-.46-.28-.77-.28s-.59.1-.81.31c-.22.21-.37.46-.46.77-.09.3-.13.64-.13,1,0,.63.13,1.13.38,1.51.25.38.59.56,1.01.56.71,0,1.11-.46,1.21-1.38h1.15Z"/>
      <path class="cls-8" d="M68.97,63h-1.26v3.5h-1.04v-3.5h-1.26v-.94h3.56v.94Z"/>
      <path class="cls-8" d="M70.43,62.06v.55c.28-.45.67-.67,1.18-.67s.92.21,1.23.64.47,1,.47,1.72-.15,1.25-.46,1.67c-.3.42-.7.63-1.2.63s-.91-.22-1.18-.66v2.12h-1.04v-6.01h.99ZM71.35,62.92c-.29,0-.51.12-.67.36s-.24.58-.24,1.01.08.76.24,1.01c.16.24.39.36.67.36s.5-.12.66-.36c.16-.24.24-.57.24-.99s-.08-.77-.24-1.01c-.16-.25-.38-.37-.67-.37Z"/>
      <path class="cls-8" d="M77.52,66.5h-1.01v-3l-1.36,3h-1.19v-4.44h1.01v3l1.36-3h1.19v4.44Z"/>
      <path class="cls-8" d="M81.91,66.5h-1.01v-3l-1.36,3h-1.19v-4.44h1.01v3l1.36-3h1.19v4.44ZM80.92,60.38h.41c0,.83-.4,1.24-1.21,1.24s-1.21-.41-1.21-1.24h.41c.06.38.33.57.79.57s.73-.19.79-.57Z"/>
    </g>
    <polygon class="cls-5" points="9.57 35.79 5.04 40.12 9.93 44.57 12.75 44.49 9.18 41.27 15.86 41.28 15.86 38.96 9.14 38.96 12.62 35.79 9.57 35.79 9.57 35.79"/>
    <polygon class="cls-5" points="14.51 13.49 10.51 8.59 6.39 13.88 6.47 16.93 9.45 13.07 9.43 20.29 11.58 20.29 11.58 13.02 14.51 16.79 14.51 13.49 14.51 13.49"/>
    <polygon class="cls-8" points="9.57 58.76 5.04 63.09 9.93 67.55 12.75 67.46 9.18 64.24 15.86 64.26 15.86 61.93 9.14 61.94 12.62 58.76 9.57 58.76 9.57 58.76"/>
    <polyline class="cls-5" points="1.32 52.11 112.21 52.11 112.21 51.25 1.32 51.25"/>
    <polyline class="cls-5" points="1.32 29.11 112.21 29.11 112.21 28.25 1.32 28.25"/>
    <g class="cls-18">
      <path class="cls-5" d="M35.81,70.26c0,.63-.47,1.14-1.04,1.14h-13.6c-.57,0-1.04-.51-1.04-1.14v-14.28c0-.63.46-1.14,1.04-1.14h13.6c.57,0,1.04.51,1.04,1.14v14.28h0Z"/>
      <path class="cls-8" d="M35.81,70.26h-.35c0,.43-.31.76-.68.76h-13.6c-.37,0-.68-.34-.68-.76v-14.28c0-.43.31-.76.68-.76h13.6c.37,0,.68.34.68.76v14.28h.71v-14.28c0-.84-.62-1.53-1.39-1.53h-13.6c-.77,0-1.39.69-1.39,1.53v14.28c0,.84.62,1.53,1.39,1.53h13.6c.77,0,1.39-.69,1.39-1.53h-.35Z"/>
      <path class="cls-5" d="M35.41,69.86c0,.58-.46,1.05-1.01,1.05h-12.85c-.56,0-1.01-.47-1.01-1.05v-13.49c0-.58.45-1.05,1.01-1.05h12.85c.56,0,1.01.47,1.01,1.05v13.49h0Z"/>
    </g>
    <path class="cls-8" d="M24.69,59.75h-.15c0,.88-.66,1.6-1.48,1.6-.81,0-1.48-.72-1.48-1.6,0-.88.66-1.6,1.48-1.6.82,0,1.48.72,1.48,1.6h.3c0-1.06-.8-1.92-1.78-1.92-.98,0-1.78.86-1.78,1.92,0,1.06.8,1.92,1.78,1.92.98,0,1.78-.86,1.78-1.92h-.15Z"/>
    <path class="cls-8" d="M23.19,59.96v-1.35c0-.08-.06-.14-.13-.14s-.13.06-.13.14v1.35c0,.08.06.14.13.14s.13-.06.13-.14"/>
    <polyline class="cls-8" points="22.22 59.23 23.02 60.08 23.1 60.08 23.1 59.99 22.3 59.14 22.22 59.14 22.22 59.23"/>
    <path class="cls-8" d="M22.43,56.01h11.47s.52-.02.52.64v1.34s.07.48-.32.42c-.39-.06-12.28-1.44-12.28-1.44,0,0-.46-.19-.46-.53,0-.31.34-.41.48-.43h.59Z"/>
    <path class="cls-8" d="M34.42,62.82v5.4h-6.15l-.25.4h-4.03l.23-.36s-.73-.53-.95-.75c-.22-.21-.61-.79-.61-.9s1.04-1.68,1.04-1.68l1.67-1.86s.26-.25.68-.25h8.36Z"/>
    <path class="cls-5" d="M24.15,64.88l1.36-1.6s.3-.14.42-.11c.12.03.41.49.37.86-.04.37-.33.77-.65,1.01-.32.24-.54.21-.54.21h-.9s-.11-.07-.11-.07v-.11l.06-.19h0Z"/>
    <path class="cls-5" d="M30.91,64.37c0,.37-.28.67-.62.67s-.62-.3-.62-.67.28-.67.62-.67.62.3.62.67"/>
    <path class="cls-5" d="M32.35,64.37c0,.37-.28.67-.62.67s-.62-.3-.62-.67.28-.67.62-.67.62.3.62.67"/>
    <path class="cls-5" d="M33.84,64.37c0,.37-.28.67-.62.67s-.62-.3-.62-.67.28-.67.62-.67.62.3.62.67"/>
    <path class="cls-8" d="M28.82,68.12c0-.58.43-1.05.97-1.05s.97.47.97,1.05-.43,1.05-.97,1.05-.97-.47-.97-1.05"/>
    <path class="cls-8" d="M31.47,68.12c0-.58.43-1.05.97-1.05s.97.47.97,1.05-.43,1.05-.97,1.05-.97-.47-.97-1.05"/>
    <polygon class="cls-8" points="30.65 63.4 27.81 61.35 30.51 59.72 31.31 59.72 28.55 61.38 30.86 63.06 30.65 63.4 30.65 63.4"/>
    <polyline class="cls-8" points="21.21 69.51 34.42 69.51 34.42 69.1 21.21 69.1"/>
    <path class="cls-7" d="M21.5,35.14h20.59c.82,0,1.49.63,1.49,1.39v7.31c0,.76-.67,1.39-1.49,1.39h-20.59c-.82,0-1.49-.63-1.49-1.39v-7.31c0-.76.67-1.39,1.49-1.39"/>
    <path class="cls-2" d="M21.5,35.66h20.59c.51,0,.93.39.93.87v7.31c0,.48-.42.87-.93.87h-20.59c-.51,0-.93-.39-.93-.87v-7.31c0-.48.42-.87.93-.87"/>
    <g>
      <path class="cls-5" d="M22.78,42.83v-4.55h-1.27v-.93h3.4v.93h-1.27v4.55h-.86Z"/>
      <path class="cls-5" d="M25.04,41.38v-1.05h1.61v1.05h-1.61Z"/>
    </g>
    <g>
      <path class="cls-5" d="M29.05,42.83h-.82v-3.95c-.3.36-.65.62-1.06.8v-.95c.21-.09.45-.26.7-.51.25-.25.42-.54.52-.88h.67v5.49Z"/>
      <path class="cls-5" d="M31.88,42.83v-1.1h-1.75v-.92l1.86-3.47h.69v3.47h.53v.92h-.53v1.1h-.79ZM31.88,40.81v-1.87l-.99,1.87h.99Z"/>
      <path class="cls-5" d="M33.68,41.38v-1.05h1.61v1.05h-1.61Z"/>
    </g>
    <g>
      <path class="cls-5" d="M37.7,42.83h-.82v-3.95c-.3.36-.65.62-1.06.8v-.95c.21-.09.45-.26.7-.51.25-.25.42-.54.52-.88h.67v5.49Z"/>
      <path class="cls-5" d="M39.45,39.88c-.21-.11-.37-.27-.46-.47s-.14-.42-.14-.66c0-.41.11-.75.33-1.01.22-.27.54-.4.95-.4s.72.13.95.4.34.6.34,1.01c0,.25-.05.48-.16.68-.1.2-.25.35-.44.45.24.12.42.3.54.53.12.23.19.5.19.81,0,.5-.13.92-.38,1.23-.25.32-.59.47-1.01.47-.39,0-.71-.13-.97-.39-.31-.31-.46-.73-.46-1.27,0-.3.06-.57.17-.82.11-.25.3-.44.54-.57ZM39.55,41.17c0,.29.06.51.17.68.12.16.26.24.43.24s.31-.08.42-.23c.11-.16.17-.38.17-.67,0-.26-.06-.46-.17-.62-.11-.16-.26-.23-.43-.23-.2,0-.35.09-.45.27s-.15.37-.15.57ZM39.62,38.83c0,.21.05.37.14.49s.22.17.37.17.28-.06.37-.18.14-.28.14-.49c0-.2-.05-.35-.14-.47-.09-.12-.21-.18-.37-.18s-.28.06-.38.18c-.09.12-.14.28-.14.47Z"/>
    </g>
  </g>
  <g>
    <g class="cls-16">
      <path class="cls-9" d="M4.48,78.96h104.61c2.47,0,4.48,2.18,4.48,4.85v71.9c0,2.67-2.01,4.85-4.48,4.85H4.48C2.01,160.56,0,158.38,0,155.71v-71.9c0-2.67,2.01-4.85,4.48-4.85"/>
    </g>
    <path class="cls-7" d="M4.48,79.95h104.61c1.96,0,3.57,1.74,3.57,3.86v71.9c0,2.13-1.6,3.86-3.57,3.86H4.48c-1.96,0-3.57-1.74-3.57-3.86v-71.9c0-2.13,1.6-3.86,3.57-3.86"/>
    <path class="cls-3" d="M109.09,80.94H4.48c-1.46,0-2.66,1.29-2.66,2.87v71.9c0,1.58,1.19,2.87,2.66,2.87h2.35v-.07h4.05v.07h98.21c1.46,0,2.65-1.29,2.65-2.87v-71.9c0-1.58-1.2-2.87-2.65-2.87h0Z"/>
    <path class="cls-7" d="M24.53,93.31h18.87c.75,0,1.37.67,1.37,1.49v7.84c0,.82-.61,1.49-1.37,1.49h-18.87c-.76,0-1.37-.67-1.37-1.49v-7.84c0-.82.61-1.49,1.37-1.49"/>
    <path class="cls-11" d="M24.53,93.87h18.87c.47,0,.85.42.85.93v7.84c0,.51-.38.93-.85.93h-18.87c-.47,0-.85-.42-.85-.93v-7.84c0-.51.38-.93.85-.93"/>
    <g>
      <path class="cls-5" d="M25.86,101.57v-5.87h1.64l.98,4.01.97-4.01h1.64v5.87h-1.02v-4.62l-1.08,4.62h-1.06l-1.07-4.62v4.62h-1.02Z"/>
      <path class="cls-5" d="M32.07,100v-1.12h2.04v1.12h-2.04Z"/>
    </g>
    <g>
      <path class="cls-5" d="M36.62,95.67c.53,0,.94.2,1.23.61.35.48.53,1.28.53,2.39s-.18,1.91-.53,2.39c-.29.4-.7.6-1.23.6s-.95-.22-1.28-.66c-.32-.44-.49-1.22-.49-2.35s.18-1.9.53-2.39c.29-.4.7-.6,1.23-.6ZM36.62,96.6c-.13,0-.24.04-.34.13-.1.09-.17.24-.23.47-.07.29-.11.78-.11,1.47s.03,1.16.1,1.42c.06.26.14.43.24.51.1.08.21.13.33.13s.24-.04.34-.13c.1-.09.18-.24.23-.47.07-.29.11-.78.11-1.47s-.03-1.16-.1-1.42c-.06-.26-.15-.43-.24-.52-.1-.09-.21-.13-.33-.13Z"/>
      <path class="cls-5" d="M39.04,100.01l1.01-.13c.03.28.12.49.26.64.14.15.31.22.51.22.21,0,.4-.09.54-.26.15-.18.22-.41.22-.71,0-.28-.07-.51-.21-.67s-.31-.25-.51-.25c-.13,0-.29.03-.48.08l.12-.92c.28,0,.5-.06.64-.2.15-.14.22-.33.22-.56,0-.2-.05-.35-.16-.47-.11-.12-.25-.18-.43-.18s-.33.07-.46.2-.2.33-.23.58l-.96-.18c.07-.35.17-.64.3-.85.13-.21.32-.38.56-.5.24-.12.51-.18.81-.18.51,0,.92.18,1.23.53.25.29.38.61.38.98,0,.51-.26.93-.78,1.23.31.07.56.23.75.48.19.25.28.55.28.91,0,.52-.17.96-.52,1.32-.35.36-.78.54-1.3.54-.49,0-.9-.15-1.22-.46s-.51-.71-.56-1.2Z"/>
    </g>
    <path class="cls-7" d="M24.53,105.14h18.87c.75,0,1.37.67,1.37,1.49v7.84c0,.82-.61,1.49-1.37,1.49h-18.87c-.76,0-1.37-.67-1.37-1.49v-7.84c0-.82.61-1.49,1.37-1.49"/>
    <path class="cls-10" d="M24.53,105.7h18.87c.47,0,.85.42.85.93v7.84c0,.51-.38.93-.85.93h-18.87c-.47,0-.85-.42-.85-.93v-7.84c0-.51.38-.93.85-.93"/>
    <g>
      <path class="cls-5" d="M26.95,113.39v-5.87h4.02v.99h-2.93v1.3h2.72v.99h-2.72v1.6h3.03v.99h-4.13Z"/>
      <path class="cls-5" d="M35.92,113.39v-1.18h-2.22v-.99l2.35-3.73h.87v3.73h.67v.99h-.67v1.18h-1.01ZM35.92,111.21v-2.01l-1.25,2.01h1.25Z"/>
      <path class="cls-5" d="M39.85,107.49c.53,0,.94.2,1.23.61.35.48.53,1.28.53,2.39s-.18,1.91-.53,2.39c-.29.4-.7.6-1.23.6s-.95-.22-1.28-.66c-.32-.44-.49-1.22-.49-2.35s.18-1.9.53-2.39c.29-.4.7-.6,1.23-.6ZM39.85,108.42c-.13,0-.24.04-.34.13-.1.09-.17.24-.23.47-.07.29-.11.78-.11,1.47s.03,1.16.1,1.42c.06.26.14.43.24.51.1.08.21.13.33.13s.24-.04.34-.13c.1-.09.18-.24.23-.47.07-.29.11-.78.11-1.47s-.03-1.16-.1-1.42c-.06-.26-.15-.43-.24-.52-.1-.09-.21-.13-.33-.13Z"/>
    </g>
    <g>
      <path class="cls-5" d="M96.54,93.42v7.18h-1.3v-4.67h-1.47v-1.08h.16c.91,0,1.45-.48,1.6-1.44h1.01Z"/>
      <path class="cls-5" d="M102.8,93.48v1.2c-.67.87-1.15,1.76-1.45,2.68s-.48,2-.54,3.24h-1.27c0-.86.21-1.89.62-3.07.41-1.19.88-2.1,1.4-2.73h-2.88v-1.31h4.12Z"/>
    </g>
    <path class="cls-5" d="M103.87,95.77c.02-.75.22-1.33.59-1.76.37-.43.87-.64,1.5-.64.6,0,1.08.18,1.45.55s.56.84.56,1.42c0,.35-.08.65-.23.91-.15.26-.36.43-.62.51.33.1.6.29.79.58.19.29.29.65.29,1.07,0,.68-.21,1.24-.63,1.68-.42.43-.96.65-1.62.65s-1.23-.23-1.63-.68c-.4-.45-.6-1.06-.6-1.83v-.1h1.18c0,.44.1.79.27,1.02.17.24.43.35.75.35.3,0,.54-.1.72-.3s.28-.46.28-.79c0-.38-.1-.65-.31-.82-.2-.17-.47-.25-.79-.25-.12,0-.22,0-.3.01v-1.03c.06,0,.13.01.21.01.7,0,1.05-.3,1.05-.9,0-.27-.08-.49-.23-.66-.15-.17-.36-.25-.61-.25-.29,0-.51.11-.67.32s-.24.52-.25.91h-1.17Z"/>
    <g>
      <path class="cls-5" d="M55,87.89v6.57h-1.24v-5.34h-2.31v5.34h-1.24v-6.57h4.79Z"/>
      <path class="cls-5" d="M60.08,92.08c0,.76-.19,1.37-.58,1.84-.38.46-.9.69-1.54.69s-1.15-.23-1.54-.69c-.39-.46-.58-1.07-.58-1.84s.2-1.37.59-1.83c.39-.46.91-.69,1.55-.69s1.14.23,1.52.69c.38.46.58,1.07.58,1.83ZM58.96,92.07c0-.47-.09-.84-.27-1.11-.18-.27-.42-.4-.73-.4s-.54.14-.71.41-.26.64-.26,1.12.09.86.26,1.13.42.41.73.41.55-.14.73-.41.26-.65.26-1.14Z"/>
    </g>
    <g>
      <path class="cls-5" d="M64.49,94.46h-1.12v-3.75h-1.08l-.05,1.68c0,.18-.01.33-.02.44,0,.11-.02.25-.04.43-.02.18-.05.32-.08.43-.03.11-.08.23-.15.36-.07.13-.14.23-.23.3-.09.07-.2.13-.34.18-.14.05-.29.08-.46.08-.28,0-.48-.03-.61-.09v-1.04c.13.03.24.05.32.05.32,0,.49-.33.51-.99l.06-2.83h3.29v4.76Z"/>
      <path class="cls-5" d="M68.85,90.7h-1.35v3.75h-1.12v-3.75h-1.35v-1h3.82v1Z"/>
    </g>
    <g>
      <path class="cls-5" d="M73.03,94.46h-1.14c-.04-.12-.06-.28-.08-.46-.34.4-.79.6-1.33.6-.46,0-.81-.13-1.07-.38-.26-.26-.39-.61-.39-1.06,0-.2.02-.38.07-.54.04-.15.12-.28.22-.39.1-.1.2-.19.29-.26s.22-.12.38-.17.3-.08.4-.1c.1-.02.24-.04.42-.07.4-.06.66-.13.8-.19.13-.07.2-.19.2-.38,0-.42-.25-.64-.74-.64-.26,0-.45.05-.57.16-.12.11-.2.3-.24.57h-1.06c.06-1.07.7-1.61,1.9-1.61s1.79.52,1.79,1.55v2.06c0,.6.05,1.03.14,1.29ZM71.8,92.14c-.13.09-.4.18-.79.25-.33.06-.55.14-.65.23-.12.11-.17.27-.17.48,0,.2.05.35.16.47.11.11.26.17.46.17.3,0,.54-.09.73-.28s.27-.45.27-.78v-.54Z"/>
      <path class="cls-5" d="M73.76,89.7h2.36c.39,0,.7.1.94.3.24.2.37.5.37.9,0,.46-.19.78-.56.98.5.17.75.55.75,1.16,0,.45-.13.8-.39,1.05-.26.25-.59.37-1,.37h-2.47v-4.76ZM74.87,91.6h.75c.45,0,.67-.18.67-.54,0-.21-.06-.35-.18-.42-.12-.07-.28-.11-.49-.11h-.75v1.08ZM74.87,93.61h.83c.23,0,.42-.04.55-.13.13-.09.2-.25.2-.5s-.07-.42-.21-.51c-.14-.09-.34-.13-.58-.13h-.79v1.26Z"/>
      <path class="cls-5" d="M82.14,94.46h-1.14c-.04-.12-.06-.28-.08-.46-.34.4-.79.6-1.33.6-.46,0-.81-.13-1.07-.38-.26-.26-.39-.61-.39-1.06,0-.2.02-.38.07-.54.04-.15.12-.28.22-.39.1-.1.2-.19.29-.26s.22-.12.38-.17.3-.08.4-.1c.1-.02.24-.04.42-.07.4-.06.66-.13.8-.19.13-.07.2-.19.2-.38,0-.42-.25-.64-.74-.64-.26,0-.45.05-.57.16-.12.11-.2.3-.24.57h-1.06c.06-1.07.7-1.61,1.9-1.61s1.79.52,1.79,1.55v2.06c0,.6.05,1.03.14,1.29ZM80.91,92.14c-.13.09-.4.18-.79.25-.33.06-.55.14-.65.23-.12.11-.17.27-.17.48,0,.2.05.35.16.47.11.11.26.17.46.17.3,0,.54-.09.73-.28s.27-.45.27-.78v-.54Z"/>
    </g>
    <g>
      <path class="cls-5" d="M50.08,98.55h1.83c.48,0,.85.13,1.13.4s.42.66.42,1.18-.14.91-.42,1.17-.64.4-1.09.4h-.95v1.77h-.92v-4.92ZM51,99.43v1.42h.83c.48,0,.73-.23.73-.7s-.24-.71-.72-.71h-.83Z"/>
      <path class="cls-5" d="M55.46,99.8c.47,0,.85.17,1.14.52.29.35.43.8.43,1.37s-.14,1.03-.43,1.38c-.29.34-.67.52-1.15.52s-.86-.17-1.15-.52c-.29-.35-.43-.8-.43-1.38s.15-1.02.44-1.37c.29-.34.68-.52,1.16-.52ZM55.44,100.54c-.23,0-.4.1-.54.3-.13.2-.2.48-.2.84s.07.65.2.85c.13.2.31.3.55.3s.42-.1.54-.31.19-.49.19-.85-.07-.63-.2-.83-.32-.3-.55-.3Z"/>
      <path class="cls-5" d="M58.45,98.55v4.92h-.84v-4.92h.84Z"/>
      <path class="cls-5" d="M60.81,99.9v.66h-.62v1.68c0,.11,0,.18,0,.23,0,.05.02.1.04.15.02.05.06.08.11.1.05.02.12.02.21.02.1,0,.19,0,.26-.01v.75c-.21.02-.38.03-.51.03-.37,0-.62-.07-.75-.22-.13-.15-.2-.44-.2-.87v-1.85h-.51v-.66h.51v-1.08h.84v1.08h.62Z"/>
      <path class="cls-5" d="M64.06,103.47h-.86c-.03-.09-.05-.21-.06-.35-.26.3-.59.45-.99.45-.34,0-.61-.1-.8-.29-.19-.19-.29-.45-.29-.79,0-.15.02-.29.05-.4.03-.12.09-.21.17-.29s.15-.14.22-.19.17-.09.29-.12.22-.06.3-.07c.08-.02.18-.03.31-.05.3-.05.5-.09.6-.15.1-.05.15-.14.15-.28,0-.32-.18-.48-.55-.48-.19,0-.34.04-.43.12-.09.08-.15.22-.18.42h-.79c.05-.8.52-1.2,1.42-1.2s1.34.39,1.34,1.16v1.54c0,.45.04.77.11.97ZM63.14,101.73c-.1.07-.3.13-.59.19-.25.05-.41.1-.49.17-.09.08-.13.2-.13.36,0,.15.04.26.12.35.08.09.2.13.34.13.23,0,.41-.07.54-.21s.21-.33.21-.58v-.4Z"/>
      <path class="cls-5" d="M66.53,99.9h.84l-1.04,3.57h-.95l-1.05-3.57h.89l.65,2.43.65-2.43Z"/>
      <path class="cls-5" d="M70.57,103.47h-.86c-.03-.09-.05-.21-.06-.35-.26.3-.59.45-.99.45-.34,0-.61-.1-.8-.29-.19-.19-.29-.45-.29-.79,0-.15.02-.29.05-.4.03-.12.09-.21.17-.29s.15-.14.22-.19.17-.09.29-.12.22-.06.3-.07c.08-.02.18-.03.31-.05.3-.05.5-.09.6-.15.1-.05.15-.14.15-.28,0-.32-.18-.48-.55-.48-.19,0-.34.04-.43.12-.09.08-.15.22-.18.42h-.79c.05-.8.52-1.2,1.42-1.2s1.34.39,1.34,1.16v1.54c0,.45.04.77.11.97ZM69.65,101.73c-.1.07-.3.13-.59.19-.25.05-.41.1-.49.17-.09.08-.13.2-.13.36,0,.15.04.26.12.35.08.09.2.13.34.13.23,0,.41-.07.54-.21s.21-.33.21-.58v-.4Z"/>
    </g>
    <g>
      <path class="cls-5" d="M93.4,118.75c.02-.75.22-1.33.59-1.76.37-.43.87-.64,1.5-.64.6,0,1.08.18,1.45.55s.56.84.56,1.42c0,.35-.08.65-.23.91-.15.26-.36.43-.62.51.33.1.6.29.79.58.19.29.29.65.29,1.07,0,.68-.21,1.24-.63,1.68-.42.43-.96.65-1.62.65s-1.23-.23-1.63-.68c-.4-.45-.6-1.06-.6-1.83v-.1h1.18c0,.44.1.79.27,1.02.17.24.43.35.75.35.3,0,.54-.1.72-.3s.28-.46.28-.79c0-.38-.1-.65-.31-.82-.2-.17-.47-.25-.79-.25-.12,0-.22,0-.3.01v-1.03c.06,0,.13.01.21.01.7,0,1.05-.3,1.05-.9,0-.27-.08-.49-.23-.66-.15-.17-.36-.25-.61-.25-.29,0-.51.11-.67.32s-.24.52-.25.91h-1.17Z"/>
      <path class="cls-5" d="M101.77,116.4v7.18h-1.3v-4.67h-1.47v-1.08h.16c.91,0,1.45-.48,1.6-1.44h1.01Z"/>
    </g>
    <path class="cls-5" d="M108.24,120.72v1.21h-.81v1.65h-1.14v-1.65h-2.59v-1.34l2.62-4.21h1.1v4.34h.81ZM106.29,120.72v-2.67l-1.61,2.67h1.61Z"/>
    <g>
      <path class="cls-5" d="M54.83,110.87l-1.82,3.14,1.98,3.43h-1.48l-1.24-2.28-1.25,2.28h-1.41l1.99-3.43-1.84-3.14h1.44l1.13,2.11,1.13-2.11h1.37Z"/>
      <path class="cls-5" d="M59.2,117.43h-1.14c-.04-.12-.06-.28-.08-.46-.34.4-.79.6-1.33.6-.46,0-.81-.13-1.07-.38-.26-.26-.39-.61-.39-1.06,0-.2.02-.38.07-.54.04-.15.12-.28.22-.39.1-.1.2-.19.29-.26s.22-.12.38-.17.3-.08.4-.1c.1-.02.24-.04.42-.07.4-.06.66-.13.8-.19.13-.07.2-.19.2-.38,0-.42-.25-.64-.74-.64-.26,0-.45.05-.57.16-.12.11-.2.3-.24.57h-1.06c.06-1.07.7-1.61,1.9-1.61s1.79.52,1.79,1.55v2.06c0,.6.05,1.03.14,1.29ZM57.97,115.12c-.13.09-.4.18-.79.25-.33.06-.55.14-.65.23-.12.11-.17.27-.17.48,0,.2.05.35.16.47.11.11.26.17.46.17.3,0,.54-.09.73-.28s.27-.45.27-.78v-.54Z"/>
      <path class="cls-5" d="M61.01,112.67v.59c.3-.48.72-.72,1.27-.72s.99.23,1.33.69c.33.46.5,1.08.5,1.84s-.16,1.34-.49,1.79c-.33.45-.76.68-1.29.68s-.97-.24-1.26-.71v2.28h-1.12v-6.45h1.06ZM62,113.6c-.31,0-.55.13-.72.39-.17.26-.26.62-.26,1.08s.09.82.26,1.08c.17.26.42.39.72.39s.54-.13.71-.39c.17-.26.26-.61.26-1.06s-.09-.82-.26-1.09c-.17-.26-.41-.4-.71-.4Z"/>
      <path class="cls-5" d="M68.97,117.43h-1.37l-1.18-2.05-.5.59v1.46h-1.1v-4.76h1.1v1.88l1.5-1.88h1.33l-1.59,1.84,1.81,2.92Z"/>
      <path class="cls-5" d="M70.51,110.87v1.11h-1.13v-1.11h1.13ZM70.51,112.67v4.76h-1.13v-4.76h1.13Z"/>
    </g>
    <path class="cls-5" d="M71.38,112.67h2.36c.39,0,.7.1.94.3.24.2.37.5.37.9,0,.46-.19.78-.56.98.5.17.75.55.75,1.16,0,.45-.13.8-.39,1.05-.26.25-.59.37-1,.37h-2.47v-4.76ZM72.49,114.58h.75c.45,0,.67-.18.67-.54,0-.21-.06-.35-.18-.42-.12-.07-.28-.11-.49-.11h-.75v1.08ZM72.49,116.59h.83c.23,0,.42-.04.55-.13.13-.09.2-.25.2-.5s-.07-.42-.21-.51c-.14-.09-.34-.13-.58-.13h-.79v1.26Z"/>
    <g>
      <path class="cls-5" d="M53.84,121.53l-1.66,1.94,1.81,2.98h-1.17l-1.28-2.21-.54.62v1.59h-.92v-4.92h.92v2.05l1.66-2.05h1.17Z"/>
      <path class="cls-5" d="M55.11,121.53v1.83c.24-.38.57-.57.97-.57.72,0,1.08.44,1.08,1.32v2.34h-.84v-2.1c0-.24-.04-.43-.11-.56s-.22-.19-.43-.19c-.25,0-.43.09-.52.28-.09.19-.14.44-.14.75v1.82h-.83v-4.92h.83Z"/>
      <path class="cls-5" d="M60.66,126.45h-.86c-.03-.09-.05-.21-.06-.35-.26.3-.59.45-.99.45-.34,0-.61-.1-.8-.29-.19-.19-.29-.45-.29-.79,0-.15.02-.29.05-.4.03-.12.09-.21.17-.29s.15-.14.22-.19.17-.09.29-.12.22-.06.3-.07c.08-.02.18-.03.31-.05.3-.05.5-.09.6-.15.1-.05.15-.14.15-.28,0-.32-.18-.48-.55-.48-.19,0-.34.04-.43.12-.09.08-.15.22-.18.42h-.79c.05-.8.52-1.2,1.42-1.2s1.34.39,1.34,1.16v1.54c0,.45.04.77.11.97ZM59.73,124.71c-.1.07-.3.13-.59.19-.25.05-.41.1-.49.17-.09.08-.13.2-.13.36,0,.15.04.26.12.35.08.09.2.13.34.13.23,0,.41-.07.54-.21s.21-.33.21-.58v-.4Z"/>
      <path class="cls-5" d="M63.21,122.82v.91c-.12-.03-.23-.04-.33-.04-.28,0-.48.1-.61.31s-.2.48-.2.83v1.63h-.84v-3.57h.8v.66c.2-.49.53-.74.99-.74.04,0,.1,0,.18.02Z"/>
      <path class="cls-5" d="M66.51,122.88l-1.15,1.32,1.29,2.25h-1.02l-.84-1.58-.34.37v1.21h-.83v-4.92h.83v2.63l1.08-1.28h.99Z"/>
      <path class="cls-5" d="M67.81,121.53v.83h-.84v-.83h.84ZM67.81,122.88v3.57h-.84v-3.57h.84Z"/>
      <path class="cls-5" d="M70.38,122.88h.84l-1.04,3.57h-.95l-1.05-3.57h.89l.65,2.43.65-2.43Z"/>
    </g>
    <g>
      <path class="cls-5" d="M103.01,148.12v1.21h-.81v1.65h-1.14v-1.65h-2.59v-1.34l2.62-4.21h1.1v4.34h.81ZM101.06,148.12v-2.67l-1.61,2.67h1.61Z"/>
      <path class="cls-5" d="M103.84,149.18h1.17c.1.55.37.82.83.82.21,0,.39-.07.54-.21.15-.14.26-.33.33-.57.07-.25.13-.47.16-.67.03-.2.06-.44.08-.7-.33.55-.76.83-1.29.83s-1.02-.22-1.38-.67c-.36-.44-.54-1.01-.54-1.7,0-.73.21-1.34.62-1.83.42-.49.93-.73,1.55-.73.4,0,.75.1,1.06.3.3.2.54.47.7.82.17.34.29.71.37,1.11.08.4.12.82.12,1.27s-.04.91-.12,1.34c-.08.43-.21.84-.38,1.23s-.41.7-.73.94c-.32.24-.68.35-1.1.35-.55,0-1.01-.17-1.36-.52s-.57-.82-.63-1.41ZM105.88,144.94c-.27,0-.5.12-.68.38-.18.25-.27.56-.27.94s.09.7.27.94c.18.25.41.37.69.37s.5-.12.69-.37c.18-.25.27-.56.27-.93s-.09-.69-.28-.94c-.18-.25-.41-.38-.69-.38Z"/>
    </g>
    <g>
      <path class="cls-5" d="M55,138.26v6.57h-1.24v-5.34h-2.31v5.34h-1.24v-6.57h4.79Z"/>
      <path class="cls-5" d="M57.04,140.07v.59c.3-.48.72-.72,1.27-.72s.99.23,1.33.69c.33.46.5,1.08.5,1.84s-.16,1.34-.49,1.79c-.33.45-.76.68-1.29.68s-.97-.24-1.26-.71v2.28h-1.12v-6.45h1.06ZM58.03,140.99c-.31,0-.55.13-.72.39-.17.26-.26.62-.26,1.08s.09.82.26,1.08c.17.26.42.39.72.39s.54-.13.71-.39c.17-.26.26-.61.26-1.06s-.09-.82-.26-1.09c-.17-.26-.41-.4-.71-.4Z"/>
      <path class="cls-5" d="M64.66,144.83h-1.08v-3.22l-1.46,3.22h-1.28v-4.76h1.08v3.22l1.46-3.22h1.28v4.76Z"/>
      <path class="cls-5" d="M69.34,144.83h-1.12v-3.75h-1.08l-.05,1.68c0,.18-.01.33-.02.44,0,.11-.02.25-.04.43-.02.18-.05.32-.08.43-.03.11-.08.23-.15.36-.07.13-.14.23-.23.3-.09.07-.2.13-.34.18-.14.05-.29.08-.46.08-.28,0-.48-.03-.61-.09v-1.04c.13.03.24.05.32.05.32,0,.49-.33.51-.99l.06-2.83h3.29v4.76Z"/>
      <path class="cls-5" d="M73.96,140.07l-1.51,4.74c-.07.24-.13.41-.16.5-.03.09-.09.23-.16.4-.07.17-.14.29-.2.36s-.14.14-.25.23c-.1.09-.22.14-.35.18-.13.03-.28.05-.45.05-.14,0-.39,0-.75,0v-1.08h.55c.19,0,.33-.05.42-.17.1-.11.15-.27.15-.47,0-.05-.01-.11-.03-.18l-1.48-4.55h1.21l.94,3.24.91-3.24h1.17Z"/>
      <path class="cls-5" d="M78.54,144.83h-1.37l-1.18-2.05-.5.59v1.46h-1.1v-4.76h1.1v1.88l1.5-1.88h1.33l-1.59,1.84,1.81,2.92Z"/>
      <path class="cls-5" d="M82.74,144.83h-1.08v-3.22l-1.46,3.22h-1.28v-4.76h1.08v3.22l1.46-3.22h1.28v4.76Z"/>
    </g>
    <g>
      <path class="cls-5" d="M50.08,148.93h1.83c.48,0,.85.13,1.13.4s.42.66.42,1.18-.14.91-.42,1.17-.64.4-1.09.4h-.95v1.77h-.92v-4.92ZM51,149.81v1.42h.83c.48,0,.73-.23.73-.7s-.24-.71-.72-.71h-.83Z"/>
      <path class="cls-5" d="M55.94,150.22v.91c-.12-.03-.23-.04-.33-.04-.28,0-.48.1-.61.31s-.2.48-.2.83v1.63h-.84v-3.57h.8v.66c.2-.49.53-.74.99-.74.04,0,.1,0,.18.02Z"/>
      <path class="cls-5" d="M59.05,150.28l-1.13,3.55c-.06.18-.1.3-.12.38-.03.07-.07.17-.12.3s-.1.22-.15.27c-.05.05-.11.11-.18.17s-.17.11-.26.13c-.1.02-.21.03-.34.03-.1,0-.29,0-.56,0v-.81h.41c.14,0,.24-.04.32-.12s.11-.2.11-.35c0-.04,0-.08-.02-.14l-1.11-3.41h.91l.7,2.43.68-2.43h.87Z"/>
      <path class="cls-5" d="M60.22,148.93v4.92h-.84v-4.92h.84Z"/>
      <path class="cls-5" d="M63.76,150.28v3.57h-.8v-.5c-.24.41-.57.61-1,.61-.34,0-.6-.11-.79-.32s-.28-.53-.28-.95v-2.4h.85v2.04c0,.13,0,.24.02.32,0,.08.03.16.06.25.03.08.08.14.16.18s.17.06.28.06c.44,0,.67-.34.67-1.01v-1.84h.84Z"/>
      <path class="cls-5" d="M67.39,150.28l-1.15,1.32,1.29,2.25h-1.02l-.84-1.58-.34.37v1.21h-.83v-4.92h.83v2.63l1.08-1.28h.99Z"/>
      <path class="cls-5" d="M70.61,150.28l-1.13,3.55c-.06.18-.1.3-.12.38-.03.07-.07.17-.12.3s-.1.22-.15.27c-.05.05-.11.11-.18.17s-.17.11-.26.13c-.1.02-.21.03-.34.03-.1,0-.29,0-.56,0v-.81h.41c.14,0,.24-.04.32-.12s.11-.2.11-.35c0-.04,0-.08-.02-.14l-1.11-3.41h.91l.7,2.43.68-2.43h.87Z"/>
    </g>
    <polygon class="cls-5" points="18.71 100.76 12.63 93.33 6.39 101.35 6.51 105.98 11.02 100.12 11 113.83 14.26 113.83 14.26 100.05 18.71 105.76 18.71 100.76 18.71 100.76"/>
    <polygon class="cls-5" points="11.57 139.52 4.7 146.1 12.11 152.86 16.39 152.73 10.97 147.84 21.11 147.86 21.11 144.33 10.91 144.34 16.19 139.52 11.57 139.52 11.57 139.52"/>
    <path class="cls-7" d="M24.53,140.83h18.87c.75,0,1.37.67,1.37,1.49v7.84c0,.81-.61,1.49-1.37,1.49h-18.87c-.76,0-1.37-.67-1.37-1.49v-7.84c0-.82.61-1.49,1.37-1.49"/>
    <path class="cls-2" d="M24.53,141.38h18.87c.47,0,.85.42.85.93v7.84c0,.51-.38.93-.85.93h-18.87c-.47,0-.85-.42-.85-.93v-7.84c0-.51.38-.93.85-.93"/>
    <g>
      <path class="cls-5" d="M26.7,149.08v-5.87h1.76c.67,0,1.1.03,1.3.09.31.09.57.28.78.58.21.29.32.68.32,1.14,0,.36-.06.66-.18.91s-.27.44-.46.58c-.19.14-.38.23-.57.28-.26.06-.64.08-1.14.08h-.71v2.21h-1.1ZM27.79,144.2v1.67h.6c.43,0,.72-.03.87-.09s.26-.16.34-.29c.08-.13.12-.28.12-.46,0-.21-.06-.39-.17-.53-.12-.14-.26-.23-.44-.26-.13-.03-.39-.04-.79-.04h-.53Z"/>
      <path class="cls-5" d="M31.17,147.52v-1.12h2.04v1.12h-2.04Z"/>
    </g>
    <g>
      <path class="cls-5" d="M37.35,144.65l-1.01.12c-.02-.22-.09-.39-.19-.5s-.24-.16-.4-.16c-.22,0-.41.11-.56.32-.15.21-.25.66-.29,1.33.26-.33.58-.5.97-.5.43,0,.81.18,1.12.54.31.36.46.82.46,1.39,0,.6-.16,1.08-.49,1.45-.33.36-.74.54-1.25.54-.55,0-1-.23-1.35-.69-.35-.46-.53-1.22-.53-2.26s.18-1.85.55-2.33c.37-.47.84-.71,1.43-.71.41,0,.75.12,1.02.38.27.25.44.61.52,1.09ZM34.99,147.1c0,.37.08.65.23.85.16.2.33.3.53.3s.35-.08.48-.24c.13-.16.19-.43.19-.8s-.07-.66-.21-.84c-.14-.18-.31-.27-.52-.27s-.37.08-.51.25c-.14.17-.21.42-.21.75Z"/>
      <path class="cls-5" d="M38.04,144.34v-1.05h3.56v.82c-.29.31-.59.76-.9,1.35s-.54,1.21-.69,1.86-.24,1.25-.23,1.76h-1c.02-.81.17-1.64.46-2.48.29-.84.68-1.6,1.17-2.26h-2.37Z"/>
    </g>
    <polyline class="cls-5" points="1.41 133.96 111.97 133.96 111.97 133.05 1.41 133.05"/>
  </g>
  <g class="cls-12">
    <g class="cls-19">
      <path class="cls-9" d="M4.08,163.48h105.01c2.15,0,3.9,1.9,3.9,4.22v49.42c0,2.33-1.75,4.22-3.9,4.22H4.08c-2.15,0-3.9-1.9-3.9-4.22v-49.42c0-2.32,1.75-4.22,3.9-4.22"/>
      <path class="cls-7" d="M4.08,164.34h105.01c1.71,0,3.11,1.51,3.11,3.36v49.42c0,1.85-1.4,3.36-3.11,3.36H4.08c-1.71,0-3.11-1.51-3.11-3.36v-49.42c0-1.85,1.4-3.36,3.11-3.36"/>
      <path class="cls-3" d="M109.09,165.2H4.08c-1.27,0-2.31,1.12-2.31,2.5v49.42c0,1.38,1.04,2.5,2.31,2.5h2.04v-.06h3.52v.06h99.44c1.27,0,2.31-1.12,2.31-2.5v-49.42c0-1.38-1.04-2.5-2.31-2.5"/>
      <path class="cls-6" d="M1.4,203.37v14.09c0,1.4,1.05,2.55,2.33,2.55h2.06v-.06h3.55v.06h100.09c1.28,0,2.33-1.15,2.33-2.55v-14.09H1.4Z"/>
    </g>
    <line class="cls-14" x1="1.4" y1="203.37" x2="111.59" y2="203.37"/>
    <line class="cls-14" x1="1.4" y1="184.28" x2="111.59" y2="184.28"/>
    <polygon class="cls-5" points="12.49 173.76 8.74 169.45 4.93 173.96 5.01 176.54 7.77 173.25 7.79 180.92 9.79 180.91 9.75 173.3 12.49 176.55 12.49 173.76"/>
    <g class="cls-17">
      <path class="cls-7" d="M16.18,174.43h11.7c.47,0,.85.42.85.92v4.86c0,.51-.38.92-.85.92h-11.7c-.47,0-.85-.42-.85-.92v-4.86c0-.51.38-.92.85-.92"/>
      <path class="cls-10" d="M16.18,174.77h11.7c.29,0,.53.26.53.58v4.86c0,.32-.24.58-.53.58h-11.7c-.29,0-.53-.26-.53-.58v-4.86c0-.32.24-.58.53-.58"/>
    </g>
    <g>
      <path class="cls-5" d="M17.67,179.54v-3.64h2.5v.62h-1.82v.81h1.69v.61h-1.69v.99h1.88v.61h-2.56Z"/>
      <path class="cls-5" d="M23.23,179.54v-.73h-1.38v-.61l1.46-2.31h.54v2.31h.42v.61h-.42v.73h-.62ZM23.23,178.2v-1.24l-.77,1.24h.77Z"/>
      <path class="cls-5" d="M25.68,175.89c.33,0,.58.12.76.38.22.3.33.79.33,1.48s-.11,1.18-.33,1.49c-.18.25-.44.37-.76.37s-.59-.14-.79-.41-.3-.76-.3-1.46.11-1.18.33-1.48c.18-.25.44-.37.76-.37ZM25.68,176.47c-.08,0-.15.03-.21.08s-.11.15-.14.29c-.04.18-.07.48-.07.91s.02.72.06.88c.04.16.09.27.15.32.06.05.13.08.21.08s.15-.03.21-.08c.06-.05.11-.15.14-.29.04-.18.07-.48.07-.91s-.02-.72-.06-.88c-.04-.16-.09-.27-.15-.32-.06-.05-.13-.08-.21-.08Z"/>
    </g>
    <g class="cls-20">
      <path class="cls-7" d="M16.03,167.27h11.7c.47,0,.85.42.85.92v4.86c0,.51-.38.92-.85.92h-11.7c-.47,0-.85-.42-.85-.92v-4.86c0-.51.38-.92.85-.92"/>
      <path class="cls-11" d="M16.03,167.62h11.7c.29,0,.53.26.53.58v4.86c0,.32-.24.58-.53.58h-11.7c-.29,0-.53-.26-.53-.58v-4.86c0-.32.24-.58.53-.58"/>
    </g>
    <path class="cls-5" d="M16.85,172.39v-3.64h1.02l.61,2.48.6-2.48h1.02v3.64h-.63v-2.87l-.67,2.87h-.65l-.67-2.87v2.87h-.63Z"/>
    <path class="cls-5" d="M20.7,171.42v-.7h1.27v.7h-1.27Z"/>
    <g>
      <path class="cls-5" d="M23.52,168.74c.33,0,.58.12.76.38.22.3.33.79.33,1.48s-.11,1.18-.33,1.49c-.18.25-.44.37-.76.37s-.59-.14-.79-.41-.3-.76-.3-1.46.11-1.18.33-1.48c.18-.25.44-.37.76-.37ZM23.52,169.31c-.08,0-.15.03-.21.08s-.11.15-.14.29c-.04.18-.07.48-.07.91s.02.72.06.88c.04.16.09.27.15.32.06.05.13.08.21.08s.15-.03.21-.08c.06-.05.11-.15.14-.29.04-.18.07-.48.07-.91s-.02-.72-.06-.88c-.04-.16-.09-.27-.15-.32-.06-.05-.13-.08-.21-.08Z"/>
      <path class="cls-5" d="M27.23,169.64l-.62.07c-.02-.14-.06-.24-.12-.31-.06-.07-.15-.1-.25-.1-.14,0-.25.07-.34.2-.09.13-.15.41-.18.83.16-.21.36-.31.6-.31.27,0,.5.11.69.33.19.22.29.51.29.86,0,.37-.1.67-.3.9-.2.22-.46.34-.78.34-.34,0-.62-.14-.84-.43-.22-.29-.33-.75-.33-1.4s.11-1.15.34-1.44c.23-.29.52-.44.89-.44.26,0,.47.08.63.23.17.16.27.38.32.67ZM25.77,171.17c0,.23.05.4.14.53.1.12.21.18.33.18s.22-.05.3-.15c.08-.1.12-.27.12-.5s-.04-.41-.13-.52c-.08-.11-.19-.17-.32-.17s-.23.05-.31.16c-.08.11-.13.26-.13.47Z"/>
    </g>
    <g class="cls-13">
      <path class="cls-7" d="M16.03,189.9h11.7c.47,0,.85.42.85.92v4.86c0,.51-.38.92-.85.92h-11.7c-.47,0-.85-.42-.85-.92v-4.86c0-.51.38-.92.85-.92"/>
      <path class="cls-11" d="M16.03,190.24h11.7c.29,0,.53.26.53.58v4.86c0,.32-.24.58-.53.58h-11.7c-.29,0-.53-.26-.53-.58v-4.86c0-.32.24-.58.53-.58"/>
    </g>
    <path class="cls-5" d="M16.85,195.02v-3.64h1.02l.61,2.48.6-2.48h1.02v3.64h-.63v-2.87l-.67,2.87h-.65l-.67-2.87v2.87h-.63Z"/>
    <path class="cls-5" d="M20.7,194.05v-.7h1.27v.7h-1.27Z"/>
    <g>
      <path class="cls-5" d="M24.08,195.02h-.64v-2.63c-.24.24-.51.42-.83.53v-.63c.17-.06.35-.17.55-.34.2-.17.33-.36.41-.58h.52v3.66Z"/>
      <path class="cls-5" d="M25.06,194.17l.62-.07c.01.14.05.24.12.3.06.07.15.1.25.1.13,0,.25-.07.34-.2.09-.13.15-.41.18-.83-.16.2-.37.31-.61.31-.26,0-.49-.11-.68-.33-.19-.22-.29-.51-.29-.86s.1-.67.3-.89c.2-.23.46-.34.77-.34.34,0,.62.14.84.43.22.29.33.76.33,1.41s-.11,1.15-.34,1.44c-.23.29-.52.44-.89.44-.26,0-.48-.08-.64-.23-.16-.15-.27-.38-.31-.68ZM26.52,192.65c0-.22-.05-.4-.14-.52s-.21-.19-.33-.19-.22.05-.3.15c-.08.1-.12.27-.12.5s.04.41.13.52.19.17.32.17.23-.05.31-.16c.08-.11.13-.26.13-.47Z"/>
    </g>
    <g>
      <path class="cls-5" d="M33.06,172.86c.7-.2.86-.87,1-4.28h2.72v5.05h-.83v-4.19h-1.17c-.16,3.29-.38,3.96-1.52,4.29l-.2-.87Z"/>
      <path class="cls-5" d="M40.28,172.47c0,.74-.44,1.17-1.23,1.17h-1.33v-3.61h.78v1.26h.55c.79,0,1.23.43,1.23,1.18ZM39.05,172.89c.29,0,.44-.14.44-.42s-.15-.43-.44-.43h-.55v.84h.55Z"/>
      <path class="cls-5" d="M43.54,171.02c0,.34-.12.6-.35.77.29.17.45.45.45.83,0,.65-.45,1.02-1.24,1.02h-1.44v-3.61h1.39c.76,0,1.19.36,1.19.99ZM42.38,171.49c.24,0,.37-.14.37-.38s-.14-.37-.37-.37h-.63v.74h.63ZM42.45,172.92c.25,0,.4-.14.4-.4s-.15-.38-.4-.38h-.7v.78h.7Z"/>
      <path class="cls-5" d="M44.74,168.4c.27,0,.47.23.47.54s-.2.53-.47.53-.46-.23-.46-.53.2-.54.46-.54ZM45.14,173.64h-.78v-3.61h.78v3.61Z"/>
      <path class="cls-5" d="M48.59,171.02c0,.34-.12.6-.35.77.29.17.45.45.45.83,0,.65-.45,1.02-1.24,1.02h-1.44v-3.61h1.39c.76,0,1.19.36,1.19.99ZM47.43,171.49c.24,0,.37-.14.37-.38s-.14-.37-.37-.37h-.63v.74h.63ZM47.5,172.92c.25,0,.4-.14.4-.4s-.15-.38-.4-.38h-.7v.78h.7Z"/>
    </g>
    <g>
      <path class="cls-5" d="M86.66,195.07h-1.98v-.78l1.8-3.09h.97v3.09h.56v.78h-.56v1.18h-.79v-1.18ZM85.42,194.29h1.24v-2.11l-1.24,2.11Z"/>
      <path class="cls-5" d="M90.01,191.12c1.02,0,1.51.86,1.51,2.61s-.49,2.6-1.51,2.6-1.51-.86-1.51-2.6.49-2.61,1.51-2.61ZM89.29,193.72c0,1.15.25,1.79.72,1.79s.72-.64.72-1.79-.25-1.8-.72-1.8-.72.64-.72,1.8Z"/>
    </g>
    <g>
      <path class="cls-5" d="M83.77,176.12h-.79v-3.94c-.17.25-.59.49-.98.57v-.89c.42-.11.84-.43,1.06-.79h.71v5.05Z"/>
      <path class="cls-5" d="M86.33,171c.97,0,1.53.83,1.53,2.26,0,1.82-.94,2.92-2.48,2.92l-.16-.8c1.12,0,1.83-.63,1.84-1.58-.11.29-.45.49-.88.49-.8,0-1.35-.65-1.35-1.59,0-1,.63-1.7,1.52-1.7ZM86.29,171.81c-.43,0-.69.35-.69.84s.25.84.69.84.7-.37.7-.84-.27-.84-.7-.84Z"/>
      <path class="cls-5" d="M90.02,170.98c1.02,0,1.51.86,1.51,2.61s-.49,2.6-1.51,2.6-1.51-.86-1.51-2.6.49-2.61,1.51-2.61ZM89.29,173.58c0,1.15.25,1.79.72,1.79s.72-.64.72-1.79-.25-1.8-.72-1.8-.72.64-.72,1.8Z"/>
    </g>
    <g>
      <path class="cls-5" d="M85.14,212.44l.11-2.74h2.5v.8h-1.84l-.04,1.15c.17-.19.47-.3.8-.3.83,0,1.35.66,1.35,1.68,0,1.1-.6,1.79-1.55,1.79-.78,0-1.33-.48-1.47-1.29l.75-.16c.08.4.37.64.73.64.46,0,.75-.37.75-.95s-.28-.94-.71-.94c-.27,0-.51.14-.65.4l-.73-.08Z"/>
      <path class="cls-5" d="M90.17,209.62c1.02,0,1.51.86,1.51,2.61s-.49,2.6-1.51,2.6-1.51-.86-1.51-2.6.49-2.61,1.51-2.61ZM89.45,212.22c0,1.15.25,1.79.72,1.79s.72-.64.72-1.79-.25-1.8-.72-1.8-.72.64-.72,1.8Z"/>
    </g>
    <g>
      <path class="cls-5" d="M32.64,192.27c.7-.2.86-.87,1-4.28h2.72v5.05h-.83v-4.19h-1.17c-.16,3.29-.38,3.96-1.52,4.29l-.2-.87Z"/>
      <path class="cls-5" d="M37.73,194.41c-.17,0-.37-.03-.52-.12l.08-.77c.1.05.2.07.3.07.25,0,.4-.15.52-.57l-1.18-3.59h.84l.71,2.36.71-2.36h.84l-1.28,3.92c-.25.79-.52,1.05-1.02,1.05Z"/>
      <path class="cls-5" d="M43.11,194.06l-.14-1.01h-2.43v-3.61h.78v2.83h1.14v-2.83h.79v2.83h.47v1.79h-.6Z"/>
      <path class="cls-5" d="M46.82,191.88c0,.74-.44,1.17-1.23,1.17h-1.33v-3.61h.78v1.26h.55c.79,0,1.23.43,1.23,1.18ZM45.59,192.3c.29,0,.44-.14.44-.42s-.15-.43-.44-.43h-.55v.84h.55Z"/>
      <path class="cls-5" d="M48.29,191.6v1.44h-.78v-3.61h.78v1.33h.29l.78-1.33h.92l-1.06,1.75,1.15,1.86h-.92l-.86-1.44h-.29Z"/>
    </g>
    <g>
      <path class="cls-5" d="M32.21,207.57l-.75-.12c.09-.79.7-1.3,1.58-1.3s1.55.56,1.55,1.4c0,.49-.21.87-.57,1.08.42.2.66.61.66,1.18,0,.92-.63,1.52-1.61,1.52-.92,0-1.57-.54-1.66-1.36l.76-.14c.07.4.42.65.88.65s.78-.27.78-.71c0-.41-.29-.69-.73-.69h-.58v-.8h.58c.4,0,.66-.23.66-.61,0-.4-.29-.65-.75-.65-.43,0-.74.22-.8.56Z"/>
      <path class="cls-5" d="M35.28,208.1c.38-.34.78-.5,1.28-.5.83,0,1.26.43,1.26,1.26v1.44c0,.22.1.38.27.45l-.24.58c-.34,0-.58-.12-.71-.37-.18.24-.51.38-.91.38-.68,0-1.07-.4-1.07-1.05,0-.69.44-1.13,1.18-1.18l.68-.05v-.15c0-.33-.2-.52-.56-.52-.29,0-.55.1-.79.32l-.4-.61ZM36.42,209.74c-.32.02-.49.19-.49.47s.17.44.52.44c.39,0,.6-.22.6-.69v-.27l-.62.04Z"/>
      <path class="cls-5" d="M40.19,210.68l-.78-1.54v2.14h-.74v-3.61h.79l.89,1.72.88-1.72h.8v3.61h-.74v-2.14l-.78,1.54h-.32Z"/>
      <path class="cls-5" d="M44.17,211.34c-.93,0-1.45-.67-1.45-1.87s.52-1.87,1.45-1.87,1.45.67,1.45,1.87-.52,1.87-1.45,1.87ZM44.17,210.53c.43,0,.66-.35.66-1.06s-.22-1.06-.66-1.06-.66.35-.66,1.06.22,1.06.66,1.06Z"/>
      <path class="cls-5" d="M47.1,209.83v1.44h-.78v-3.61h.78v1.33h.29l.78-1.33h.92l-1.06,1.75,1.15,1.86h-.92l-.86-1.44h-.29Z"/>
      <path class="cls-5" d="M50.83,210.5c.7-.2.86-.87,1-4.28h2.72v5.05h-.83v-4.19h-1.17c-.16,3.29-.38,3.96-1.52,4.29l-.2-.87Z"/>
      <path class="cls-5" d="M58.27,211.34c-.81,0-1.3-.54-1.4-1.51h-.6v1.44h-.78v-3.61h.78v1.39h.6c.11-.94.6-1.46,1.39-1.46.91,0,1.42.67,1.42,1.87s-.51,1.87-1.42,1.87ZM58.27,210.53c.42,0,.63-.35.63-1.06s-.2-1.06-.63-1.06-.63.35-.63,1.06.21,1.06.63,1.06Z"/>
      <path class="cls-5" d="M62.89,207.02l-1.09.12c-.61.06-.88.41-.92,1.18.14-.37.5-.58.96-.58.83,0,1.31.63,1.31,1.77s-.52,1.83-1.43,1.83-1.47-.67-1.47-2.48c0-1.66.48-2.47,1.55-2.58l1.1-.12v.87ZM61.71,210.53c.43,0,.65-.34.65-1s-.22-1-.65-1-.65.33-.65,1,.22,1.01.65,1.01Z"/>
      <path class="cls-5" d="M63.74,208.1c.38-.34.78-.5,1.28-.5.83,0,1.26.43,1.26,1.26v1.44c0,.22.1.38.27.45l-.24.58c-.34,0-.58-.12-.71-.37-.18.24-.51.38-.91.38-.68,0-1.07-.4-1.07-1.05,0-.69.44-1.13,1.18-1.18l.68-.05v-.15c0-.33-.2-.52-.56-.52-.29,0-.55.1-.79.32l-.4-.61ZM64.88,209.74c-.32.02-.49.19-.49.47s.17.44.52.44c.39,0,.6-.22.6-.69v-.27l-.62.04Z"/>
      <path class="cls-5" d="M68.74,207.6c.81,0,1.27.67,1.27,1.87s-.45,1.87-1.27,1.87c-.36,0-.64-.14-.83-.41v1.65h-.78v-4.91h.74v.41c.2-.32.49-.48.88-.48ZM68.57,208.41c-.44,0-.66.35-.66,1.06s.22,1.06.66,1.06.66-.35.66-1.05-.22-1.07-.66-1.07Z"/>
      <path class="cls-5" d="M70.38,207.67h2.67v.78h-.94v2.83h-.78v-2.83h-.94v-.78Z"/>
      <path class="cls-5" d="M73.46,208.1c.38-.34.78-.5,1.28-.5.83,0,1.26.43,1.26,1.26v1.44c0,.22.1.38.27.45l-.24.58c-.34,0-.58-.12-.71-.37-.18.24-.51.38-.91.38-.68,0-1.07-.4-1.07-1.05,0-.69.44-1.13,1.18-1.18l.68-.05v-.15c0-.33-.2-.52-.56-.52-.29,0-.55.1-.79.32l-.4-.61ZM74.6,209.74c-.32.02-.49.19-.49.47s.17.44.52.44c.39,0,.6-.22.6-.69v-.27l-.62.04Z"/>
    </g>
    <g>
      <path class="cls-5" d="M34.75,179.42h-1.95v-3.64h.43v3.2h1.53v.44Z"/>
      <path class="cls-5" d="M36.03,179.42h-.43l-.85-2.6h.43l.64,2.03.64-2.03h.43l-.86,2.6Z"/>
      <path class="cls-5" d="M37.53,175.73c.15,0,.26.12.26.3s-.11.3-.26.3-.26-.13-.26-.3.11-.3.26-.3ZM37.73,179.42h-.4v-2.6h.4v2.6Z"/>
      <path class="cls-5" d="M39.46,179.42h-.43l-.85-2.6h.43l.64,2.03.64-2.03h.43l-.86,2.6Z"/>
    </g>
    <g>
      <path class="cls-5" d="M34.67,198.79h-1.95v-3.64h.43v3.2h1.53v.44Z"/>
      <path class="cls-5" d="M36.55,196.19h.4v2.6h-.38v-.32c-.16.24-.39.36-.7.36-.52,0-.81-.35-.81-.97v-1.68h.4v1.64c0,.37.19.58.53.58s.55-.22.55-.61v-1.61Z"/>
      <path class="cls-5" d="M37.78,196.19v-.68l.4-.17v.85h.51v.36h-.51v1.54c0,.2.11.32.3.32.05,0,.13-.01.21-.03l.04.38c-.1.03-.21.04-.31.04-.41,0-.64-.26-.64-.71v-1.54h-.33v-.36h.33Z"/>
      <path class="cls-5" d="M39.94,198.84c-.39,0-.7-.14-.92-.4l.23-.29c.15.18.4.29.7.29.33,0,.53-.15.53-.39,0-.21-.16-.31-.54-.36-.6-.08-.86-.31-.86-.76,0-.49.3-.77.85-.77.34,0,.63.11.82.32l-.24.28c-.14-.13-.36-.2-.59-.2-.3,0-.48.13-.48.35,0,.2.15.31.54.36.6.08.86.3.86.76,0,.51-.33.82-.91.82Z"/>
      <path class="cls-5" d="M41.77,198.79h-.4v-3.64h.4v2.27l.97-1.23h.5l-.85,1.08.92,1.52h-.47l-.73-1.2-.34.43v.76Z"/>
    </g>
    <g>
      <path class="cls-5" d="M33.86,217.35h-1.95v-3.64h.43v3.2h1.53v.44Z"/>
      <path class="cls-5" d="M35.75,214.75h.4v2.6h-.38v-.32c-.16.24-.39.36-.7.36-.52,0-.81-.35-.81-.97v-1.68h.4v1.64c0,.37.19.58.53.58s.55-.22.55-.61v-1.61Z"/>
      <path class="cls-5" d="M37.27,217.35h-.38v-3.64h.4v1.43c.14-.28.37-.43.68-.43.59,0,.92.49.92,1.34s-.34,1.34-.92,1.34c-.33,0-.57-.16-.7-.46v.42ZM37.89,215.13c-.39,0-.6.32-.6.93s.21.92.6.92.6-.32.6-.93-.21-.92-.6-.92Z"/>
      <path class="cls-5" d="M39.39,215.07c.24-.23.53-.36.88-.36.55,0,.85.3.85.86v1.13c0,.21.08.35.23.38l-.12.31c-.22,0-.38-.1-.46-.29-.12.18-.38.3-.69.3-.5,0-.78-.28-.78-.73,0-.49.31-.8.83-.83l.57-.04v-.21c0-.3-.17-.47-.48-.47-.24,0-.46.09-.64.27l-.21-.32ZM40.18,216.17c-.31.02-.49.18-.49.45s.17.41.49.41c.34,0,.54-.17.54-.49v-.4l-.54.03Z"/>
      <path class="cls-5" d="M41.82,214.75h.38v.43c.15-.31.38-.47.7-.47.13,0,.24.03.34.08l-.16.43c-.07-.05-.17-.08-.27-.08-.37,0-.58.32-.58.87v1.34h-.4v-2.6Z"/>
      <path class="cls-5" d="M43.82,214.75v-.68l.4-.17v.85h.51v.36h-.51v1.54c0,.2.11.32.3.32.05,0,.13-.01.21-.03l.04.38c-.1.03-.21.04-.31.04-.41,0-.64-.26-.64-.71v-1.54h-.33v-.36h.33Z"/>
      <path class="cls-5" d="M45.18,215.07c.24-.23.53-.36.88-.36.55,0,.85.3.85.86v1.13c0,.21.08.35.23.38l-.12.31c-.22,0-.38-.1-.46-.29-.12.18-.38.3-.69.3-.5,0-.78-.28-.78-.73,0-.49.31-.8.83-.83l.57-.04v-.21c0-.3-.17-.47-.48-.47-.24,0-.46.09-.64.27l-.21-.32ZM45.97,216.17c-.31.02-.48.18-.48.45s.17.41.48.41c.34,0,.54-.17.54-.49v-.4l-.54.03Z"/>
      <path class="cls-5" d="M47.81,213.67c.16,0,.26.13.26.36,0,.26-.13.57-.36.76h-.17c.15-.22.21-.35.22-.53-.13-.02-.22-.14-.22-.3,0-.18.11-.31.26-.31Z"/>
      <path class="cls-5" d="M49.45,217.4c-.39,0-.7-.14-.92-.4l.23-.29c.15.18.4.29.7.29.33,0,.53-.15.53-.39,0-.21-.16-.31-.54-.36-.6-.08-.86-.31-.86-.76,0-.49.3-.77.85-.77.34,0,.63.11.82.32l-.24.28c-.14-.13-.36-.2-.59-.2-.3,0-.48.13-.48.35,0,.2.15.31.54.36.6.08.86.3.86.76,0,.51-.33.82-.91.82Z"/>
      <path class="cls-5" d="M52.26,215.53c0,.92.3,1.42.84,1.42.37,0,.64-.23.76-.66l.42.08c-.17.66-.58,1.03-1.18,1.03-.81,0-1.27-.68-1.27-1.86s.46-1.86,1.27-1.86c.6,0,1.01.36,1.18,1.02l-.41.08c-.13-.43-.39-.66-.76-.66-.55,0-.85.5-.85,1.42Z"/>
      <path class="cls-5" d="M54.77,215.07c.24-.23.53-.36.88-.36.55,0,.85.3.85.86v1.13c0,.21.08.35.23.38l-.12.31c-.22,0-.38-.1-.46-.29-.12.18-.38.3-.69.3-.5,0-.78-.28-.78-.73,0-.49.31-.8.83-.83l.57-.04v-.21c0-.3-.17-.47-.48-.47-.24,0-.46.09-.64.27l-.21-.32ZM55.56,216.17c-.31.02-.48.18-.48.45s.17.41.48.41c.34,0,.54-.17.54-.49v-.4l-.54.03Z"/>
      <path class="cls-5" d="M57.91,217.4c-.39,0-.7-.14-.92-.4l.23-.29c.15.18.4.29.7.29.33,0,.53-.15.53-.39,0-.21-.16-.31-.54-.36-.6-.08-.86-.31-.86-.76,0-.49.3-.77.85-.77.34,0,.63.11.82.32l-.24.28c-.14-.13-.36-.2-.59-.2-.3,0-.48.13-.48.35,0,.2.15.31.54.36.6.08.86.3.86.76,0,.51-.33.82-.91.82Z"/>
      <path class="cls-5" d="M59.42,214.75v-.68l.4-.17v.85h.51v.36h-.51v1.54c0,.2.11.32.3.32.05,0,.13-.01.21-.03l.04.38c-.1.03-.21.04-.31.04-.41,0-.64-.26-.64-.71v-1.54h-.33v-.36h.33Z"/>
      <path class="cls-5" d="M61.65,216.96l.02.39c-.09.03-.17.03-.25.03-.36,0-.56-.22-.56-.61v-3.06h.4v2.99c0,.19.08.29.24.29.04,0,.09-.01.14-.03Z"/>
      <path class="cls-5" d="M61.99,216.04c0-.83.37-1.33.99-1.33s.96.48.96,1.33v.15h-1.55c0,.51.26.8.69.8.23,0,.44-.09.59-.27l.24.29c-.22.25-.48.39-.84.39-.68,0-1.07-.48-1.07-1.35ZM62.39,215.85h1.18c-.02-.48-.23-.75-.58-.75s-.57.27-.6.75Z"/>
    </g>
    <g class="cls-15">
      <polygon class="cls-5" points="104.54 197.11 108.23 193.41 104.38 189.64 102.61 189.91 104.98 192.45 98.41 192.47 98.42 194.45 104.87 194.41 102.6 196.67 104.54 197.11"/>
      <polygon class="cls-5" points="104.54 215.35 108.23 211.64 104.38 207.87 102.61 208.14 104.98 210.68 98.41 210.7 98.42 212.68 104.87 212.64 102.6 214.9 104.54 215.35"/>
      <polygon class="cls-5" points="20.3 214.22 20.25 217.36 18.64 217.36 18.69 208.83 19.35 208.83 19.49 209.72 19.98 209.72 20.3 208.83 20.83 208.83 21.04 209.6 21.46 209.6 21.65 208.83 22.23 208.83 22.44 209.71 22.93 209.71 23.06 208.83 23.69 208.83 23.69 217.36 21.98 217.36 21.98 214.22 20.3 214.22"/>
      <polyline class="cls-5" points="23.91 211.99 24.78 211.99 24.78 212.88 25.21 212.88 25.21 211.99 26.01 211.99 26.03 212.88 26.47 212.88 26.47 211.99 27.23 211.99 27.33 217.36 23.91 217.36"/>
      <rect class="cls-5" x="21.02" y="206.21" width=".46" height="3.52"/>
      <path class="cls-5" d="M21.45,207.32c.46.24.92-.23,1.38.01v-1.08c-.46-.23-.92.24-1.38.01v1.06Z"/>
      <rect class="cls-1" x="19.63" y="210.52" width=".61" height=".89"/>
      <rect class="cls-1" x="20.9" y="210.52" width=".61" height=".89"/>
      <rect class="cls-1" x="22.21" y="210.52" width=".61" height=".89"/>
    </g>
  </g>
</svg>