<?xml version="1.0" encoding="UTF-8"?>
<svg id="Layer_1" data-name="Layer 1" xmlns="http://www.w3.org/2000/svg" xmlns:xlink="http://www.w3.org/1999/xlink" viewBox="0 0 117.46 221.4">
  <defs>
    <style>
      .cls-1 {
        fill: #00aeef;
      }

      .cls-1, .cls-2, .cls-3, .cls-4, .cls-5, .cls-6, .cls-7, .cls-8 {
        stroke-width: 0px;
      }

      .cls-9 {
        clip-path: url(#clippath-2);
      }

      .cls-10 {
        clip-path: url(#clippath-6);
      }

      .cls-2 {
        fill: none;
      }

      .cls-11 {
        clip-path: url(#clippath-1);
      }

      .cls-12 {
        clip-path: url(#clippath-4);
      }

      .cls-3, .cls-5 {
        fill: #fff;
      }

      .cls-4 {
        fill: #9c5849;
      }

      .cls-5, .cls-6, .cls-7, .cls-8 {
        fill-rule: evenodd;
      }

      .cls-13 {
        clip-path: url(#clippath);
      }

      .cls-6 {
        fill: #231f20;
      }

      .cls-14 {
        clip-path: url(#clippath-3);
      }

      .cls-7 {
        fill: #0db14b;
      }

      .cls-8 {
        fill: #ed1c24;
      }

      .cls-15 {
        clip-path: url(#clippath-5);
      }
    </style>
    <clipPath id="clippath">
      <polygon class="cls-2" points="0 163.15 95.45 163.15 95.45 83.87 0 83.87 0 163.15 0 163.15"/>
    </clipPath>
    <clipPath id="clippath-1">
      <polygon class="cls-2" points="0 79.28 117.45 79.28 117.45 0 0 0 0 79.28 0 79.28"/>
    </clipPath>
    <clipPath id="clippath-2">
      <rect class="cls-2" y="166.26" width="117.46" height="55.14"/>
    </clipPath>
    <clipPath id="clippath-3">
      <rect class="cls-2" y="166.26" width="117.46" height="55.14"/>
    </clipPath>
    <clipPath id="clippath-4">
      <rect class="cls-2" y="166.26" width="117.46" height="55.14"/>
    </clipPath>
    <clipPath id="clippath-5">
      <rect class="cls-2" y="166.26" width="117.46" height="55.14"/>
    </clipPath>
    <clipPath id="clippath-6">
      <rect class="cls-2" y="166.26" width="117.46" height="55.14"/>
    </clipPath>
  </defs>
  <g>
    <g class="cls-13">
      <path class="cls-6" d="M5.31,83.87h84.84c2.92,0,5.31,2.38,5.31,5.31v68.66c0,2.92-2.38,5.31-5.31,5.31H5.31C2.38,163.15,0,160.76,0,157.84v-68.66C0,86.26,2.38,83.87,5.31,83.87"/>
    </g>
    <path class="cls-5" d="M5.31,84.96h84.84c2.33,0,4.22,1.9,4.22,4.22v68.66c0,2.33-1.9,4.23-4.22,4.23H5.31c-2.33,0-4.23-1.9-4.23-4.23v-68.66c0-2.33,1.9-4.22,4.23-4.22"/>
    <path class="cls-1" d="M90.15,86.04H5.31c-1.73,0-3.14,1.41-3.14,3.14v68.66c0,1.73,1.41,3.14,3.14,3.14h2.78v-.07h4.79v.07h77.27c1.73,0,3.14-1.41,3.14-3.14v-68.66c0-1.73-1.41-3.14-3.14-3.14h0Z"/>
    <path class="cls-5" d="M7.79,93.87h29.27c1.17,0,2.12.96,2.12,2.13v11.24c0,1.17-.95,2.13-2.12,2.13H7.79c-1.17,0-2.12-.96-2.12-2.13v-11.24c0-1.17.95-2.13,2.12-2.13"/>
    <path class="cls-8" d="M7.79,94.66h29.27c.73,0,1.32.6,1.32,1.34v11.24c0,.73-.6,1.33-1.32,1.33H7.79c-.73,0-1.32-.6-1.32-1.33v-11.24c0-.73.59-1.34,1.32-1.34"/>
    <g>
      <path class="cls-3" d="M9.84,105.7v-8.42h2.54l1.53,5.74,1.51-5.74h2.55v8.42h-1.58v-6.63l-1.67,6.63h-1.64l-1.67-6.63v6.63h-1.58Z"/>
      <path class="cls-3" d="M19.47,103.45v-1.61h3.17v1.61h-3.17Z"/>
    </g>
    <g>
      <path class="cls-3" d="M26.54,97.24c.82,0,1.45.29,1.91.87.55.69.82,1.83.82,3.43s-.28,2.74-.83,3.43c-.46.57-1.09.86-1.91.86s-1.48-.32-1.98-.94c-.5-.63-.75-1.75-.75-3.37s.28-2.73.83-3.42c.46-.57,1.09-.86,1.91-.86ZM26.54,98.58c-.2,0-.37.06-.52.19-.15.12-.27.35-.36.67-.11.42-.17,1.12-.17,2.11s.05,1.67.15,2.04c.1.37.22.62.38.74.15.12.33.18.52.18s.37-.06.52-.19c.15-.12.27-.35.36-.67.11-.41.17-1.11.17-2.1s-.05-1.67-.15-2.04-.23-.62-.38-.74c-.15-.12-.33-.19-.52-.19Z"/>
      <path class="cls-3" d="M30.38,103.53l1.61-.17c.05.36.18.65.41.87.23.21.49.32.78.32.34,0,.62-.14.86-.41.23-.27.35-.69.35-1.24,0-.52-.12-.9-.35-1.16-.23-.26-.53-.39-.9-.39-.46,0-.88.21-1.25.62l-1.31-.19.83-4.38h4.27v1.51h-3.04l-.25,1.43c.36-.18.73-.27,1.1-.27.72,0,1.32.26,1.82.78s.75,1.2.75,2.03c0,.69-.2,1.31-.6,1.85-.55.74-1.31,1.11-2.28,1.11-.78,0-1.41-.21-1.9-.63-.49-.42-.78-.98-.88-1.68Z"/>
    </g>
    <path class="cls-5" d="M7.79,111.63h29.27c1.17,0,2.12.96,2.12,2.13v11.24c0,1.17-.95,2.13-2.12,2.13H7.79c-1.17,0-2.12-.96-2.12-2.13v-11.24c0-1.17.95-2.13,2.12-2.13"/>
    <path class="cls-7" d="M7.79,112.42h29.27c.73,0,1.32.6,1.32,1.34v11.24c0,.73-.6,1.33-1.32,1.33H7.79c-.73,0-1.32-.6-1.32-1.33v-11.24c0-.74.59-1.34,1.32-1.34"/>
    <g>
      <path class="cls-3" d="M11.53,123.46v-8.42h6.24v1.42h-4.54v1.87h4.23v1.42h-4.23v2.29h4.7v1.42h-6.4Z"/>
      <path class="cls-3" d="M22.32,121.51l1.56-.17c.04.32.14.55.3.71.16.15.37.23.64.23.33,0,.62-.15.85-.46s.38-.94.45-1.91c-.41.47-.91.71-1.52.71-.66,0-1.23-.25-1.71-.77-.48-.51-.72-1.18-.72-2s.25-1.54.76-2.06c.51-.52,1.15-.78,1.94-.78.85,0,1.55.33,2.1.99.55.66.82,1.75.82,3.26s-.29,2.65-.86,3.33-1.31,1.02-2.23,1.02c-.66,0-1.19-.17-1.6-.53-.41-.35-.67-.87-.78-1.57ZM25.97,117.99c0-.52-.12-.92-.36-1.21-.24-.29-.52-.43-.83-.43s-.55.12-.74.35-.3.62-.3,1.16.11.94.32,1.2c.21.25.48.38.8.38s.57-.12.78-.37c.21-.25.32-.61.32-1.08Z"/>
      <path class="cls-3" d="M28.85,121.3l1.61-.17c.05.36.18.65.41.87.23.21.49.32.78.32.34,0,.62-.14.86-.41.23-.27.35-.69.35-1.24,0-.52-.12-.9-.35-1.16-.23-.26-.53-.39-.9-.39-.46,0-.88.21-1.25.62l-1.31-.19.83-4.38h4.27v1.51h-3.04l-.25,1.43c.36-.18.73-.27,1.1-.27.72,0,1.32.26,1.82.78.5.52.75,1.2.75,2.03,0,.69-.2,1.31-.6,1.85-.55.74-1.31,1.11-2.28,1.11-.78,0-1.41-.21-1.9-.63-.49-.42-.78-.98-.88-1.68Z"/>
    </g>
    <polygon class="cls-3" points="30.69 141.44 22.55 133.39 13.77 142.17 13.94 147.24 20.28 140.83 20.25 155.83 24.84 155.83 24.83 141.09 30.69 146.91 30.69 141.44 30.69 141.44"/>
    <g>
      <path class="cls-3" d="M48.73,137.59c1.2,0,2.17.42,2.91,1.27s1.11,1.95,1.11,3.31-.37,2.46-1.11,3.3-1.71,1.25-2.92,1.25-2.19-.42-2.94-1.25-1.12-1.93-1.12-3.3.37-2.49,1.11-3.32,1.73-1.25,2.96-1.25ZM48.71,139.16c-.68,0-1.22.27-1.62.81-.4.54-.6,1.26-.6,2.17s.2,1.67.6,2.2c.4.53.95.8,1.65.81.68,0,1.22-.27,1.61-.81.39-.54.59-1.27.59-2.2s-.2-1.64-.6-2.17c-.4-.54-.94-.8-1.62-.8Z"/>
      <path class="cls-3" d="M60.25,148.37h-1.53v-1.86h-3.92v1.86h-1.53v-3.19h.71c.19-.39.36-.96.52-1.71.15-.75.23-1.47.23-2.16v-1.1h4.75v4.98h.77v3.19ZM57.86,145.17v-3.69h-1.6v.16c0,.61-.07,1.26-.21,1.94-.14.68-.29,1.21-.46,1.6h2.27Z"/>
      <path class="cls-3" d="M66.64,144.55c-.18.68-.52,1.2-1.02,1.58-.5.38-1.08.56-1.77.56-.92,0-1.65-.3-2.21-.91s-.83-1.4-.83-2.4.28-1.79.84-2.42,1.28-.95,2.14-.95,1.61.32,2.14.97c.53.65.79,1.53.79,2.64v.17h-4.26c0,.55.13.96.37,1.25.24.29.58.43,1.02.43.58,0,.98-.31,1.21-.92h1.57ZM65.07,142.69c-.04-.42-.17-.76-.38-1.02-.22-.27-.51-.4-.9-.4-.36,0-.66.13-.9.38-.24.25-.38.6-.43,1.04h2.6Z"/>
      <path class="cls-3" d="M73.33,144.07c-.1.82-.4,1.45-.9,1.91-.5.46-1.15.68-1.94.68-.91,0-1.65-.3-2.2-.89-.55-.59-.83-1.39-.83-2.37s.28-1.84.84-2.46c.56-.62,1.3-.93,2.22-.93.79,0,1.44.21,1.94.64.5.43.78,1.01.85,1.74h-1.6c-.12-.73-.51-1.09-1.17-1.09-.45,0-.79.18-1.04.54-.25.36-.38.87-.38,1.51s.12,1.12.36,1.46c.24.35.58.52,1.02.52.71,0,1.14-.42,1.27-1.27h1.58Z"/>
      <path class="cls-3" d="M79.81,146.51h-1.66c-.05-.16-.09-.37-.12-.61-.5.53-1.14.79-1.92.79-.66,0-1.18-.17-1.56-.51-.38-.34-.56-.8-.56-1.4,0-.27.03-.51.1-.71.06-.2.17-.38.32-.51s.29-.25.43-.34c.13-.09.32-.16.56-.22.24-.06.43-.1.58-.13.15-.03.35-.06.61-.09.58-.08.96-.17,1.16-.26.2-.09.29-.26.29-.5,0-.56-.36-.84-1.07-.84-.38,0-.65.07-.83.21-.18.14-.29.39-.35.75h-1.53c.09-1.42,1.01-2.13,2.75-2.13s2.59.69,2.59,2.05v2.73c0,.8.07,1.37.21,1.71ZM78.02,143.44c-.19.12-.58.23-1.15.33-.48.08-.8.18-.95.31-.17.15-.25.36-.25.64,0,.26.08.47.24.62.16.15.38.23.66.23.44,0,.79-.12,1.05-.37.27-.25.4-.59.4-1.03v-.71Z"/>
    </g>
    <g>
      <path class="cls-3" d="M47.6,149.99c.9,0,1.62.32,2.18.95.56.63.83,1.46.83,2.48s-.28,1.84-.83,2.47c-.55.63-1.28.94-2.19.94s-1.64-.31-2.2-.94c-.56-.63-.84-1.45-.84-2.47s.28-1.86.83-2.49c.56-.63,1.29-.94,2.21-.94ZM47.59,151.16c-.51,0-.91.2-1.21.61-.3.4-.45.94-.45,1.62s.15,1.25.45,1.65c.3.4.71.6,1.23.6.51,0,.92-.2,1.21-.6.29-.4.44-.95.44-1.65s-.15-1.23-.45-1.63c-.3-.4-.7-.6-1.22-.6Z"/>
      <path class="cls-3" d="M55.75,156.67h-1.16v-.61c-.29.49-.74.73-1.35.73s-1.11-.23-1.47-.68c-.37-.46-.55-1.06-.55-1.83s.18-1.34.53-1.8.83-.68,1.42-.68c.28,0,.54.06.78.18.25.12.44.3.57.53v-2.38h1.22v6.53ZM54.58,154.3c0-.46-.09-.82-.28-1.07-.19-.26-.45-.38-.78-.38s-.59.13-.78.38c-.18.26-.28.61-.28,1.06s.09.82.28,1.08c.19.26.44.39.77.39s.6-.13.79-.38c.18-.25.28-.61.28-1.08Z"/>
      <path class="cls-3" d="M60.87,155.2c-.14.51-.39.9-.76,1.18-.37.28-.81.42-1.32.42-.68,0-1.24-.23-1.65-.68-.42-.45-.63-1.05-.63-1.8s.21-1.34.63-1.81.96-.71,1.61-.71,1.21.24,1.6.73c.4.49.6,1.14.6,1.98v.13h-3.19c0,.41.1.72.28.93.18.21.44.32.76.32.43,0,.73-.23.91-.69h1.17ZM59.69,153.81c-.03-.31-.12-.57-.29-.77-.16-.2-.39-.3-.67-.3-.27,0-.5.09-.67.28-.18.19-.28.45-.32.78h1.95Z"/>
      <path class="cls-3" d="M65.4,153.32h-1.14c-.03-.24-.12-.41-.25-.5-.13-.1-.33-.15-.59-.15-.22,0-.39.04-.51.12-.12.08-.18.2-.18.34,0,.17.07.29.21.36.14.07.39.14.74.22.06.01.11.02.14.03.21.04.37.08.5.11.12.03.28.09.45.17.18.08.32.16.42.26.1.09.18.22.26.38.07.16.11.34.11.55,0,.5-.18.89-.54,1.17s-.86.43-1.49.43-1.1-.14-1.49-.41c-.39-.27-.59-.7-.59-1.26h1.17c.04.53.36.79.95.79.25,0,.44-.05.59-.16.15-.11.22-.25.22-.43s-.07-.3-.2-.38c-.13-.07-.38-.15-.73-.24-.03,0-.05-.01-.07-.02-.04-.01-.13-.03-.27-.06-.14-.03-.23-.05-.29-.07-.05-.01-.14-.04-.27-.08-.12-.04-.21-.07-.27-.11-.06-.03-.13-.08-.23-.13-.1-.05-.17-.11-.21-.17s-.1-.13-.15-.22c-.06-.08-.09-.17-.11-.28-.02-.1-.03-.22-.03-.34,0-.46.17-.82.51-1.07s.82-.38,1.44-.38c.56,0,1.02.12,1.37.37.36.25.54.63.56,1.15Z"/>
      <path class="cls-3" d="M70.41,156.67h-1.24c-.04-.12-.07-.28-.09-.46-.37.4-.85.6-1.44.6-.5,0-.88-.13-1.17-.38-.28-.25-.42-.6-.42-1.05,0-.2.02-.38.07-.53.05-.15.13-.28.24-.38.11-.1.22-.19.32-.26.1-.07.24-.12.42-.17.18-.04.32-.08.43-.1s.26-.04.46-.07c.43-.06.72-.12.87-.19.15-.07.22-.19.22-.38,0-.42-.27-.63-.8-.63-.28,0-.49.05-.62.16-.13.11-.22.29-.26.56h-1.15c.07-1.06.76-1.59,2.06-1.59s1.94.51,1.94,1.54v2.04c0,.6.05,1.03.16,1.28ZM69.07,154.37c-.14.09-.43.17-.86.25-.36.06-.6.14-.71.23-.13.11-.19.27-.19.48,0,.2.06.35.18.46.12.11.28.17.5.17.33,0,.59-.09.79-.28s.3-.45.3-.77v-.53Z"/>
    </g>
    <g>
      <path class="cls-3" d="M45.4,122.73v-1.61c.29.13.58.2.86.2.26,0,.46-.07.61-.21s.22-.32.22-.53c0-.07,0-.15-.02-.22-.02-.07-.04-.16-.07-.25-.03-.09-.06-.16-.08-.21-.02-.05-.06-.13-.11-.24-.05-.11-.08-.18-.1-.21l-2.41-5.38h1.99l1.86,4.59,1.82-4.59h1.92l-2.77,6.41c-.39.91-.78,1.55-1.17,1.92-.39.36-.91.54-1.56.54-.36,0-.69-.07-1-.2Z"/>
      <path class="cls-3" d="M59.03,122.77h-1.54v-4.79h-.03l-1.16,4.79h-1.54l-1.16-4.79h-.03v4.79h-1.54v-6.31h2.37l1.12,4.59h.05l1.12-4.59h2.37v6.31Z"/>
    </g>
    <g>
      <path class="cls-3" d="M65.83,122.77h-1.66c-.05-.16-.09-.37-.12-.61-.5.53-1.14.79-1.92.79-.66,0-1.18-.17-1.56-.51-.38-.34-.56-.8-.56-1.4,0-.27.03-.51.1-.71s.17-.38.32-.51c.15-.14.29-.25.43-.34.13-.09.32-.16.56-.22.24-.06.43-.1.58-.13.15-.03.35-.06.61-.09.58-.08.96-.17,1.16-.26.2-.09.29-.26.29-.5,0-.56-.36-.84-1.07-.84-.38,0-.65.07-.83.21s-.29.39-.35.75h-1.53c.09-1.42,1.01-2.13,2.75-2.13s2.59.69,2.59,2.05v2.73c0,.8.07,1.37.21,1.71ZM64.04,119.7c-.19.12-.58.23-1.15.33-.48.08-.8.18-.94.31-.17.15-.25.36-.25.64,0,.26.08.47.24.62s.38.23.66.23c.44,0,.79-.12,1.05-.37s.4-.59.4-1.03v-.71Z"/>
      <path class="cls-3" d="M72.47,122.77h-1.62v-2.65h-2.29v2.65h-1.62v-6.31h1.62v2.29h2.29v-2.29h1.62v6.31Z"/>
    </g>
    <path class="cls-3" d="M79.08,120.69c0,.68-.21,1.19-.62,1.55-.41.35-.96.53-1.63.53h-3.12v-6.31h1.61v2.17h1.58c.63,0,1.15.18,1.56.54.41.36.62.87.62,1.53ZM75.32,119.79v1.77h1.12c.66,0,.99-.29.99-.88,0-.29-.09-.52-.28-.67-.18-.15-.43-.23-.73-.23h-1.11Z"/>
    <g>
      <path class="cls-3" d="M50.06,126.4v3.92c0,.93-.21,1.62-.63,2.07s-1.08.67-1.98.67-1.58-.22-2.01-.67c-.43-.45-.64-1.14-.64-2.08v-3.9h1.35v3.9c0,.53.09.93.28,1.18.19.26.54.39,1.04.39s.81-.13.99-.39c.17-.26.26-.65.26-1.18v-3.9h1.35Z"/>
      <path class="cls-3" d="M57.95,132.93h-1.24v-2.82c0-.31-.05-.55-.14-.72-.09-.17-.28-.25-.57-.25-.57,0-.85.38-.85,1.14v2.66h-1.23v-2.88c0-.29-.05-.52-.14-.68s-.27-.24-.54-.24c-.59,0-.89.41-.89,1.24v2.57h-1.23v-4.73h1.17v.65c.35-.52.82-.78,1.42-.78s1.04.26,1.26.78c.36-.52.84-.78,1.46-.78.49,0,.86.15,1.13.45s.39.71.39,1.22v3.18Z"/>
      <path class="cls-3" d="M63.05,132.93h-1.24c-.04-.12-.07-.28-.09-.46-.37.4-.85.6-1.44.6-.5,0-.88-.13-1.17-.38-.28-.25-.42-.6-.42-1.05,0-.2.02-.38.07-.53.05-.15.13-.28.24-.38.11-.1.22-.19.32-.26.1-.07.24-.12.42-.17.18-.04.32-.08.43-.1s.26-.04.46-.07c.43-.06.72-.12.87-.19s.22-.19.22-.38c0-.42-.27-.63-.8-.63-.28,0-.49.05-.62.16-.13.11-.22.29-.26.56h-1.15c.07-1.06.76-1.59,2.06-1.59s1.94.51,1.94,1.54v2.04c0,.6.05,1.03.16,1.28ZM61.71,130.63c-.14.09-.43.17-.86.25-.36.06-.6.14-.71.23-.13.11-.19.27-.19.48,0,.2.06.35.18.46.12.11.28.17.5.17.33,0,.59-.09.79-.28.2-.19.3-.45.3-.77v-.53Z"/>
    </g>
    <path class="cls-3" d="M68.05,132.93h-1.24v-2.76c0-.34-.05-.59-.16-.77s-.3-.26-.6-.26c-.64,0-.97.42-.97,1.25v2.54h-1.22v-4.73h1.17v.66c.37-.53.86-.79,1.48-.79.48,0,.85.15,1.13.44.28.29.41.71.41,1.25v3.16Z"/>
    <g>
      <path class="cls-3" d="M48.55,95.27l-2.2,3.79h-2.22l3.28-5.15-2.98-3.56h2.17l2.85,3.56v-3.56h1.73v3.56l2.85-3.56h2.17l-2.98,3.56,3.28,5.15h-2.23l-2.19-3.79-.89,1.06v2.73h-1.73v-2.73l-.89-1.06Z"/>
      <path class="cls-3" d="M62.52,99.06h-1.66c-.05-.16-.09-.37-.12-.61-.5.53-1.14.79-1.92.79-.66,0-1.18-.17-1.56-.51-.38-.34-.56-.8-.56-1.4,0-.27.03-.51.1-.71s.17-.38.32-.51c.15-.14.29-.25.43-.34.13-.09.32-.16.56-.22.24-.06.43-.1.58-.13.15-.03.35-.06.61-.09.58-.08.96-.17,1.16-.26.2-.09.29-.26.29-.5,0-.56-.36-.84-1.07-.84-.38,0-.65.07-.83.21s-.29.39-.35.75h-1.53c.09-1.42,1.01-2.13,2.75-2.13s2.59.69,2.59,2.05v2.73c0,.8.07,1.37.21,1.71ZM60.74,95.99c-.19.12-.58.23-1.15.33-.48.08-.8.18-.94.31-.17.15-.25.36-.25.64,0,.26.08.47.24.62s.38.23.66.23c.44,0,.79-.12,1.05-.37s.4-.59.4-1.03v-.71Z"/>
      <path class="cls-3" d="M72.05,99.06h-8.42v-6.31h1.62v4.98h1.77v-4.98h1.62v4.98h1.77v-4.98h1.62v6.31Z"/>
      <path class="cls-3" d="M79.39,99.06h-1.98l-1.72-2.72-.73.78v1.93h-1.6v-6.31h1.6v2.5l2.18-2.5h1.92l-2.3,2.45,2.63,3.87Z"/>
      <path class="cls-3" d="M81.61,90.35v1.47h-1.64v-1.47h1.64ZM81.61,92.75v6.31h-1.64v-6.31h1.64Z"/>
      <path class="cls-3" d="M82.88,92.75h3.42c.56,0,1.02.13,1.37.4s.53.66.53,1.19c0,.6-.27,1.04-.81,1.3.72.22,1.08.73,1.08,1.54,0,.59-.19,1.06-.57,1.39-.38.33-.86.5-1.45.5h-3.58v-6.31ZM84.49,95.28h1.08c.65,0,.97-.24.97-.72,0-.28-.09-.46-.26-.56s-.41-.15-.71-.15h-1.08v1.43ZM84.49,97.94h1.21c.34,0,.6-.06.79-.17s.29-.33.29-.66-.1-.56-.31-.67c-.21-.11-.49-.17-.84-.17h-1.14v1.68Z"/>
    </g>
    <g>
      <path class="cls-3" d="M49.49,102.7v1.09l-3.33,4.21h3.44v1.23h-5.2v-1.16l3.31-4.14h-3.07v-1.22h4.86Z"/>
      <path class="cls-3" d="M51.5,102.7v2.43c.35-.5.82-.75,1.41-.75,1.04,0,1.56.58,1.56,1.75v3.1h-1.22v-2.79c0-.32-.06-.57-.16-.74-.11-.17-.32-.26-.62-.26-.37,0-.62.12-.75.38s-.2.58-.2,1v2.41h-1.21v-6.53h1.21Z"/>
      <path class="cls-3" d="M59.55,109.23h-1.24c-.04-.12-.07-.28-.09-.46-.37.4-.85.6-1.44.6-.5,0-.88-.13-1.17-.38-.28-.25-.42-.6-.42-1.05,0-.2.02-.38.07-.53.05-.15.13-.28.24-.38.11-.1.22-.19.32-.26.1-.07.24-.12.42-.17.18-.04.32-.08.43-.1s.26-.04.46-.07c.43-.06.72-.12.87-.19s.22-.19.22-.38c0-.42-.27-.63-.8-.63-.28,0-.49.05-.62.16-.13.11-.22.29-.26.56h-1.15c.07-1.06.76-1.59,2.06-1.59s1.94.51,1.94,1.54v2.04c0,.6.05,1.03.16,1.28ZM58.21,106.93c-.14.09-.43.17-.86.25-.36.06-.6.14-.71.23-.13.11-.19.27-.19.48,0,.2.06.35.18.46.12.11.28.17.5.17.33,0,.59-.09.79-.28.2-.19.3-.45.3-.77v-.53Z"/>
      <path class="cls-3" d="M64.12,105.87h-1.14c-.03-.24-.12-.41-.25-.5-.14-.1-.33-.15-.59-.15-.22,0-.39.04-.51.12s-.18.2-.18.34c0,.17.07.29.21.36.14.07.39.14.74.22.06.01.11.02.14.03.21.04.37.08.5.11.12.03.27.09.45.17.18.08.32.16.41.26s.18.22.26.38c.08.16.11.34.11.55,0,.5-.18.89-.54,1.17s-.86.43-1.49.43-1.1-.14-1.49-.41c-.39-.27-.59-.7-.6-1.26h1.17c.04.53.36.79.95.79.25,0,.44-.05.59-.16.15-.11.22-.25.22-.43s-.07-.3-.2-.38c-.13-.07-.38-.15-.73-.24-.03,0-.05-.01-.07-.02-.04-.01-.13-.03-.27-.06-.14-.03-.23-.05-.29-.07-.05-.01-.14-.04-.27-.08-.12-.04-.21-.07-.27-.11-.06-.03-.13-.08-.23-.13-.09-.05-.17-.11-.21-.17-.05-.06-.1-.13-.15-.22-.05-.08-.09-.17-.11-.28s-.03-.22-.03-.34c0-.46.17-.82.51-1.07.34-.25.82-.38,1.44-.38.56,0,1.02.12,1.37.37.36.25.54.63.56,1.15Z"/>
      <path class="cls-3" d="M66.21,102.7v2.43c.35-.5.82-.75,1.41-.75,1.04,0,1.56.58,1.56,1.75v3.1h-1.23v-2.79c0-.32-.05-.57-.16-.74s-.32-.26-.62-.26c-.37,0-.62.12-.75.38-.14.25-.2.58-.2,1v2.41h-1.21v-6.53h1.21Z"/>
      <path class="cls-3" d="M74.43,104.5l-1.67,1.75,1.87,2.98h-1.48l-1.23-2.1-.5.5v1.6h-1.2v-6.53h1.2v3.49l1.57-1.7h1.44Z"/>
      <path class="cls-3" d="M76.32,102.7v1.1h-1.23v-1.1h1.23ZM76.32,104.5v4.73h-1.23v-4.73h1.23Z"/>
      <path class="cls-3" d="M80.06,104.5h1.22l-1.51,4.73h-1.37l-1.53-4.73h1.29l.95,3.23.95-3.23Z"/>
    </g>
  </g>
  <g>
    <g class="cls-11">
      <path class="cls-6" d="M5.31,0h106.84c2.92,0,5.31,2.38,5.31,5.31v68.66c0,2.92-2.38,5.31-5.31,5.31H5.31C2.38,79.28,0,76.89,0,73.97V5.31C0,2.38,2.38,0,5.31,0"/>
    </g>
    <path class="cls-5" d="M5.31,1.08h106.84c2.33,0,4.22,1.9,4.22,4.22v68.66c0,2.33-1.9,4.23-4.22,4.23H5.31c-2.33,0-4.22-1.9-4.22-4.23V5.31C1.08,2.98,2.98,1.08,5.31,1.08"/>
    <path class="cls-1" d="M112.15,2.16H5.31c-1.73,0-3.14,1.41-3.14,3.14v68.66c0,1.73,1.41,3.14,3.14,3.14h2.78v-.07h4.79v.07h99.27c1.73,0,3.14-1.41,3.14-3.14V5.31c0-1.73-1.41-3.14-3.14-3.14h0Z"/>
    <g>
      <path class="cls-3" d="M20.45,10.51l-3.41,4.73,3.72,5.17h-2.78l-2.32-3.43-2.35,3.43h-2.65l3.73-5.17-3.45-4.73h2.71l2.11,3.18,2.13-3.18h2.56Z"/>
      <path class="cls-3" d="M28.63,20.41h-2.14c-.07-.19-.12-.42-.15-.7-.64.6-1.47.9-2.48.9-.85,0-1.52-.19-2.01-.58-.49-.38-.73-.92-.73-1.59,0-.31.04-.57.13-.81s.22-.43.42-.58.38-.29.55-.39c.17-.1.41-.18.72-.25.31-.06.56-.11.74-.15s.45-.07.79-.1c.74-.09,1.24-.19,1.5-.29.25-.1.38-.29.38-.57,0-.64-.46-.96-1.38-.96-.49,0-.84.08-1.07.24s-.38.45-.45.85h-1.98c.12-1.61,1.3-2.42,3.56-2.42s3.35.78,3.35,2.33v3.1c0,.91.09,1.56.27,1.95ZM26.32,16.92c-.25.14-.74.26-1.49.38-.62.09-1.03.21-1.22.35-.22.17-.33.41-.33.72,0,.3.1.53.3.7.2.17.49.26.86.26.57,0,1.02-.14,1.36-.42.34-.28.51-.67.51-1.17v-.81Z"/>
      <path class="cls-3" d="M32.02,13.24v.89c.56-.72,1.35-1.08,2.38-1.08s1.86.35,2.48,1.04c.62.7.94,1.62.94,2.78s-.3,2.02-.92,2.7c-.61.68-1.42,1.02-2.42,1.02s-1.82-.36-2.37-1.07v3.43h-2.1v-9.71h1.99ZM33.88,14.63c-.58,0-1.02.2-1.35.58-.32.39-.48.93-.48,1.63s.16,1.24.49,1.63c.33.39.78.58,1.35.58s1.01-.19,1.33-.58c.32-.39.48-.92.48-1.6s-.16-1.24-.49-1.64c-.33-.4-.77-.6-1.34-.6Z"/>
      <path class="cls-3" d="M46.96,20.41h-2.56l-2.22-3.09-.94.89v2.2h-2.07v-7.17h2.07v2.83l2.81-2.83h2.48l-2.98,2.78,3.39,4.39Z"/>
      <path class="cls-3" d="M49.83,10.51v1.67h-2.11v-1.67h2.11ZM49.83,13.24v7.17h-2.11v-7.17h2.11Z"/>
      <path class="cls-3" d="M51.47,13.24h4.42c.72,0,1.31.15,1.77.45s.68.75.68,1.35c0,.69-.35,1.18-1.04,1.47.93.25,1.4.83,1.4,1.75,0,.68-.25,1.2-.74,1.58-.49.38-1.11.56-1.87.56h-4.63v-7.17ZM53.55,16.11h1.4c.83,0,1.25-.27,1.25-.82,0-.32-.11-.53-.33-.64-.22-.11-.53-.17-.92-.17h-1.4v1.63ZM53.55,19.13h1.56c.44,0,.78-.06,1.03-.19s.37-.38.37-.75-.13-.63-.4-.76c-.27-.13-.63-.19-1.09-.19h-1.47v1.9Z"/>
    </g>
    <g>
      <path class="cls-3" d="M18.59,26.57l-3.11,2.92,3.4,4.49h-2.18l-2.41-3.33-1.01.94v2.39h-1.72v-7.41h1.72v3.08l3.12-3.08h2.2Z"/>
      <path class="cls-3" d="M20.98,26.57v2.76c.45-.57,1.06-.85,1.82-.85,1.34,0,2.02.66,2.02,1.99v3.52h-1.58v-3.17c0-.37-.07-.65-.21-.84-.14-.19-.41-.29-.8-.29-.48,0-.8.14-.97.43-.17.29-.26.66-.26,1.13v2.74h-1.56v-7.41h1.56Z"/>
      <path class="cls-3" d="M31.37,33.99h-1.61c-.05-.14-.09-.31-.11-.52-.48.45-1.1.68-1.86.68-.64,0-1.14-.14-1.5-.43s-.55-.69-.55-1.19c0-.23.03-.43.09-.6.06-.17.17-.32.31-.44.15-.12.28-.22.41-.29s.31-.14.54-.19c.23-.05.42-.08.56-.11.14-.02.34-.05.59-.08.56-.07.93-.14,1.12-.22.19-.08.28-.22.28-.43,0-.48-.35-.72-1.04-.72-.36,0-.63.06-.8.18-.17.12-.28.33-.33.64h-1.48c.09-1.21.98-1.81,2.66-1.81s2.51.58,2.51,1.75v2.32c0,.68.07,1.17.2,1.46ZM29.64,31.37c-.19.1-.56.2-1.11.28-.47.07-.77.16-.91.26-.16.12-.25.31-.25.54,0,.22.08.4.23.53.15.13.37.19.64.19.42,0,.76-.11,1.02-.32.26-.21.38-.5.38-.88v-.6Z"/>
      <path class="cls-3" d="M36.15,28.52v1.36c-.22-.04-.43-.06-.61-.06-.52,0-.9.15-1.15.46s-.37.72-.37,1.24v2.46h-1.58v-5.37h1.5v.99c.38-.74,1-1.11,1.86-1.11.07,0,.19.01.35.03Z"/>
      <path class="cls-3" d="M42.33,28.61l-2.16,1.99,2.42,3.38h-1.92l-1.58-2.38-.65.56v1.82h-1.55v-7.41h1.55v3.97l2.03-1.93h1.86Z"/>
      <path class="cls-3" d="M44.77,26.57v1.25h-1.58v-1.25h1.58ZM44.77,28.61v5.37h-1.58v-5.37h1.58Z"/>
      <path class="cls-3" d="M49.6,28.61h1.57l-1.95,5.37h-1.77l-1.97-5.37h1.67l1.23,3.66,1.23-3.66Z"/>
    </g>
    <g>
      <path class="cls-3" d="M21.25,51.31c-.12,1.24-.59,2.23-1.4,2.96-.81.73-1.93,1.1-3.35,1.1-1.54,0-2.77-.47-3.71-1.42-.94-.95-1.41-2.21-1.41-3.77,0-1.48.47-2.71,1.42-3.7.95-.98,2.21-1.47,3.79-1.47,1.26,0,2.32.33,3.17,1,.85.67,1.32,1.51,1.41,2.54h-2.28c-.12-.55-.38-.97-.8-1.27-.41-.3-.93-.45-1.55-.45s-1.19.17-1.63.51c-.44.34-.75.75-.93,1.24-.18.49-.27,1.03-.27,1.61,0,1.02.25,1.83.76,2.44s1.18.91,2.04.91c1.42,0,2.23-.74,2.42-2.22h2.31Z"/>
      <path class="cls-3" d="M29.57,47.96l-2.83,7.14c-.14.36-.24.61-.3.76s-.16.34-.3.6c-.13.26-.26.44-.37.54-.11.1-.27.22-.46.35s-.41.22-.65.26c-.24.05-.52.07-.84.07-.26,0-.73,0-1.41-.01v-1.63h1.03c.35,0,.61-.08.8-.25s.28-.4.28-.71c0-.07-.02-.17-.06-.28l-2.78-6.85h2.28l1.76,4.88,1.7-4.88h2.19Z"/>
      <path class="cls-3" d="M39.42,55.14h-1.99v-5.45h-.04l-1.5,5.45h-1.99l-1.5-5.45h-.04v5.45h-1.99v-7.17h3.06l1.44,5.21h.06l1.44-5.21h3.06v7.17Z"/>
      <path class="cls-3" d="M48.24,55.14h-2.02v-4.85l-2.74,4.85h-2.4v-7.17h2.02v4.85l2.74-4.85h2.4v7.17Z"/>
    </g>
    <g>
      <path class="cls-3" d="M17.4,63.5h-1.65c-.07-.74-.57-1.1-1.5-1.1-.4,0-.71.07-.94.22s-.34.36-.34.62c0,.09.01.17.04.24.03.07.09.13.17.19.08.06.16.11.25.15.08.04.2.08.36.12.16.04.3.08.43.12.13.04.31.08.55.14.24.06.45.11.62.16.78.21,1.36.47,1.74.78.38.31.57.76.57,1.34,0,.42-.09.79-.28,1.11-.19.32-.44.57-.75.75-.32.18-.66.32-1.04.41s-.77.13-1.2.13c-1.08,0-1.92-.23-2.52-.69-.61-.46-.91-1.11-.92-1.95h1.73c.03.93.63,1.39,1.79,1.39.45,0,.81-.09,1.08-.27s.4-.42.4-.72c0-.26-.12-.44-.36-.56s-.75-.28-1.52-.49c-.13-.03-.22-.05-.29-.07-.27-.07-.45-.12-.56-.15-.1-.03-.27-.08-.5-.16s-.39-.15-.5-.21c-.1-.06-.23-.15-.38-.26-.15-.11-.26-.23-.33-.35-.07-.12-.13-.27-.18-.45s-.08-.37-.08-.58c0-.67.28-1.21.84-1.61s1.3-.6,2.22-.6,1.62.2,2.18.59c.56.39.85.98.87,1.78Z"/>
      <path class="cls-3" d="M23.99,63.33v5.37h-1.5v-.76c-.45.61-1.07.92-1.87.92-.63,0-1.12-.16-1.48-.48-.35-.32-.53-.8-.53-1.43v-3.61h1.59v3.07c0,.2,0,.36.03.48.02.12.06.24.12.37s.16.22.3.28c.14.06.31.09.53.09.83,0,1.25-.51,1.25-1.52v-2.77h1.57Z"/>
      <path class="cls-3" d="M34.06,68.71h-1.6v-3.21c0-.35-.06-.63-.18-.82-.12-.19-.36-.29-.74-.29-.74,0-1.1.43-1.1,1.29v3.02h-1.58v-3.27c0-.33-.06-.59-.18-.78-.12-.18-.35-.28-.69-.28-.76,0-1.15.47-1.15,1.41v2.92h-1.58v-5.37h1.5v.74c.45-.59,1.06-.88,1.83-.88s1.34.29,1.63.88c.46-.59,1.09-.88,1.88-.88.63,0,1.12.17,1.46.51.34.34.51.81.51,1.39v3.61Z"/>
      <path class="cls-3" d="M40.53,63.33l-2.12,5.35c-.1.27-.18.46-.23.57-.05.11-.12.26-.22.45-.1.19-.19.33-.28.41-.09.08-.2.16-.35.26-.14.1-.31.16-.49.2-.18.03-.39.05-.63.05-.19,0-.55,0-1.06,0v-1.22h.77c.26,0,.46-.06.6-.19.14-.12.21-.3.21-.53,0-.06-.01-.12-.04-.21l-2.08-5.13h1.71l1.31,3.65,1.27-3.65h1.64Z"/>
    </g>
    <path class="cls-5" d="M74.25,9.62h29.27c1.17,0,2.12.96,2.12,2.13v11.24c0,1.17-.95,2.13-2.12,2.13h-29.27c-1.17,0-2.12-.96-2.12-2.13v-11.24c0-1.17.95-2.13,2.12-2.13"/>
    <path class="cls-8" d="M74.25,10.41h29.27c.73,0,1.32.6,1.32,1.34v11.24c0,.73-.6,1.33-1.32,1.33h-29.27c-.73,0-1.32-.6-1.32-1.33v-11.24c0-.73.59-1.34,1.32-1.34"/>
    <g>
      <path class="cls-3" d="M76.31,21.45v-8.42h2.54l1.53,5.74,1.51-5.74h2.55v8.42h-1.58v-6.63l-1.67,6.63h-1.64l-1.67-6.63v6.63h-1.58Z"/>
      <path class="cls-3" d="M85.93,19.2v-1.61h3.17v1.61h-3.17Z"/>
    </g>
    <g>
      <path class="cls-3" d="M93,12.99c.82,0,1.45.29,1.91.87.55.69.82,1.83.82,3.43s-.28,2.74-.83,3.43c-.46.57-1.09.86-1.91.86s-1.48-.32-1.98-.95c-.5-.63-.75-1.75-.75-3.37s.28-2.73.83-3.42c.46-.57,1.09-.86,1.91-.86ZM93,14.33c-.2,0-.37.06-.52.19-.15.12-.27.35-.36.67-.11.42-.17,1.12-.17,2.11s.05,1.67.15,2.04.22.62.38.74c.15.12.32.18.52.18s.37-.06.52-.19c.15-.12.27-.35.36-.67.11-.41.17-1.11.17-2.1s-.05-1.67-.15-2.04c-.1-.37-.22-.62-.38-.74-.15-.12-.32-.19-.52-.19Z"/>
      <path class="cls-3" d="M96.75,19.21l1.56-.19c.05.4.18.7.4.91.22.21.48.32.79.32.33,0,.61-.13.84-.38.23-.25.34-.59.34-1.02,0-.41-.11-.73-.33-.96-.22-.24-.48-.36-.8-.36-.21,0-.45.04-.74.12l.18-1.32c.44.01.77-.08,1-.28s.34-.47.34-.8c0-.28-.08-.51-.25-.68-.17-.17-.39-.25-.67-.25s-.51.1-.71.29-.31.47-.36.84l-1.49-.25c.1-.51.26-.92.47-1.22.21-.3.5-.54.87-.72.37-.17.79-.26,1.25-.26.79,0,1.43.25,1.91.76.39.41.59.88.59,1.4,0,.74-.4,1.33-1.21,1.77.48.1.87.33,1.16.7.29.36.43.79.43,1.3,0,.74-.27,1.37-.81,1.89s-1.21.78-2.02.78c-.76,0-1.39-.22-1.9-.66-.5-.44-.79-1.01-.87-1.72Z"/>
    </g>
    <path class="cls-5" d="M74.25,27.38h29.27c1.17,0,2.12.96,2.12,2.13v11.24c0,1.17-.95,2.13-2.12,2.13h-29.27c-1.17,0-2.12-.96-2.12-2.13v-11.24c0-1.17.95-2.13,2.12-2.13"/>
    <path class="cls-7" d="M74.25,28.17h29.27c.73,0,1.32.6,1.32,1.34v11.24c0,.73-.6,1.33-1.32,1.33h-29.27c-.73,0-1.32-.6-1.32-1.33v-11.24c0-.74.59-1.34,1.32-1.34"/>
    <g>
      <path class="cls-3" d="M77.99,39.21v-8.42h6.24v1.42h-4.54v1.87h4.23v1.42h-4.23v2.29h4.7v1.42h-6.4Z"/>
      <path class="cls-3" d="M91.91,39.21v-1.69h-3.45v-1.41l3.65-5.35h1.36v5.34h1.04v1.42h-1.04v1.69h-1.56ZM91.91,36.1v-2.88l-1.93,2.88h1.93Z"/>
      <path class="cls-3" d="M98.02,30.76c.82,0,1.45.29,1.91.87.55.69.82,1.83.82,3.43s-.28,2.74-.83,3.43c-.46.57-1.09.86-1.91.86s-1.48-.32-1.98-.95c-.5-.63-.75-1.75-.75-3.37s.28-2.73.83-3.42c.46-.57,1.09-.86,1.91-.86ZM98.02,32.1c-.2,0-.37.06-.52.19-.15.12-.27.35-.36.67-.11.42-.17,1.12-.17,2.11s.05,1.67.15,2.04.22.62.38.74c.15.12.32.18.52.18s.37-.06.52-.19c.15-.12.27-.35.36-.67.11-.41.17-1.11.17-2.1s-.05-1.67-.15-2.04c-.1-.37-.22-.62-.38-.74-.15-.12-.32-.19-.52-.19Z"/>
    </g>
    <polygon class="cls-3" points="97.31 64.92 97.27 52.89 84.85 52.89 81.38 56.6 90.41 56.55 79.78 67.13 83.02 70.37 93.44 59.94 93.44 67.3 97.31 64.92 97.31 64.92"/>
  </g>
  <g class="cls-9">
    <g class="cls-14">
      <path class="cls-6" d="M3.69,166.26h110.07c2.03,0,3.69,1.66,3.69,3.69v47.76c0,2.03-1.66,3.69-3.69,3.69H3.69C1.66,221.4,0,219.75,0,217.71v-47.76c0-2.03,1.66-3.69,3.69-3.69"/>
      <path class="cls-5" d="M3.69,167.01h110.07c1.62,0,2.94,1.32,2.94,2.94v47.76c0,1.62-1.32,2.94-2.94,2.94H3.69c-1.62,0-2.94-1.32-2.94-2.94v-47.76c0-1.62,1.32-2.94,2.94-2.94"/>
      <path class="cls-4" d="M113.76,167.77H3.69c-1.2,0-2.19.98-2.19,2.19v47.76c0,1.2.98,2.19,2.19,2.19h1.94v-.05h3.33v.05h104.81c1.2,0,2.19-.98,2.19-2.19v-47.76c0-1.2-.98-2.19-2.19-2.19"/>
    </g>
    <g class="cls-12">
      <path class="cls-5" d="M5.09,179.94h15.11c.61,0,1.09.5,1.09,1.1v5.8c0,.6-.49,1.1-1.09,1.1H5.09c-.61,0-1.09-.5-1.09-1.1v-5.8c0-.6.49-1.1,1.09-1.1"/>
      <path class="cls-7" d="M5.09,180.35h15.11c.37,0,.68.31.68.69v5.8c0,.38-.31.69-.68.69H5.09c-.37,0-.68-.31-.68-.69v-5.8c0-.38.31-.69.68-.69"/>
    </g>
    <g>
      <path class="cls-3" d="M7.02,186.05v-4.34h3.22v.73h-2.34v.96h2.18v.73h-2.18v1.18h2.43v.73h-3.3Z"/>
      <path class="cls-3" d="M14.21,186.05v-.87h-1.78v-.73l1.89-2.76h.7v2.76h.54v.73h-.54v.87h-.81ZM14.21,184.44v-1.49l-1,1.49h1Z"/>
      <path class="cls-3" d="M17.36,181.69c.42,0,.75.15.99.45.28.36.42.95.42,1.77s-.14,1.41-.43,1.77c-.23.3-.56.44-.98.44s-.76-.16-1.02-.49c-.26-.33-.39-.91-.39-1.74s.14-1.41.43-1.77c.24-.3.56-.45.98-.45ZM17.36,182.38c-.1,0-.19.03-.27.1-.08.06-.14.18-.18.35-.06.21-.09.58-.09,1.09s.03.86.08,1.05c.05.19.12.32.19.38.08.06.17.09.27.09s.19-.03.27-.1.14-.18.18-.35c.06-.21.09-.57.09-1.08s-.03-.86-.08-1.05c-.05-.19-.12-.32-.19-.38s-.17-.1-.27-.1Z"/>
    </g>
    <g class="cls-15">
      <path class="cls-5" d="M23.82,179.94h15.11c.61,0,1.09.5,1.09,1.1v5.8c0,.6-.49,1.1-1.09,1.1h-15.11c-.61,0-1.09-.5-1.09-1.1v-5.8c0-.6.49-1.1,1.09-1.1"/>
      <path class="cls-8" d="M23.82,180.35h15.11c.37,0,.68.31.68.69v5.8c0,.38-.31.69-.68.69h-15.11c-.37,0-.68-.31-.68-.69v-5.8c0-.38.31-.69.68-.69"/>
    </g>
    <path class="cls-3" d="M24.88,186.05v-4.34h1.31l.79,2.96.78-2.96h1.32v4.34h-.82v-3.42l-.86,3.42h-.84l-.86-3.42v3.42h-.82Z"/>
    <path class="cls-3" d="M29.85,184.89v-.83h1.64v.83h-1.64Z"/>
    <g>
      <path class="cls-3" d="M33.5,181.68c.42,0,.75.15.99.45.28.36.42.95.42,1.77s-.14,1.41-.43,1.77c-.23.3-.56.44-.98.44s-.76-.16-1.02-.49c-.26-.33-.39-.91-.39-1.74s.14-1.41.43-1.77c.24-.3.56-.45.98-.45ZM33.5,182.38c-.1,0-.19.03-.27.1-.08.06-.14.18-.18.35-.06.21-.09.58-.09,1.09s.03.86.08,1.05c.05.19.12.32.19.38.08.06.17.09.27.09s.19-.03.27-.1.14-.18.18-.35c.06-.21.09-.57.09-1.08s-.03-.86-.08-1.05c-.05-.19-.12-.32-.19-.38s-.17-.1-.27-.1Z"/>
      <path class="cls-3" d="M38.28,182.77l-.81.09c-.02-.17-.07-.29-.15-.37s-.19-.12-.32-.12c-.18,0-.32.08-.45.24-.12.16-.2.49-.23.99.21-.25.47-.37.77-.37.35,0,.65.13.89.4.25.26.37.61.37,1.03,0,.45-.13.8-.39,1.07s-.6.4-1,.4c-.44,0-.8-.17-1.08-.51s-.42-.9-.42-1.68.15-1.37.44-1.72c.29-.35.68-.53,1.15-.53.33,0,.6.09.82.28.22.18.35.45.41.8ZM36.4,184.58c0,.27.06.48.19.63.12.15.27.22.43.22s.28-.06.39-.18c.1-.12.15-.32.15-.59s-.06-.49-.17-.62c-.11-.13-.25-.2-.42-.2s-.3.06-.41.19c-.11.12-.17.31-.17.56Z"/>
    </g>
    <g>
      <path class="cls-3" d="M47.19,188.44h-1.39v-7.82h1.39v7.82Z"/>
      <path class="cls-3" d="M49.8,185.65c0,1.06.43,1.65,1.16,1.65.44,0,.75-.21,1-.66l.97.75c-.45.76-1.12,1.15-2.04,1.15-1.54,0-2.41-1.05-2.41-2.89s.88-2.89,2.41-2.89c.92,0,1.59.38,2.04,1.15l-.97.76c-.24-.45-.56-.66-1.01-.66-.74,0-1.15.58-1.15,1.64Z"/>
      <path class="cls-3" d="M53.44,182.86h4.47v1.21h-1.58v4.38h-1.31v-4.38h-1.58v-1.21Z"/>
      <path class="cls-3" d="M60.87,188.54c-1.55,0-2.42-1.04-2.42-2.89s.87-2.89,2.42-2.89,2.42,1.04,2.42,2.89-.87,2.89-2.42,2.89ZM60.87,187.29c.73,0,1.1-.55,1.1-1.64s-.37-1.64-1.1-1.64-1.1.55-1.1,1.64.37,1.64,1.1,1.64Z"/>
      <path class="cls-3" d="M67.17,182.75c1.36,0,2.13,1.04,2.13,2.89s-.76,2.89-2.13,2.89c-.6,0-1.07-.22-1.39-.64v2.55h-1.31v-7.6h1.24v.64c.33-.49.82-.74,1.46-.74ZM66.89,184.01c-.74,0-1.11.55-1.11,1.64s.37,1.64,1.11,1.64,1.1-.55,1.1-1.63-.37-1.65-1.1-1.65Z"/>
      <path class="cls-3" d="M73.96,182.86h1.24v5.58h-1.31v-3.32l-2.16,3.32h-1.24v-5.58h1.31v3.32l2.16-3.32Z"/>
      <path class="cls-3" d="M79.63,182.86h1.32v5.58h-1.32v-2.1c-.44.18-.94.27-1.37.27-1.15,0-1.81-.62-1.81-1.75v-2h1.31v1.66c0,.57.31.87.91.87.34,0,.69-.1.96-.28v-2.26Z"/>
      <path class="cls-3" d="M83.74,188.44h-1.31v-5.58h1.31v2.16h2.01v-2.16h1.32v5.58h-1.32v-2.23h-2.01v2.23Z"/>
      <path class="cls-3" d="M92.01,182.86h1.24v5.58h-1.31v-3.32l-2.16,3.32h-1.24v-5.58h1.31v3.32l2.16-3.32Z"/>
      <path class="cls-3" d="M98.19,182.86h1.24v5.58h-1.31v-3.32l-2.16,3.32h-1.24v-5.58h1.31v3.32l2.16-3.32ZM95.47,180.36h.93c.02.42.26.66.68.66s.64-.23.67-.66h.94c0,1.04-.57,1.63-1.6,1.63s-1.61-.59-1.61-1.63Z"/>
    </g>
    <g>
      <path class="cls-3" d="M49.99,200.58l-.23-1.56h-4.07v-5.58h1.31v4.38h1.9v-4.38h1.32v4.38h.78v2.77h-1.01Z"/>
      <path class="cls-3" d="M51.62,196.23c0-1.82.88-2.89,2.38-2.89s2.34,1.06,2.34,2.95v.38h-3.42c.02.83.52,1.25,1.32,1.25.48,0,.92-.17,1.26-.55l.76.87c-.55.56-1.15.88-2.06.88-1.63,0-2.58-1.02-2.58-2.89ZM52.92,195.67h2.2c-.06-.76-.46-1.17-1.08-1.17s-1.05.41-1.12,1.17Z"/>
      <path class="cls-3" d="M58.83,199.02h-1.31v-5.58h1.31v2.16h2.01v-2.16h1.32v5.58h-1.32v-2.23h-2.01v2.23Z"/>
      <path class="cls-3" d="M63.09,193.43h4.47v1.21h-1.58v4.38h-1.31v-4.38h-1.58v-1.21Z"/>
      <path class="cls-3" d="M71.21,193.33c1.36,0,2.13,1.04,2.13,2.89s-.76,2.89-2.13,2.89c-.6,0-1.07-.22-1.39-.64v2.55h-1.31v-7.6h1.24v.64c.33-.49.82-.74,1.46-.74ZM70.93,194.58c-.74,0-1.11.55-1.11,1.64s.37,1.64,1.11,1.64,1.1-.55,1.1-1.63-.37-1.65-1.1-1.65Z"/>
      <path class="cls-3" d="M76.43,197.82c1.17-.31,1.43-1.34,1.67-6.62h4.55v7.82h-1.39v-6.49h-1.95c-.27,5.09-.64,6.13-2.54,6.63l-.34-1.34Z"/>
      <path class="cls-3" d="M88.53,197.21c0,1.15-.74,1.81-2.06,1.81h-2.22v-5.58h1.31v1.96h.92c1.32,0,2.06.66,2.06,1.82ZM86.48,197.86c.49,0,.74-.22.74-.65s-.25-.66-.74-.66h-.92v1.31h.92Z"/>
      <path class="cls-3" d="M94,194.96c0,.53-.21.93-.58,1.2.49.26.75.69.75,1.28,0,1.01-.75,1.58-2.07,1.58h-2.41v-5.58h2.33c1.27,0,1.98.56,1.98,1.53ZM92.06,195.7c.39,0,.62-.21.62-.58s-.23-.57-.62-.57h-1.06v1.15h1.06ZM92.18,197.9c.43,0,.67-.22.67-.61s-.25-.59-.67-.59h-1.17v1.21h1.17Z"/>
      <path class="cls-3" d="M97.46,199.12c-1.55,0-2.42-1.04-2.42-2.89s.87-2.89,2.42-2.89,2.42,1.04,2.42,2.89-.87,2.89-2.42,2.89ZM97.46,197.87c.73,0,1.1-.55,1.1-1.64s-.37-1.64-1.1-1.64-1.1.55-1.1,1.64.37,1.64,1.1,1.64Z"/>
      <path class="cls-3" d="M105.37,194.96c0,.53-.21.93-.58,1.2.49.26.75.69.75,1.28,0,1.01-.75,1.58-2.07,1.58h-2.41v-5.58h2.33c1.27,0,1.98.56,1.98,1.53ZM103.43,195.7c.39,0,.62-.21.62-.58s-.23-.57-.62-.57h-1.06v1.15h1.06ZM103.54,197.9c.43,0,.67-.22.67-.61s-.25-.59-.67-.59h-1.17v1.21h1.17Z"/>
      <path class="cls-3" d="M106.59,194.1c.63-.53,1.3-.77,2.14-.77,1.39,0,2.11.66,2.11,1.96v2.23c0,.33.17.59.46.69l-.4.89c-.56,0-.97-.19-1.18-.57-.3.37-.85.58-1.52.58-1.13,0-1.79-.61-1.79-1.62,0-1.07.74-1.74,1.97-1.83l1.14-.08v-.24c0-.51-.33-.8-.94-.8-.48,0-.91.16-1.33.5l-.67-.95ZM108.49,196.64c-.53.03-.82.3-.82.73s.29.68.86.68c.66,0,1-.35,1-1.06v-.41l-1.04.07Z"/>
    </g>
    <g>
      <path class="cls-3" d="M49.24,210.21h-3.41v-5.9h.75v5.18h2.67v.72Z"/>
      <path class="cls-3" d="M51.32,210.21h-.75l-1.49-4.21h.75l1.12,3.28,1.11-3.28h.75l-1.5,4.21Z"/>
      <path class="cls-3" d="M53.81,204.23c.26,0,.45.2.45.48s-.19.49-.45.49-.46-.21-.46-.49.2-.48.46-.48ZM54.16,210.21h-.71v-4.21h.71v4.21Z"/>
      <path class="cls-3" d="M57.03,210.21h-.74l-1.49-4.21h.75l1.12,3.28,1.11-3.28h.75l-1.5,4.21Z"/>
      <path class="cls-3" d="M61.74,210.21h-.75v-5.9h.75v2.54h2.67v-2.54h.75v5.9h-.75v-2.64h-2.67v2.64Z"/>
      <path class="cls-3" d="M66.75,204.23c.26,0,.45.2.45.48s-.19.49-.45.49-.46-.21-.46-.49.2-.48.46-.48ZM67.11,210.21h-.71v-4.21h.71v4.21Z"/>
      <path class="cls-3" d="M69.49,210.28c-.68,0-1.22-.23-1.61-.65l.41-.46c.26.29.71.47,1.22.47.58,0,.92-.25.92-.63,0-.35-.28-.51-.94-.59-1.05-.13-1.5-.51-1.5-1.24,0-.8.53-1.25,1.49-1.25.6,0,1.1.18,1.44.51l-.42.45c-.24-.21-.63-.33-1.03-.33-.52,0-.83.21-.83.56,0,.33.27.51.94.59,1.05.13,1.5.49,1.5,1.23,0,.83-.58,1.33-1.58,1.33Z"/>
      <path class="cls-3" d="M71.98,206v-1.1l.71-.28v1.37h.89v.59h-.89v2.49c0,.33.19.52.52.52.09,0,.23-.02.36-.05l.06.62c-.18.04-.37.07-.53.07-.71,0-1.11-.42-1.11-1.15v-2.49h-.57v-.59h.57Z"/>
      <path class="cls-3" d="M75.85,210.28c-1.12,0-1.76-.79-1.76-2.17s.63-2.17,1.76-2.17,1.77.79,1.77,2.17-.64,2.17-1.77,2.17ZM75.85,209.6c.69,0,1.07-.52,1.07-1.49s-.38-1.5-1.07-1.5-1.05.52-1.05,1.5.37,1.49,1.05,1.49Z"/>
      <path class="cls-3" d="M78.52,206h.67v.7c.26-.5.67-.77,1.22-.77.23,0,.42.04.6.13l-.28.7c-.12-.08-.29-.13-.48-.13-.65,0-1.02.51-1.02,1.41v2.17h-.71v-4.21Z"/>
      <path class="cls-3" d="M82.06,204.23c.26,0,.45.2.45.48s-.19.49-.45.49-.46-.21-.46-.49.2-.48.46-.48ZM82.41,210.21h-.71v-4.21h.71v4.21Z"/>
      <path class="cls-3" d="M84,208.11c0,.95.4,1.5,1.1,1.5.41,0,.69-.19.92-.6l.53.4c-.35.59-.82.88-1.49.88-1.12,0-1.76-.8-1.76-2.17s.64-2.17,1.76-2.17c.67,0,1.14.28,1.49.87l-.53.4c-.23-.4-.52-.6-.93-.6-.69,0-1.09.55-1.09,1.5Z"/>
      <path class="cls-3" d="M89.63,207.26c0,1.48.52,2.29,1.47,2.29.65,0,1.11-.37,1.33-1.07l.73.13c-.29,1.07-1.02,1.66-2.05,1.66-1.42,0-2.23-1.1-2.23-3.02s.81-3.01,2.23-3.01c1.04,0,1.77.59,2.05,1.65l-.72.13c-.23-.7-.68-1.07-1.33-1.07-.96,0-1.48.82-1.48,2.3Z"/>
      <path class="cls-3" d="M93.77,208.09c0-1.35.64-2.16,1.72-2.16s1.69.78,1.69,2.15v.24h-2.71c.02.83.46,1.3,1.2,1.3.4,0,.76-.14,1.04-.44l.42.47c-.38.4-.85.62-1.47.62-1.18,0-1.87-.78-1.87-2.19ZM94.46,207.78h2.06c-.03-.77-.4-1.21-1.01-1.21s-1,.44-1.05,1.21Z"/>
      <path class="cls-3" d="M98.78,210.21h-.71v-4.21h.67v.52c.27-.4.67-.59,1.2-.59.91,0,1.43.57,1.43,1.56v2.72h-.71v-2.65c0-.61-.34-.95-.93-.95s-.95.36-.95.99v2.61Z"/>
      <path class="cls-3" d="M102.53,206v-1.1l.71-.28v1.37h.89v.59h-.89v2.49c0,.33.19.52.52.52.09,0,.23-.02.36-.05l.06.62c-.18.04-.37.07-.53.07-.71,0-1.11-.42-1.11-1.15v-2.49h-.57v-.59h.57Z"/>
      <path class="cls-3" d="M104.64,208.09c0-1.35.64-2.16,1.72-2.16s1.69.78,1.69,2.15v.24h-2.71c.02.83.46,1.3,1.2,1.3.4,0,.76-.14,1.04-.44l.42.47c-.38.4-.85.62-1.47.62-1.18,0-1.87-.78-1.87-2.19ZM105.34,207.78h2.06c-.03-.77-.4-1.21-1.01-1.21s-1,.44-1.05,1.21Z"/>
      <path class="cls-3" d="M108.95,206h.67v.7c.26-.5.67-.77,1.22-.77.23,0,.42.04.6.13l-.28.7c-.12-.08-.29-.13-.48-.13-.65,0-1.02.51-1.02,1.41v2.17h-.71v-4.21Z"/>
    </g>
    <g class="cls-10">
      <polygon class="cls-3" points="18.18 200.99 12.95 195.43 7.63 201.24 7.75 204.58 11.6 200.33 11.62 210.21 14.41 210.2 14.36 200.4 18.18 204.58 18.18 200.99"/>
      <rect class="cls-3" x="23.43" y="203.94" width="5.96" height="6.28"/>
      <rect class="cls-3" x="29.76" y="205.24" width="1.55" height="4.97"/>
      <rect class="cls-3" x="31.64" y="201.08" width="3.13" height="9.13"/>
      <rect class="cls-3" x="35.07" y="205.51" width="3.13" height="4.7"/>
      <rect class="cls-3" x="32.06" y="198.37" width="2.28" height="2.71"/>
      <rect class="cls-3" x="32.98" y="194.95" width=".45" height="3.48"/>
      <rect class="cls-3" x="25.42" y="203.45" width="1.97" height=".68"/>
      <rect class="cls-3" x="32.36" y="197.86" width="1.68" height=".68"/>
      <rect class="cls-3" x="26.03" y="203.11" width=".76" height=".68"/>
      <rect class="cls-3" x="23.43" y="203.45" width=".78" height=".68"/>
      <rect class="cls-3" x="28.61" y="203.45" width=".78" height=".68"/>
      <rect class="cls-4" x="25.55" y="208.08" width="1.71" height="2.13"/>
      <rect class="cls-4" x="32.54" y="208.08" width="1.32" height="2.13"/>
      <rect class="cls-4" x="23.95" y="208.26" width="1.07" height="1.07"/>
      <rect class="cls-4" x="27.8" y="208.26" width="1.07" height="1.07"/>
      <rect class="cls-4" x="23.95" y="206.59" width="1.07" height="1.07"/>
      <rect class="cls-4" x="27.8" y="206.59" width="1.07" height="1.07"/>
      <rect class="cls-4" x="23.95" y="204.93" width="1.07" height="1.07"/>
      <rect class="cls-4" x="27.8" y="204.93" width="1.07" height="1.07"/>
      <rect class="cls-4" x="26.02" y="203.94" width=".78" height=".78"/>
      <rect class="cls-4" x="26.02" y="205.26" width=".78" height=".78"/>
      <rect class="cls-4" x="30.14" y="206.85" width=".78" height=".78"/>
      <rect class="cls-4" x="30.14" y="208.45" width=".78" height=".78"/>
      <rect class="cls-4" x="35.72" y="206.85" width=".78" height=".78"/>
      <rect class="cls-4" x="35.72" y="208.45" width=".78" height=".78"/>
      <rect class="cls-4" x="36.97" y="206.85" width=".78" height=".78"/>
      <rect class="cls-4" x="32.26" y="202.37" width=".78" height=".78"/>
      <rect class="cls-4" x="33.51" y="202.37" width=".78" height=".78"/>
      <rect class="cls-4" x="32.93" y="199.27" width=".55" height="1.37"/>
      <rect class="cls-4" x="36.97" y="208.45" width=".78" height=".78"/>
      <rect class="cls-4" x="26.02" y="206.68" width=".78" height=".78"/>
      <rect class="cls-4" x="37.33" y="203.81" width="1.65" height="2.94" transform="translate(-145.33 105.63) rotate(-50.96)"/>
    </g>
  </g>
</svg>