<?xml version="1.0" encoding="utf-8"?>
<!-- Generator: Adobe Illustrator 22.0.1, SVG Export Plug-In . SVG Version: 6.00 Build 0)  -->
<svg version="1.1" id="Слой_1" xmlns="http://www.w3.org/2000/svg" xmlns:xlink="http://www.w3.org/1999/xlink" x="0px" y="0px"
	 viewBox="0 0 81.6 73.3" style="enable-background:new 0 0 81.6 73.3;" xml:space="preserve">
<style type="text/css">
	.st0{fill-rule:evenodd;clip-rule:evenodd;fill:#FFFFFF;}
	.st1{fill-rule:evenodd;clip-rule:evenodd;fill:#ED1C24;}
	.st2{fill-rule:evenodd;clip-rule:evenodd;fill:#FFDD00;}
</style>
<g>
	<path d="M71.9,73.3H9.6h0v0c-1.4,0-2.7-0.3-3.9-0.9c-0.3-0.1-0.6-0.3-0.9-0.5c-1.5-0.9-2.7-2.1-3.6-3.6l0,0l0,0l0,0
		c-0.2-0.4-0.4-0.8-0.6-1.3c-0.2-0.4-0.3-0.9-0.4-1.4c-0.5-2.4-0.2-4.9,1-7l0,0L32.4,4.8l0,0l0,0c0.2-0.4,0.5-0.8,0.8-1.2
		c0.3-0.4,0.6-0.7,1-1h0C36,1,38.3,0,40.8,0h0v0c1.7,0,3.4,0.5,4.9,1.3c0.2,0.1,0.5,0.3,0.7,0.4c1.2,0.8,2.2,1.9,2.9,3.1l0,0
		l31.1,53.9l0,0l0,0v0c0.2,0.4,0.4,0.8,0.6,1.3c0.2,0.4,0.3,0.9,0.4,1.3c0.5,2.3,0.2,4.8-1,6.9l0,0l0,0l0,0v0l0,0l0,0
		c-0.2,0.4-0.5,0.8-0.8,1.2c-0.3,0.4-0.6,0.7-1,1C76.8,72.3,74.3,73.3,71.9,73.3L71.9,73.3L71.9,73.3z"/>
	<path class="st0" d="M9.6,72.2h62.3l0,0c2.1,0,4.3-0.9,5.9-2.4c0.3-0.3,0.6-0.6,0.9-0.9c0.3-0.3,0.5-0.7,0.7-1l0,0l0,0l0,0l0,0l0,0
		l0,0c1-1.8,1.3-4.1,0.9-6.2c-0.1-0.4-0.2-0.8-0.3-1.2s-0.3-0.8-0.5-1.1l0,0l0,0h0L48.3,5.4l0,0c-0.6-1.1-1.5-2-2.6-2.8
		c-0.2-0.1-0.4-0.3-0.6-0.4c-1.3-0.8-2.8-1.2-4.3-1.2v0h0c-2.2,0-4.3,0.9-5.9,2.4l0,0C34.6,3.7,34.3,4,34,4.3
		c-0.3,0.3-0.5,0.7-0.7,1l0,0L2.2,59.2l0,0c-1.1,1.8-1.4,4.1-0.9,6.2c0.1,0.4,0.2,0.8,0.4,1.2c0.1,0.4,0.3,0.8,0.5,1.1l0,0l0,0l0,0
		C3,69.2,4.1,70.2,5.4,71c0.3,0.2,0.5,0.3,0.8,0.4C7.2,71.9,8.4,72.2,9.6,72.2L9.6,72.2L9.6,72.2L9.6,72.2z"/>
	<path class="st1" d="M46.2,6.6L46.2,6.6c-1.1-1.9-3.2-3.2-5.5-3.2c-2.2,0-4.3,1.2-5.4,3.2L4.2,60.4c-1.1,1.8-1,4.4,0,6.2
		c1.1,1.9,3.2,3.2,5.4,3.2h62.3c2.2,0,4.4-1.3,5.4-3.2c1-1.8,1.1-4.4,0-6.2L46.2,6.6L46.2,6.6z"/>
	<polygon class="st2" points="11.5,62.6 40.8,11.8 70.2,62.6 11.5,62.6 	"/>
	<polygon class="st0" points="17.6,59.1 64,59.1 40.8,18.8 17.6,59.1 	"/>
</g>
</svg>
