<?xml version="1.0" encoding="UTF-8"?>
<svg id="Layer_1" data-name="Layer 1" xmlns="http://www.w3.org/2000/svg" xmlns:xlink="http://www.w3.org/1999/xlink" viewBox="0 0 153.66 221.13">
  <defs>
    <style>
      .cls-1 {
        fill: #00aeef;
      }

      .cls-1, .cls-2, .cls-3, .cls-4, .cls-5, .cls-6, .cls-7, .cls-8, .cls-9 {
        stroke-width: 0px;
      }

      .cls-1, .cls-7, .cls-9 {
        fill-rule: evenodd;
      }

      .cls-10 {
        clip-path: url(#clippath-2);
      }

      .cls-11 {
        stroke: #231f20;
        stroke-width: 1.31px;
      }

      .cls-11, .cls-3, .cls-12, .cls-13 {
        fill: none;
      }

      .cls-11, .cls-12, .cls-13 {
        stroke-miterlimit: 10;
      }

      .cls-2 {
        fill: #fff6d2;
      }

      .cls-14 {
        clip-path: url(#clippath-1);
      }

      .cls-15 {
        clip-path: url(#clippath-4);
      }

      .cls-12 {
        stroke-width: .41px;
      }

      .cls-12, .cls-13 {
        stroke: #fff;
      }

      .cls-13 {
        stroke-width: .52px;
      }

      .cls-4, .cls-7 {
        fill: #fff;
      }

      .cls-5, .cls-9 {
        fill: #0db14b;
      }

      .cls-6 {
        fill: #9c5849;
      }

      .cls-8 {
        fill: #231f20;
      }

      .cls-16 {
        clip-path: url(#clippath);
      }

      .cls-17 {
        clip-path: url(#clippath-3);
      }

      .cls-18 {
        clip-path: url(#clippath-5);
      }
    </style>
    <clipPath id="clippath">
      <rect class="cls-3" x=".42" width="151.35" height="51.18"/>
    </clipPath>
    <clipPath id="clippath-1">
      <rect class="cls-3" x=".42" y="0" width="151.35" height="51.18"/>
    </clipPath>
    <clipPath id="clippath-2">
      <rect class="cls-3" x=".42" y="0" width="151.35" height="51.18"/>
    </clipPath>
    <clipPath id="clippath-3">
      <path class="cls-3" d="M5.8,53.45c-2.97,0-5.37,2.41-5.37,5.38v27.64c0,2.97,2.41,5.37,5.37,5.37h142.14c2.97,0,5.38-2.41,5.38-5.37v-27.64c0-2.97-2.41-5.38-5.38-5.38H5.8Z"/>
    </clipPath>
    <clipPath id="clippath-4">
      <polygon class="cls-3" points="0 221.13 153.27 221.13 153.27 178.86 0 178.86 0 221.13 0 221.13"/>
    </clipPath>
    <clipPath id="clippath-5">
      <path class="cls-3" d="M5.92,178.86C2.65,178.86,0,181.51,0,184.78v30.43c0,3.27,2.65,5.92,5.92,5.92h141.43c3.27,0,5.92-2.65,5.92-5.92v-30.43c0-3.27-2.65-5.92-5.92-5.92H5.92Z"/>
    </clipPath>
  </defs>
  <g class="cls-16">
    <g class="cls-14">
      <path class="cls-4" d="M151.12,44.61c0,3.27-2.37,5.91-5.29,5.91H6.37c-2.92,0-5.29-2.64-5.29-5.91V6.84C1.08,3.58,3.45.93,6.37.93h139.46c2.92,0,5.29,2.65,5.29,5.91v37.77Z"/>
      <path class="cls-11" d="M151.12,44.61c0,3.27-2.37,5.91-5.29,5.91H6.37c-2.92,0-5.29-2.64-5.29-5.91V6.84C1.08,3.58,3.45.93,6.37.93h139.46c2.92,0,5.29,2.65,5.29,5.91v37.77Z"/>
      <path class="cls-6" d="M148.99,43.22c0,3.02-2.31,5.47-5.14,5.47H8.3c-2.84,0-5.14-2.45-5.14-5.47V8.26c0-3.02,2.3-5.47,5.14-5.47h135.55c2.84,0,5.14,2.45,5.14,5.47v34.96Z"/>
      <path class="cls-4" d="M13.43,25.45h.02v8.33h-3.86v-8.33h.02c.11-.93.92-1.66,1.91-1.66s1.79.73,1.91,1.66M23.27,25.45c-.11-.93-.92-1.66-1.91-1.66s-1.79.73-1.91,1.66h-.02v8.33h3.86v-8.33h-.02ZM16.46,21.89c-1.38,0-2.5.86-2.66,1.98h-.03v9.92h5.37v-9.92h-.03c-.16-1.11-1.28-1.98-2.65-1.98"/>
      <path class="cls-4" d="M16.44,18.66c-2.45,0-4.43,1.9-4.43,4.25,0,.21.03.41.06.61.68.2,1.19.72,1.33,1.37.06,0,.11.02.16.04,0-.71.01-1.44.03-1.44.16-1.03,1.47-1.83,2.85-1.83s2.67.8,2.83,1.83v1.5s.06,0,.09,0c.03-.06.07-.11.11-.15.14-.63.65-1.13,1.33-1.31.03-.2.06-.4.06-.6,0-2.35-1.98-4.25-4.43-4.25"/>
      <path class="cls-4" d="M17.15,18.54c0,.39-.32.71-.71.71s-.71-.32-.71-.71.32-.71.71-.71.71.32.71.71"/>
      <line class="cls-13" x1="16.44" y1="14.71" x2="16.44" y2="18.26"/>
      <line class="cls-12" x1="17.49" y1="16.06" x2="15.38" y2="16.06"/>
      <rect class="cls-6" x="11.3" y="26.17" width=".38" height="4.35"/>
      <rect class="cls-6" x="21.21" y="26.17" width=".38" height="4.35"/>
      <rect class="cls-6" x="16.18" y="24.61" width=".52" height="5.91"/>
    </g>
    <g>
      <path class="cls-4" d="M30.45,8.86h4.7v1.24h-3.3v1.49h1.43c1.52,0,2.52.9,2.52,2.28s-.99,2.28-2.52,2.28h-2.82v-7.29ZM31.85,12.83v2.08h1.23c.86,0,1.3-.35,1.3-1.04s-.44-1.04-1.29-1.04h-1.24Z"/>
      <path class="cls-4" d="M38.97,16.25c-1.55,0-2.43-.97-2.43-2.7s.88-2.7,2.43-2.7,2.43.97,2.43,2.7-.88,2.7-2.43,2.7ZM38.97,15.08c.73,0,1.1-.51,1.1-1.53s-.38-1.53-1.1-1.53-1.1.51-1.1,1.53.38,1.53,1.1,1.53Z"/>
      <path class="cls-4" d="M45.28,10.85c1.37,0,2.14.97,2.14,2.7s-.76,2.7-2.14,2.7c-.6,0-1.07-.21-1.4-.59v2.38h-1.31v-7.09h1.24v.59c.33-.46.82-.69,1.47-.69ZM45,12.01c-.74,0-1.12.51-1.12,1.53s.38,1.53,1.12,1.53,1.1-.51,1.1-1.52-.38-1.54-1.1-1.54Z"/>
      <path class="cls-4" d="M52.08,10.94h1.24v5.21h-1.31v-3.1l-2.17,3.1h-1.24v-5.21h1.31v3.1l2.17-3.1Z"/>
      <path class="cls-4" d="M55.82,13.55c0,.99.43,1.54,1.17,1.54.44,0,.75-.2,1-.61l.97.7c-.45.71-1.13,1.07-2.04,1.07-1.54,0-2.42-.98-2.42-2.7s.89-2.7,2.42-2.7c.93,0,1.59.35,2.04,1.07l-.97.71c-.24-.42-.56-.62-1.01-.62-.74,0-1.16.54-1.16,1.53Z"/>
      <path class="cls-4" d="M62.08,16.25c-1.55,0-2.43-.97-2.43-2.7s.88-2.7,2.43-2.7,2.43.97,2.43,2.7-.88,2.7-2.43,2.7ZM62.08,15.08c.73,0,1.1-.51,1.1-1.53s-.38-1.53-1.1-1.53-1.1.51-1.1,1.53.38,1.53,1.1,1.53Z"/>
      <path class="cls-4" d="M65.68,10.94h3.55v1.13h-2.24v4.08h-1.31v-5.21Z"/>
      <path class="cls-4" d="M69.3,15.15c.89-.24,1.07-.84,1.22-4.21h3.78v5.21h-1.31v-4.1h-1.3c-.12,2.98-.57,3.89-2.09,4.23l-.29-1.14Z"/>
      <path class="cls-4" d="M76.43,8.59c.45,0,.78.33.78.78s-.33.77-.78.77-.77-.33-.77-.77.33-.78.77-.78ZM77.09,16.15h-1.31v-5.21h1.31v5.21Z"/>
      <path class="cls-4" d="M82.77,10.01l-1.83.18c-1.02.09-1.48.59-1.55,1.71.24-.53.84-.84,1.62-.84,1.4,0,2.2.92,2.2,2.55s-.88,2.64-2.41,2.64-2.47-.97-2.47-3.57c0-2.4.8-3.56,2.61-3.73l1.84-.18v1.25ZM80.79,15.08c.72,0,1.09-.49,1.09-1.45s-.38-1.45-1.09-1.45-1.09.48-1.09,1.44.38,1.46,1.09,1.46Z"/>
      <path class="cls-4" d="M85.38,13.55c0,.99.43,1.54,1.17,1.54.44,0,.75-.2,1-.61l.97.7c-.45.71-1.13,1.07-2.04,1.07-1.54,0-2.42-.98-2.42-2.7s.89-2.7,2.42-2.7c.93,0,1.59.35,2.04,1.07l-.97.71c-.24-.42-.56-.62-1.01-.62-.74,0-1.16.54-1.16,1.53Z"/>
      <path class="cls-4" d="M93.86,14.46c0,1.07-.74,1.69-2.06,1.69h-2.23v-5.21h1.31v1.82h.92c1.32,0,2.06.61,2.06,1.7ZM91.8,15.07c.49,0,.74-.21.74-.6s-.25-.61-.74-.61h-.92v1.22h.92Z"/>
      <path class="cls-4" d="M96.33,14.07v2.08h-1.31v-5.21h1.31v1.93h.49l1.3-1.93h1.54l-1.77,2.52,1.93,2.69h-1.55l-1.45-2.08h-.49Z"/>
      <path class="cls-4" d="M100.46,11.57c.64-.49,1.3-.72,2.15-.72,1.4,0,2.12.62,2.12,1.82v2.08c0,.31.17.55.46.65l-.4.83c-.56,0-.97-.18-1.19-.53-.3.34-.86.54-1.52.54-1.14,0-1.79-.57-1.79-1.51,0-1,.74-1.63,1.98-1.71l1.15-.07v-.22c0-.48-.33-.75-.94-.75-.48,0-.92.15-1.33.47l-.68-.89ZM102.37,13.93c-.53.03-.82.28-.82.68s.29.64.87.64c.66,0,1-.32,1-.99v-.39l-1.04.06Z"/>
    </g>
    <g>
      <path class="cls-4" d="M34.65,27.49l-.23-1.46h-4.08v-5.21h1.31v4.08h1.91v-4.08h1.32v4.08h.78v2.58h-1.01Z"/>
      <path class="cls-4" d="M36.29,23.42c0-1.7.89-2.7,2.39-2.7s2.34.99,2.34,2.75v.35h-3.43c.02.77.52,1.17,1.32,1.17.48,0,.92-.16,1.26-.51l.76.81c-.55.52-1.16.82-2.06.82-1.64,0-2.58-.95-2.58-2.7ZM37.59,22.9h2.21c-.06-.71-.46-1.09-1.08-1.09-.66,0-1.05.39-1.13,1.09Z"/>
      <path class="cls-4" d="M44.9,20.72c1.37,0,2.14.97,2.14,2.7s-.76,2.7-2.14,2.7c-.6,0-1.07-.21-1.4-.59v2.38h-1.31v-7.09h1.24v.59c.33-.46.82-.69,1.47-.69ZM44.62,21.89c-.74,0-1.12.51-1.12,1.53s.38,1.53,1.12,1.53,1.1-.51,1.1-1.52-.38-1.54-1.1-1.54Z"/>
      <path class="cls-4" d="M49.54,23.94v2.08h-1.31v-5.21h1.31v1.93h.49l1.3-1.93h1.54l-1.77,2.52,1.93,2.69h-1.55l-1.45-2.08h-.49Z"/>
      <path class="cls-4" d="M58.23,22.24c0,.49-.21.87-.58,1.12.49.24.75.65.75,1.2,0,.94-.75,1.47-2.07,1.47h-2.42v-5.21h2.33c1.27,0,1.99.52,1.99,1.43ZM56.28,22.93c.4,0,.62-.2.62-.54s-.23-.53-.62-.53h-1.06v1.07h1.06ZM56.39,24.99c.43,0,.68-.21.68-.57s-.25-.55-.68-.55h-1.18v1.13h1.18Z"/>
      <path class="cls-4" d="M59.44,21.44c.64-.49,1.3-.72,2.15-.72,1.4,0,2.12.62,2.12,1.82v2.08c0,.31.17.55.46.65l-.4.83c-.56,0-.97-.18-1.19-.53-.3.34-.86.54-1.52.54-1.14,0-1.79-.57-1.79-1.51,0-1,.74-1.63,1.98-1.71l1.15-.07v-.22c0-.48-.33-.75-.94-.75-.48,0-.92.15-1.33.47l-.68-.89ZM61.35,23.81c-.53.03-.82.28-.82.68s.29.64.87.64c.66,0,1-.32,1-.99v-.39l-1.04.06Z"/>
    </g>
    <g>
      <path class="cls-4" d="M30.19,36v-5.05h2.08c.97,0,1.6.52,1.6,1.32,0,.5-.25.91-.66,1.08.53.22.82.63.82,1.18,0,.89-.68,1.46-1.72,1.46h-2.11ZM32.19,31.81h-1.03v1.21h1.03c.46,0,.71-.22.71-.61s-.26-.61-.71-.61ZM32.3,33.83h-1.14v1.31h1.14c.48,0,.75-.24.75-.66s-.27-.66-.75-.66Z"/>
      <path class="cls-4" d="M36.37,36.07c-1.08,0-1.68-.67-1.68-1.87s.61-1.87,1.68-1.87,1.68.67,1.68,1.87-.61,1.87-1.68,1.87ZM36.37,35.26c.51,0,.77-.35.77-1.06s-.26-1.06-.77-1.06-.76.35-.76,1.06.25,1.06.76,1.06Z"/>
      <path class="cls-4" d="M38.87,32.39h.86v.5c.26-.38.61-.57,1.08-.57.19,0,.36.04.51.09l-.36.83c-.09-.06-.22-.09-.37-.09-.51,0-.8.38-.8,1.05v1.79h-.91v-3.61Z"/>
      <path class="cls-4" d="M42.43,37.37c-.2,0-.43-.03-.6-.12l.09-.77c.12.05.23.07.35.07.3,0,.47-.15.6-.57l-1.37-3.59h.97l.83,2.36.82-2.36h.97l-1.49,3.92c-.3.79-.6,1.05-1.18,1.05Z"/>
      <path class="cls-4" d="M46.87,36.07c-.68,0-1.2-.21-1.54-.58l.51-.56c.22.25.61.39,1.06.39s.68-.14.68-.37c0-.21-.22-.3-.72-.36-1-.12-1.42-.45-1.42-1.13,0-.74.5-1.13,1.44-1.13.6,0,1.08.16,1.41.48l-.55.53c-.2-.17-.53-.26-.88-.26s-.59.12-.59.32.19.3.7.35c1.02.12,1.44.43,1.44,1.11,0,.77-.55,1.21-1.54,1.21Z"/>
      <path class="cls-4" d="M50.57,36.07c-1.08,0-1.68-.67-1.68-1.87s.61-1.87,1.68-1.87,1.68.67,1.68,1.87-.61,1.87-1.68,1.87ZM50.57,35.26c.51,0,.77-.35.77-1.06s-.26-1.06-.77-1.06-.76.35-.76,1.06.25,1.06.76,1.06Z"/>
      <path class="cls-4" d="M55.36,32.39h.86v3.33c0,1.05-.65,1.64-1.8,1.64-.57,0-1.06-.14-1.45-.4l.43-.69c.3.19.66.3,1.02.3.59,0,.89-.28.89-.84v-.26c-.22.27-.55.4-.96.4-.95,0-1.49-.63-1.49-1.77s.54-1.78,1.48-1.78c.46,0,.79.16,1.03.48v-.41ZM54.54,35.07c.51,0,.77-.33.77-.97s-.26-.97-.77-.97-.76.33-.76.97.25.97.76.97Z"/>
      <path class="cls-4" d="M58.72,35.25l.05.74c-.2.04-.36.05-.49.05-.66,0-1.04-.33-1.04-.93v-4.16h.91v4c0,.23.11.34.34.34.07,0,.14-.01.23-.04Z"/>
      <path class="cls-4" d="M59.86,30.76c.31,0,.54.23.54.54s-.23.53-.54.53-.53-.23-.53-.53.23-.54.53-.54ZM60.32,36h-.91v-3.61h.91v3.61Z"/>
      <path class="cls-4" d="M62.2,36h-.86v-5.05h.91v1.79c.22-.27.55-.41.96-.41.95,0,1.48.67,1.48,1.87s-.53,1.87-1.47,1.87c-.45,0-.79-.17-1.02-.48v.41ZM63.02,33.14c-.5,0-.76.35-.76,1.06s.26,1.06.76,1.06.77-.35.77-1.07-.26-1.05-.77-1.05Z"/>
      <path class="cls-4" d="M66.71,36.07c-.68,0-1.2-.21-1.54-.58l.51-.56c.22.25.61.39,1.06.39s.68-.14.68-.37c0-.21-.22-.3-.72-.36-1-.12-1.42-.45-1.42-1.13,0-.74.5-1.13,1.44-1.13.6,0,1.08.16,1.41.48l-.55.53c-.2-.17-.53-.26-.88-.26s-.59.12-.59.32.19.3.7.35c1.02.12,1.44.43,1.44,1.11,0,.77-.55,1.21-1.54,1.21Z"/>
      <path class="cls-4" d="M69.84,36h-.91v-5.05h.91v2.88l1.26-1.44h1.12l-1.32,1.48,1.42,2.13h-1.06l-1-1.49-.42.48v1.01Z"/>
      <path class="cls-4" d="M72.74,32.83c.44-.34.9-.5,1.49-.5.97,0,1.46.43,1.46,1.26v1.44c0,.22.12.38.32.45l-.27.58c-.39,0-.67-.12-.82-.37-.21.24-.59.38-1.05.38-.79,0-1.24-.4-1.24-1.05,0-.69.51-1.13,1.37-1.18l.79-.05v-.15c0-.33-.23-.52-.65-.52-.33,0-.63.1-.92.32l-.47-.61ZM74.06,34.46c-.37.02-.57.19-.57.47s.2.44.6.44c.46,0,.69-.22.69-.69v-.27l-.72.04Z"/>
    </g>
    <g>
      <path class="cls-4" d="M30.82,41.54c0,.69.29,1.07.8,1.07.31,0,.53-.14.7-.43l.67.48c-.31.49-.78.74-1.42.74-1.07,0-1.67-.68-1.67-1.87s.61-1.87,1.67-1.87c.63,0,1.1.25,1.42.74l-.67.49c-.17-.29-.39-.43-.7-.43-.51,0-.8.38-.8,1.06Z"/>
      <path class="cls-4" d="M34.6,43.35h-.91v-5.05h.91v1.82c.26-.29.61-.44,1.04-.44.79,0,1.23.5,1.23,1.37v2.3h-.92v-2.22c0-.42-.24-.65-.66-.65-.44,0-.7.25-.7.7v2.17Z"/>
      <path class="cls-4" d="M40.09,39.74h.92v3.61h-.84v-.38c-.27.29-.62.44-1.07.44-.81,0-1.27-.5-1.27-1.37v-2.3h.91v2.22c0,.42.25.65.66.65s.69-.25.69-.71v-2.16Z"/>
      <path class="cls-4" d="M42.02,39.74h.86v.5c.26-.38.61-.57,1.08-.57.19,0,.36.04.51.09l-.36.83c-.09-.06-.22-.09-.37-.09-.51,0-.8.38-.8,1.05v1.79h-.91v-3.61Z"/>
      <path class="cls-4" d="M45.71,41.54c0,.69.29,1.07.8,1.07.31,0,.53-.14.7-.43l.67.48c-.31.49-.78.74-1.42.74-1.07,0-1.67-.68-1.67-1.87s.61-1.87,1.67-1.87c.63,0,1.1.25,1.42.74l-.67.49c-.17-.29-.39-.43-.7-.43-.51,0-.8.38-.8,1.06Z"/>
      <path class="cls-4" d="M49.49,43.35h-.91v-5.05h.91v1.82c.26-.29.61-.44,1.04-.44.79,0,1.23.5,1.23,1.37v2.3h-.92v-2.22c0-.42-.24-.65-.66-.65-.44,0-.7.25-.7.7v2.17Z"/>
    </g>
    <path class="cls-4" d="M119.84,30.73h-1.77l3.13-6.93h-4.41v-1.31h6.2v1.27l-3.16,6.96Z"/>
    <g class="cls-10">
      <polygon class="cls-4" points="138.6 32.78 145.03 26.96 138.32 21.03 134.46 21.16 139.37 25.44 127.95 25.47 127.96 28.58 139.27 28.53 134.6 32.65 138.6 32.78"/>
    </g>
  </g>
  <g>
    <path class="cls-2" d="M5.8,53.45c-2.97,0-5.38,2.41-5.38,5.37v27.64c0,2.97,2.41,5.38,5.38,5.38h142.14c2.97,0,5.37-2.41,5.37-5.38v-27.64c0-2.97-2.41-5.37-5.37-5.37H5.8Z"/>
    <g class="cls-17">
      <polygon class="cls-4" points=".42 53.45 153.31 53.45 153.31 91.84 .42 91.84 .42 53.45 .42 53.45"/>
      <path class="cls-4" d="M152.8,86.87c0,2.47-1.97,4.47-4.39,4.47H5.3c-2.42,0-4.39-2-4.39-4.47v-28.42c0-2.47,1.96-4.47,4.39-4.47h143.11c2.42,0,4.39,2,4.39,4.47v28.42h0Z"/>
      <path class="cls-8" d="M152.8,86.87h-.49c0,2.2-1.75,3.97-3.9,3.98H5.3c-2.14,0-3.89-1.77-3.89-3.98v-28.42c0-2.21,1.75-3.98,3.89-3.98h143.11c2.14,0,3.89,1.77,3.9,3.98v28.42h.99v-28.42c0-2.74-2.18-4.97-4.88-4.97H5.3c-2.7,0-4.88,2.23-4.88,4.97v28.42c0,2.74,2.18,4.96,4.88,4.97h143.11c2.7,0,4.88-2.23,4.88-4.97h-.49Z"/>
      <path class="cls-5" d="M151.11,85.32c0,2.26-1.92,4.1-4.29,4.1H6.9c-2.37,0-4.29-1.84-4.29-4.1v-25.32c0-2.26,1.92-4.1,4.29-4.1h139.92c2.37,0,4.29,1.84,4.29,4.1v25.32h0Z"/>
    </g>
    <path class="cls-4" d="M21.75,85.36H6.46c-.65,0-1.19-.53-1.19-1.19v-23.06c0-.65.53-1.18,1.19-1.18h15.3c.65,0,1.19.53,1.19,1.18v23.06c0,.65-.53,1.19-1.19,1.19h0Z"/>
    <path class="cls-8" d="M16.72,71.34c1.59.15,3.73-.58,4.25,1.3-.69,1.98-3.23,1.08-4.19,1.45-.56.96-1.7,3.15-2.09,3.96-.9,1.86-1.47,3.13-2.16,4.51h-1.29c.62-2.9,1.31-5.69,1.97-8.52-.72-.11-1.81.14-2.4-.3-.42,1.05-.87,2.06-1.24,3.2h-1.11c.17-1.51,1.05-2.77,1.05-4.31s-.83-2.76-1.05-4.21c.31-.05.75-.06,1.11-.1.37,1.13.82,2.24,1.24,3.3.53-.48,1.6-.22,2.4-.29-.64-2.91-1.35-5.69-1.97-8.62h1.23c1.5,2.74,2.75,5.88,4.25,8.62"/>
    <g>
      <path class="cls-4" d="M34.46,71.37h-1.43c-.05-.18-.08-.4-.1-.66-.43.57-.98.86-1.65.86-.57,0-1.01-.18-1.34-.55-.32-.37-.49-.87-.49-1.51,0-.29.03-.55.08-.77.06-.22.15-.41.28-.55s.25-.27.37-.37c.12-.1.28-.18.48-.24.21-.06.37-.11.5-.14.13-.03.3-.06.53-.1.5-.09.83-.18,1-.28s.25-.28.25-.54c0-.61-.31-.91-.92-.91-.32,0-.56.08-.71.23-.15.15-.25.43-.3.81h-1.32c.08-1.53.87-2.3,2.37-2.3s2.23.74,2.23,2.22v2.95c0,.86.06,1.48.18,1.85ZM32.92,68.05c-.17.13-.5.25-.99.36-.42.09-.69.2-.81.33-.15.16-.22.39-.22.69,0,.28.07.5.2.67.13.16.33.25.57.25.38,0,.68-.13.91-.4.23-.27.34-.64.34-1.12v-.77Z"/>
      <path class="cls-4" d="M40.19,69.25c-.16.73-.45,1.3-.88,1.71s-.93.61-1.52.61c-.79,0-1.42-.33-1.9-.98-.48-.65-.72-1.52-.72-2.59s.24-1.93.72-2.62c.48-.69,1.1-1.03,1.84-1.03s1.39.35,1.84,1.05c.46.7.68,1.65.68,2.85v.18h-3.66c0,.59.11,1.04.32,1.35.21.31.5.46.88.46.5,0,.84-.33,1.04-.99h1.35ZM38.84,67.25c-.03-.45-.14-.82-.33-1.1-.18-.29-.44-.43-.77-.43-.31,0-.57.14-.77.41-.2.27-.33.65-.37,1.12h2.24Z"/>
      <path class="cls-4" d="M42.4,64.55v.85c.37-.69.9-1.03,1.58-1.03s1.24.33,1.65.99c.42.66.62,1.54.62,2.64s-.2,1.92-.61,2.57-.94.97-1.61.97-1.21-.34-1.57-1.02v3.26h-1.4v-9.24h1.33ZM43.64,65.87c-.38,0-.68.18-.9.55-.21.37-.32.89-.32,1.55s.11,1.18.33,1.55c.22.37.52.55.9.55s.67-.18.89-.55.32-.88.32-1.52-.11-1.18-.33-1.56-.51-.57-.89-.57Z"/>
      <path class="cls-4" d="M51.91,71.37h-1.4v-5.38h-1.97v5.38h-1.4v-6.82h4.76v6.82Z"/>
      <path class="cls-4" d="M54.62,69.31v2.06h-1.57v-2.06h1.57Z"/>
      <path class="cls-4" d="M60.21,65.34h1.84c.75,0,1.35.25,1.81.76s.69,1.25.69,2.24-.23,1.76-.7,2.27-1.09.76-1.89.76h-3.3v-9.41h5.23v1.7h-3.69v1.68ZM63.05,68.32c0-.9-.4-1.35-1.21-1.35h-1.63v2.71h1.64c.8,0,1.2-.45,1.2-1.36Z"/>
      <path class="cls-4" d="M70.6,67.96c0,1.09-.24,1.97-.72,2.63-.48.66-1.12.99-1.92.99s-1.44-.33-1.92-.99c-.48-.66-.72-1.54-.72-2.63s.24-1.96.73-2.62c.49-.66,1.13-.99,1.93-.99s1.42.33,1.9.99c.48.66.72,1.53.72,2.62ZM69.2,67.95c0-.68-.11-1.21-.33-1.59-.22-.38-.53-.58-.92-.58s-.67.19-.89.58-.33.92-.33,1.6.11,1.24.33,1.62.52.58.91.58.69-.2.91-.59c.21-.39.32-.94.32-1.63Z"/>
      <path class="cls-4" d="M72.85,64.55v.85c.37-.69.9-1.03,1.58-1.03s1.24.33,1.65.99c.42.66.62,1.54.62,2.64s-.2,1.92-.61,2.57-.94.97-1.61.97-1.21-.34-1.57-1.02v3.26h-1.4v-9.24h1.33ZM74.09,65.87c-.38,0-.68.18-.9.55-.21.37-.32.89-.32,1.55s.11,1.18.33,1.55c.22.37.52.55.9.55s.67-.18.89-.55.32-.88.32-1.52-.11-1.18-.33-1.56-.51-.57-.89-.57Z"/>
      <path class="cls-4" d="M82.36,71.37h-1.35v-4.61l-1.82,4.61h-1.59v-6.82h1.35v4.61l1.82-4.61h1.59v6.82Z"/>
      <path class="cls-4" d="M88.32,68.74c-.09.88-.34,1.57-.78,2.06s-.99.74-1.67.74c-.79,0-1.42-.32-1.89-.96-.48-.64-.71-1.5-.71-2.56s.24-1.99.72-2.66c.48-.67,1.11-1,1.91-1,.68,0,1.23.23,1.66.69.43.46.67,1.09.73,1.88h-1.38c-.11-.78-.44-1.18-1.01-1.18-.38,0-.68.2-.9.59-.21.39-.32.94-.32,1.63s.1,1.21.31,1.58c.21.38.5.56.88.56.61,0,.98-.46,1.09-1.38h1.36Z"/>
      <path class="cls-4" d="M93.92,71.37h-1.4v-5.38h-1.97v5.38h-1.4v-6.82h4.76v6.82Z"/>
      <path class="cls-4" d="M96.45,61.96v1.59h-1.41v-1.59h1.41ZM96.45,64.55v6.82h-1.41v-6.82h1.41Z"/>
      <path class="cls-4" d="M102.31,71.37h-1.4v-5.38h-1.35l-.06,2.4c0,.26-.01.47-.02.63s-.02.36-.05.61c-.03.26-.06.46-.1.62-.04.15-.1.33-.18.51-.08.19-.18.33-.29.44-.11.1-.25.19-.42.26-.17.08-.36.11-.57.11-.34,0-.6-.04-.76-.13v-1.49c.17.04.3.07.4.07.4,0,.61-.47.63-1.41l.08-4.06h4.1v6.82Z"/>
      <path class="cls-4" d="M108.02,69.12c0,.73-.18,1.29-.53,1.67-.35.38-.82.58-1.4.58h-2.68v-6.82h1.39v2.34h1.36c.54,0,.99.19,1.34.58.35.39.53.94.53,1.65ZM104.79,68.16v1.92h.96c.57,0,.85-.32.85-.95,0-.32-.08-.56-.24-.72-.16-.16-.37-.24-.62-.24h-.95Z"/>
    </g>
    <g>
      <path class="cls-4" d="M29.67,75.3h2.5c.49,0,.9.15,1.21.44.31.29.47.74.47,1.33,0,.33-.06.62-.19.88-.13.25-.3.45-.53.58.64.24.96.82.96,1.72,0,.67-.17,1.18-.5,1.55s-.76.55-1.28.55h-2.64v-7.05ZM30.8,76.5v1.65h1.05c.58,0,.88-.27.88-.82,0-.32-.08-.54-.24-.66s-.37-.17-.64-.17h-1.05ZM30.8,79.2v1.92h1.17c.3,0,.54-.07.72-.2.18-.13.26-.39.26-.76s-.09-.64-.28-.77c-.19-.13-.44-.19-.76-.19h-1.11Z"/>
      <path class="cls-4" d="M36.68,77.09c.59,0,1.06.25,1.42.74.36.5.54,1.15.54,1.96s-.18,1.47-.54,1.97c-.36.5-.84.74-1.43.74s-1.08-.25-1.44-.74c-.36-.5-.54-1.15-.54-1.97s.18-1.46.55-1.96c.37-.5.85-.74,1.45-.74ZM36.65,78.16c-.28,0-.5.14-.67.44-.16.29-.25.69-.25,1.2s.08.93.25,1.22c.16.29.39.44.68.44s.52-.15.68-.44c.16-.29.24-.7.24-1.22s-.08-.91-.25-1.19c-.17-.29-.39-.43-.69-.43Z"/>
      <path class="cls-4" d="M41.81,77.15v1.3c-.15-.04-.28-.06-.41-.06-.35,0-.6.15-.76.44-.16.29-.25.69-.25,1.18v2.34h-1.05v-5.11h1v.94c.25-.71.67-1.06,1.24-1.06.05,0,.13,0,.23.03Z"/>
      <path class="cls-4" d="M45.69,77.24l-1.41,5.09c-.07.26-.12.44-.15.54s-.08.25-.15.43-.13.31-.19.39c-.06.07-.13.16-.23.25-.1.09-.21.15-.33.19s-.26.05-.42.05c-.13,0-.36,0-.71,0v-1.16h.51c.17,0,.3-.06.4-.18.09-.12.14-.29.14-.5,0-.05-.01-.12-.03-.2l-1.39-4.88h1.13l.88,3.47.85-3.47h1.09Z"/>
      <path class="cls-4" d="M49.29,78.72h-.98c-.03-.26-.1-.44-.22-.54s-.29-.16-.51-.16c-.19,0-.33.04-.44.13-.1.09-.16.21-.16.37,0,.18.06.31.18.39.12.07.33.15.64.24.05.01.09.02.12.03.18.05.32.09.43.12s.24.1.39.18c.15.08.27.17.36.28.08.1.16.24.22.41.06.17.1.37.1.59,0,.54-.16.96-.47,1.27-.31.31-.74.46-1.28.46s-.95-.15-1.28-.45c-.34-.3-.51-.75-.51-1.37h1c.03.57.31.85.82.85.21,0,.38-.06.51-.17.13-.12.19-.27.19-.46s-.06-.33-.17-.41c-.11-.08-.32-.17-.63-.26-.02,0-.04-.01-.06-.02-.03-.01-.11-.04-.23-.07-.12-.03-.2-.06-.25-.07s-.12-.04-.23-.08c-.11-.04-.18-.08-.23-.11-.05-.04-.12-.08-.2-.14-.08-.06-.14-.12-.18-.18-.04-.07-.08-.14-.13-.23-.05-.09-.08-.19-.1-.3-.02-.11-.03-.23-.03-.37,0-.5.15-.89.44-1.16.29-.27.71-.41,1.24-.41.48,0,.87.13,1.18.4.31.26.47.68.48,1.24Z"/>
      <path class="cls-4" d="M51.04,77.24v.63c.28-.51.67-.77,1.19-.77s.93.25,1.24.74.47,1.16.47,1.98-.15,1.44-.46,1.93c-.3.48-.71.73-1.21.73s-.91-.25-1.18-.76v2.45h-1.05v-6.92h.99ZM51.96,78.23c-.29,0-.51.14-.67.42-.16.28-.24.66-.24,1.16s.08.88.25,1.16.39.42.67.42.5-.14.66-.42c.16-.28.24-.66.24-1.14s-.08-.88-.25-1.17c-.16-.28-.39-.43-.67-.43Z"/>
      <path class="cls-4" d="M55.66,75.3v1.19h-1.05v-1.19h1.05ZM55.66,77.24v5.11h-1.05v-5.11h1.05Z"/>
      <path class="cls-4" d="M57.57,75.3v7.05h-1.05v-7.05h1.05Z"/>
      <path class="cls-4" d="M63.2,75.29l2.01,7.06h-1.22l-.42-1.57h-1.97l-.43,1.57h-1.19l2.01-7.06h1.19ZM63.3,79.64l-.7-2.62-.71,2.62h1.4Z"/>
      <path class="cls-4" d="M66.63,75.3v1.19h-1.05v-1.19h1.05ZM66.63,77.24v5.11h-1.05v-5.11h1.05Z"/>
      <path class="cls-4" d="M69.95,77.15v1.3c-.15-.04-.28-.06-.41-.06-.35,0-.6.15-.76.44-.16.29-.25.69-.25,1.18v2.34h-1.05v-5.11h1v.94c.25-.71.67-1.06,1.24-1.06.05,0,.13,0,.23.03Z"/>
      <path class="cls-4" d="M71.34,77.24v.63c.28-.51.67-.77,1.19-.77s.93.25,1.24.74.47,1.16.47,1.98-.15,1.44-.46,1.93c-.3.48-.71.73-1.21.73s-.91-.25-1.18-.76v2.45h-1.05v-6.92h.99ZM72.27,78.23c-.29,0-.51.14-.67.42-.16.28-.24.66-.24,1.16s.08.88.25,1.16.39.42.67.42.5-.14.66-.42c.16-.28.24-.66.24-1.14s-.08-.88-.25-1.17c-.16-.28-.39-.43-.67-.43Z"/>
      <path class="cls-4" d="M76.76,77.09c.59,0,1.06.25,1.42.74.36.5.54,1.15.54,1.96s-.18,1.47-.54,1.97c-.36.5-.84.74-1.43.74s-1.08-.25-1.44-.74c-.36-.5-.54-1.15-.54-1.97s.18-1.46.55-1.96c.37-.5.85-.74,1.45-.74ZM76.73,78.16c-.28,0-.5.14-.67.44-.16.29-.25.69-.25,1.2s.08.93.25,1.22c.16.29.39.44.68.44s.52-.15.68-.44c.16-.29.24-.7.24-1.22s-.08-.91-.25-1.19c-.17-.29-.39-.43-.69-.43Z"/>
      <path class="cls-4" d="M81.9,77.15v1.3c-.15-.04-.28-.06-.41-.06-.35,0-.6.15-.76.44-.16.29-.25.69-.25,1.18v2.34h-1.05v-5.11h1v.94c.25-.71.67-1.06,1.24-1.06.05,0,.13,0,.23.03Z"/>
    </g>
    <path class="cls-4" d="M84.41,77.24v.95h-.78v2.41c0,.15,0,.26,0,.33,0,.07.02.14.05.21.03.07.08.12.14.14.06.02.15.04.26.04.13,0,.23,0,.32-.02v1.07c-.26.03-.47.04-.64.04-.46,0-.77-.11-.94-.32-.17-.21-.25-.63-.25-1.24v-2.65h-.64v-.95h.64v-1.54h1.05v1.54h.78Z"/>
    <path class="cls-4" d="M118.39,70.27c.04-1.35.35-2.41.95-3.18.59-.77,1.4-1.16,2.42-1.16.96,0,1.74.33,2.34.99.6.66.9,1.52.9,2.57,0,.63-.12,1.18-.37,1.64-.25.46-.58.77-.99.92.54.17.96.52,1.26,1.05s.46,1.17.46,1.94c0,1.24-.34,2.25-1.01,3.03s-1.54,1.18-2.61,1.18-1.98-.41-2.63-1.22c-.65-.82-.97-1.92-.97-3.3v-.18h1.9c0,.8.16,1.42.44,1.84.28.43.69.64,1.22.64.48,0,.87-.18,1.17-.55s.45-.84.45-1.42c0-.68-.17-1.17-.49-1.47-.33-.3-.75-.46-1.27-.46-.19,0-.36,0-.49.02v-1.85c.1.01.21.02.33.02,1.13,0,1.7-.54,1.7-1.63,0-.49-.12-.89-.37-1.19-.25-.3-.57-.45-.98-.45-.46,0-.82.19-1.08.58s-.39.93-.4,1.65h-1.88Z"/>
    <polygon class="cls-4" points="142.42 80.27 148.86 72.81 142.06 65.02 137.39 65.02 142.17 70.93 130.47 70.93 130.47 74.69 142.18 74.69 137.76 80.27 142.42 80.27 142.42 80.27"/>
  </g>
  <g>
    <path class="cls-4" d="M.49,98.83c0-.24,0-.66,0-.63,0-1.52,1.21-2.76,2.68-2.76h116.4c1.48,0,33.17,18.68,33.17,18.68,0,0-31.69,18.68-33.17,18.68H3.18c-1.48,0-2.68-1.24-2.68-2.76v-.63H.49v-30.58H.49Z"/>
    <path class="cls-8" d="M.49,98.83h.35v-.63c0-1.33,1.06-2.41,2.33-2.41h116.4v-.08.08s0,0,0,0v-.08.08s.27.08.58.23c2.47,1.11,10.59,5.72,18.07,10.04,3.74,2.16,7.32,4.25,9.97,5.8,2.65,1.55,4.36,2.56,4.36,2.56l.18-.3-.18-.3s-1.98,1.17-4.97,2.92c-4.49,2.63-11.26,6.57-17.05,9.85-2.89,1.64-5.54,3.12-7.53,4.18-.99.53-1.82.96-2.43,1.26-.3.15-.56.26-.74.33l-.22.08h-.06s0,.02,0,.02v.11s.01-.11.01-.11h-.01s.01.11.01.11v-.11s-.61,0-.61,0H3.18c-1.27,0-2.33-1.08-2.33-2.41v-.63h0v-30.58H.14v30.58H.14v.63c0,1.71,1.36,3.11,3.04,3.12h116.4l.34-.07c.87-.3,3.3-1.6,6.55-3.4,9.72-5.4,26.45-15.26,26.45-15.26l.52-.3-.52-.3s-7.92-4.67-16.03-9.34c-4.05-2.34-8.16-4.67-11.34-6.43-1.59-.88-2.95-1.61-3.97-2.12-.51-.26-.93-.46-1.25-.6-.16-.07-.3-.13-.42-.17l-.34-.07H3.18c-1.68,0-3.04,1.41-3.04,3.12v.63h.35Z"/>
    <path class="cls-9" d="M1.6,99.7c0-.23,0-.62,0-.59,0-1.43,1.17-2.61,2.61-2.61h114.26c1.43,0,21.58,17.62,21.58,17.62,0,0-20.14,17.62-21.58,17.62H4.21c-1.43,0-2.61-1.17-2.61-2.61v-29.43h0Z"/>
    <path class="cls-4" d="M28.93,126.76H6.35c-.78,0-1.42-.64-1.42-1.42v-22.58c0-.78.64-1.42,1.42-1.42h22.58c.78,0,1.42.64,1.42,1.42v22.58c0,.78-.64,1.42-1.42,1.42h0Z"/>
    <path class="cls-8" d="M21.46,112.74c2.42.15,5.66-.58,6.46,1.3-1.05,1.98-4.9,1.08-6.37,1.45-.85.96-2.58,3.15-3.18,3.96-1.37,1.86-2.24,3.13-3.28,4.51h-1.97c.94-2.9,1.99-5.69,3-8.52-1.1-.11-2.75.14-3.65-.3-.64,1.05-1.32,2.06-1.88,3.2h-1.68c.25-1.51,1.59-2.77,1.59-4.31s-1.26-2.76-1.59-4.21c.47-.05,1.13-.06,1.68-.1.56,1.13,1.24,2.24,1.88,3.3.81-.48,2.44-.22,3.65-.29-.96-2.91-2.05-5.69-3-8.62h1.87c2.28,2.74,4.18,5.88,6.46,8.62"/>
    <g>
      <path class="cls-4" d="M39.26,106.75h2.3c.93,0,1.68.25,2.26.76s.87,1.25.87,2.24-.29,1.76-.87,2.27-1.37.76-2.36.76h-4.12v-9.41h6.53v1.7h-4.61v1.68ZM42.81,109.72c0-.9-.5-1.35-1.51-1.35h-2.04v2.71h2.05c1,0,1.5-.45,1.5-1.36Z"/>
      <path class="cls-4" d="M52.24,109.36c0,1.09-.3,1.97-.9,2.63-.6.66-1.39.99-2.39.99s-1.8-.33-2.4-.99c-.6-.66-.9-1.54-.9-2.63s.3-1.96.91-2.62c.61-.66,1.41-.99,2.41-.99s1.77.33,2.37.99c.6.66.9,1.53.9,2.62ZM50.49,109.35c0-.68-.14-1.21-.41-1.59-.28-.38-.66-.58-1.14-.58s-.84.19-1.11.58c-.27.39-.41.92-.41,1.6s.14,1.24.41,1.62c.27.39.65.58,1.14.58s.86-.2,1.13-.59c.27-.39.4-.94.4-1.63Z"/>
      <path class="cls-4" d="M55.05,105.95v.85c.46-.69,1.12-1.03,1.98-1.03s1.55.33,2.06.99c.52.66.78,1.54.78,2.64s-.25,1.92-.76,2.57-1.18.97-2.01.97-1.51-.34-1.96-1.02v3.26h-1.74v-9.24h1.66ZM56.59,107.27c-.48,0-.85.18-1.12.55-.27.37-.4.89-.4,1.55s.14,1.18.41,1.55c.27.37.65.55,1.12.55s.84-.18,1.11-.55.4-.88.4-1.52-.14-1.18-.41-1.56c-.27-.38-.64-.57-1.11-.57Z"/>
      <path class="cls-4" d="M66.92,112.77h-1.68v-4.61l-2.27,4.61h-1.99v-6.82h1.68v4.61l2.27-4.61h1.99v6.82Z"/>
      <path class="cls-4" d="M74.36,110.14c-.11.88-.43,1.57-.97,2.06s-1.23.74-2.08.74c-.98,0-1.77-.32-2.36-.96-.59-.64-.89-1.5-.89-2.56s.3-1.99.9-2.66c.6-.67,1.39-1,2.38-1,.85,0,1.54.23,2.08.69.54.46.84,1.09.92,1.88h-1.72c-.13-.78-.55-1.18-1.26-1.18-.48,0-.85.2-1.12.59-.27.39-.4.94-.4,1.63s.13,1.21.39,1.58c.26.38.62.56,1.09.56.77,0,1.22-.46,1.36-1.38h1.69Z"/>
      <path class="cls-4" d="M81.34,112.77h-1.74v-5.38h-2.46v5.38h-1.74v-6.82h5.95v6.82Z"/>
      <path class="cls-4" d="M84.51,103.36v1.59h-1.76v-1.59h1.76ZM84.51,105.95v6.82h-1.76v-6.82h1.76Z"/>
      <path class="cls-4" d="M91.83,112.77h-1.74v-5.38h-1.68l-.07,2.4c0,.26-.02.47-.02.63s-.03.36-.07.61c-.04.26-.08.46-.13.62-.05.15-.13.33-.23.51-.1.19-.22.33-.36.44-.14.1-.31.19-.53.26-.21.08-.45.11-.72.11-.43,0-.75-.04-.95-.13v-1.49c.21.04.37.07.5.07.5,0,.77-.47.79-1.41l.1-4.06h5.12v6.82Z"/>
      <path class="cls-4" d="M98.95,110.52c0,.73-.22,1.29-.66,1.67-.44.38-1.02.58-1.75.58h-3.35v-6.82h1.73v2.34h1.69c.68,0,1.23.19,1.68.58.44.39.66.94.66,1.65ZM94.92,109.56v1.92h1.2c.71,0,1.06-.32,1.06-.95,0-.32-.1-.56-.3-.72-.2-.16-.46-.24-.78-.24h-1.19Z"/>
    </g>
    <g>
      <path class="cls-4" d="M37.1,116.7h3.12c.62,0,1.12.15,1.51.44.39.29.59.74.59,1.33,0,.33-.08.62-.24.88-.16.25-.38.45-.66.58.8.24,1.2.82,1.2,1.72,0,.67-.21,1.18-.63,1.55s-.95.55-1.6.55h-3.3v-7.05ZM38.51,117.9v1.65h1.32c.73,0,1.09-.27,1.09-.82,0-.32-.1-.54-.3-.66s-.46-.17-.8-.17h-1.32ZM38.51,120.6v1.92h1.45c.38,0,.67-.07.89-.2.22-.13.33-.39.33-.76s-.12-.64-.35-.77c-.23-.13-.55-.19-.95-.19h-1.38Z"/>
      <path class="cls-4" d="M45.84,118.49c.73,0,1.33.25,1.77.74.45.5.67,1.15.67,1.96s-.22,1.47-.67,1.97c-.45.5-1.05.74-1.79.74s-1.35-.25-1.8-.74-.68-1.15-.68-1.97.23-1.46.69-1.96c.46-.5,1.06-.74,1.81-.74ZM45.8,119.56c-.35,0-.63.14-.83.44-.2.29-.31.69-.31,1.2s.1.93.31,1.22c.2.29.49.44.85.44s.65-.15.85-.44c.2-.29.3-.7.3-1.22s-.1-.91-.31-1.19c-.21-.29-.49-.43-.86-.43Z"/>
      <path class="cls-4" d="M52.25,118.55v1.3c-.19-.04-.36-.06-.51-.06-.43,0-.75.15-.95.44-.2.29-.3.69-.3,1.18v2.34h-1.32v-5.11h1.25v.94c.32-.71.83-1.06,1.55-1.06.06,0,.16,0,.29.03Z"/>
      <path class="cls-4" d="M57.09,118.64l-1.76,5.09c-.09.26-.15.44-.19.54s-.1.25-.18.43c-.08.18-.16.31-.23.39-.07.07-.17.16-.29.25-.12.09-.26.15-.41.19s-.33.05-.52.05c-.16,0-.45,0-.88,0v-1.16h.64c.22,0,.38-.06.5-.18.11-.12.17-.29.17-.5,0-.05-.01-.12-.04-.2l-1.73-4.88h1.42l1.09,3.47,1.06-3.47h1.36Z"/>
      <path class="cls-4" d="M61.59,120.13h-1.22c-.04-.26-.13-.44-.27-.54-.15-.11-.36-.16-.63-.16-.23,0-.42.04-.55.13-.13.09-.19.21-.19.37,0,.18.07.31.22.39.15.07.41.15.8.24.07.01.12.02.15.03.22.05.4.09.53.12s.29.1.49.18c.19.08.34.17.44.28.1.1.2.24.28.41s.12.37.12.59c0,.54-.19.96-.58,1.27-.39.31-.92.46-1.6.46s-1.18-.15-1.6-.45-.63-.75-.64-1.37h1.25c.04.57.38.85,1.02.85.27,0,.48-.06.63-.17.16-.12.24-.27.24-.46s-.07-.33-.21-.41c-.14-.08-.4-.17-.79-.26-.03,0-.05-.01-.07-.02-.04-.01-.14-.04-.29-.07-.15-.03-.25-.06-.31-.07s-.15-.04-.29-.08c-.13-.04-.23-.08-.29-.11s-.14-.08-.25-.14c-.1-.06-.18-.12-.23-.18-.05-.07-.1-.14-.16-.23-.06-.09-.1-.19-.12-.3-.02-.11-.03-.23-.03-.37,0-.5.18-.89.55-1.16.36-.27.88-.41,1.55-.41.6,0,1.09.13,1.47.4.38.26.58.68.6,1.24Z"/>
      <path class="cls-4" d="M63.77,118.64v.63c.35-.51.84-.77,1.48-.77s1.16.25,1.55.74c.39.5.58,1.16.58,1.98s-.19,1.44-.57,1.93c-.38.48-.88.73-1.5.73s-1.13-.25-1.47-.76v2.45h-1.31v-6.92h1.24ZM64.93,119.63c-.36,0-.64.14-.84.42-.2.28-.3.66-.3,1.16s.1.88.31,1.16c.2.28.48.42.84.42s.63-.14.83-.42c.2-.28.3-.66.3-1.14s-.1-.88-.31-1.17c-.2-.28-.48-.43-.83-.43Z"/>
      <path class="cls-4" d="M69.54,116.7v1.19h-1.32v-1.19h1.32ZM69.54,118.64v5.11h-1.32v-5.11h1.32Z"/>
      <path class="cls-4" d="M71.93,116.7v7.05h-1.32v-7.05h1.32Z"/>
    </g>
    <path class="cls-4" d="M114.62,111.67c.04-1.35.35-2.41.95-3.18.59-.77,1.4-1.16,2.42-1.16.96,0,1.74.33,2.34.99.6.66.9,1.52.9,2.57,0,.63-.12,1.18-.37,1.64-.25.46-.58.77-.99.92.54.17.96.52,1.26,1.05s.46,1.17.46,1.94c0,1.24-.34,2.25-1.01,3.03s-1.54,1.18-2.61,1.18-1.98-.41-2.63-1.22c-.65-.82-.97-1.92-.97-3.3v-.18h1.9c0,.8.16,1.42.44,1.84.28.43.69.64,1.22.64.48,0,.87-.18,1.17-.55s.45-.84.45-1.42c0-.68-.17-1.17-.49-1.47-.33-.3-.75-.46-1.27-.46-.19,0-.36,0-.49.02v-1.85c.1.01.21.02.33.02,1.13,0,1.7-.54,1.7-1.63,0-.49-.12-.89-.37-1.19-.25-.3-.57-.45-.98-.45-.46,0-.82.19-1.08.58s-.39.93-.4,1.65h-1.88Z"/>
  </g>
  <g>
    <path class="cls-8" d="M.49,140.23c0-.24,0-.66,0-.63,0-1.52,1.21-2.76,2.68-2.76h116.4c1.48,0,33.17,18.68,33.17,18.68,0,0-31.69,18.68-33.17,18.68H3.18c-1.48,0-2.68-1.24-2.68-2.76v-.63H.49v-30.58H.49Z"/>
    <path class="cls-8" d="M.49,140.23h.35v-.63c0-1.33,1.06-2.41,2.33-2.41h116.4v-.08.08s0,0,0,0v-.08.08s.27.08.58.23c2.47,1.11,10.59,5.72,18.07,10.04,3.74,2.16,7.32,4.25,9.97,5.8,2.65,1.55,4.36,2.56,4.36,2.56l.18-.31-.18-.3s-1.98,1.17-4.97,2.92c-4.49,2.63-11.26,6.57-17.05,9.85-2.89,1.64-5.54,3.12-7.53,4.18-.99.53-1.82.96-2.43,1.26-.3.15-.56.26-.74.33l-.22.08h-.06s0,.02,0,.02v.11s.01-.11.01-.11h-.01s.01.11.01.11v-.11s-.61,0-.61,0H3.18c-1.27,0-2.33-1.08-2.33-2.41v-.63h0v-30.58H.14v30.58H.14v.63c0,1.71,1.36,3.11,3.04,3.12h116.4l.34-.07c.87-.3,3.3-1.6,6.55-3.4,9.72-5.4,26.45-15.26,26.45-15.26l.52-.31-.52-.3s-7.92-4.67-16.03-9.34c-4.05-2.34-8.16-4.67-11.34-6.43-1.59-.88-2.95-1.61-3.97-2.12-.51-.26-.93-.46-1.25-.6-.16-.07-.3-.13-.42-.17l-.34-.07H3.18c-1.68,0-3.04,1.41-3.04,3.12v.63h.35Z"/>
    <path class="cls-7" d="M1.6,141.1c0-.23,0-.62,0-.59,0-1.43,1.17-2.61,2.61-2.61h114.26c1.43,0,21.58,17.62,21.58,17.62,0,0-20.14,17.62-21.58,17.62H4.21c-1.43,0-2.61-1.17-2.61-2.61v-29.43h0Z"/>
    <path class="cls-4" d="M114.62,153.07c.04-1.35.35-2.41.95-3.18.59-.77,1.4-1.16,2.42-1.16.96,0,1.74.33,2.34.99.6.66.9,1.52.9,2.57,0,.63-.12,1.18-.37,1.64-.25.46-.58.77-.99.92.54.17.96.52,1.26,1.05s.46,1.17.46,1.94c0,1.24-.34,2.25-1.01,3.03s-1.54,1.18-2.61,1.18-1.98-.41-2.63-1.22c-.65-.82-.97-1.92-.97-3.3v-.18h1.9c0,.8.16,1.42.44,1.84.28.43.69.64,1.22.64.48,0,.87-.18,1.17-.55s.45-.84.45-1.42c0-.68-.17-1.17-.49-1.47-.33-.3-.75-.46-1.27-.46-.19,0-.36,0-.49.02v-1.85c.1.01.21.02.33.02,1.13,0,1.7-.54,1.7-1.63,0-.49-.12-.89-.37-1.19-.25-.3-.57-.45-.98-.45-.46,0-.82.19-1.08.58s-.39.93-.4,1.65h-1.88Z"/>
    <polygon class="cls-8" points="68.93 155.64 69.25 152.67 69.13 152.67 68.15 154.92 64.84 160.26 63.9 160.26 60.38 154.9 59.42 152.69 59.3 152.69 59.72 155.62 59.72 162.82 56.86 162.82 56.86 148.5 59.6 148.5 63.73 155.11 64.51 156.68 64.61 156.68 65.29 155.06 69.23 148.5 71.96 148.5 71.96 162.82 68.93 162.82 68.93 155.64 68.93 155.64"/>
    <polygon class="cls-4" points="68.93 155.64 69.1 155.66 69.45 152.5 69.13 152.5 69.02 152.5 68 154.84 64.74 160.09 63.99 160.09 60.53 154.82 59.53 152.52 59.3 152.52 59.1 152.52 59.55 155.63 59.55 162.64 57.03 162.64 57.03 148.67 59.51 148.67 63.58 155.19 64.4 156.85 64.61 156.85 64.73 156.85 65.44 155.14 69.33 148.67 71.78 148.67 71.78 162.64 69.1 162.64 69.1 155.64 68.93 155.64 69.1 155.66 68.93 155.64 68.76 155.64 68.76 162.99 72.13 162.99 72.13 148.33 69.14 148.33 65.14 154.98 64.46 156.61 64.61 156.68 64.61 156.51 64.51 156.51 64.51 156.68 64.66 156.6 63.88 155.02 59.7 148.33 56.69 148.33 56.69 162.99 59.9 162.99 59.9 155.6 59.46 152.67 59.3 152.69 59.3 152.86 59.3 152.86 60.23 154.98 63.81 160.43 64.84 160.43 64.93 160.43 68.3 155 69.25 152.84 69.25 152.84 69.25 152.67 69.08 152.65 68.76 155.63 68.76 155.64 68.93 155.64 68.93 155.64"/>
    <polygon class="cls-8" points="74.61 148.5 83.84 148.5 83.84 151.16 77.64 151.16 77.64 154.27 83.27 154.27 83.27 156.93 77.64 156.93 77.64 160.16 83.94 160.16 83.94 162.82 74.61 162.82 74.61 148.5 74.61 148.5"/>
    <polygon class="cls-4" points="74.61 148.5 74.61 148.67 83.67 148.67 83.67 150.99 77.47 150.99 77.47 154.44 83.09 154.44 83.09 156.75 77.47 156.75 77.47 160.33 83.77 160.33 83.77 162.64 74.79 162.64 74.79 148.5 74.61 148.5 74.61 148.67 74.61 148.5 74.44 148.5 74.44 162.99 84.11 162.99 84.11 159.99 77.81 159.99 77.81 157.1 83.44 157.1 83.44 154.1 77.81 154.1 77.81 151.33 84.01 151.33 84.01 148.33 74.44 148.33 74.44 148.5 74.61 148.5 74.61 148.5"/>
    <polygon class="cls-8" points="97.22 151.16 92.67 151.16 92.67 162.82 89.65 162.82 89.65 151.16 85.11 151.16 85.11 148.5 97.22 148.5 97.22 151.16 97.22 151.16"/>
    <polygon class="cls-4" points="97.22 151.16 97.22 150.99 92.5 150.99 92.5 162.64 89.82 162.64 89.82 150.99 85.28 150.99 85.28 148.67 97.04 148.67 97.04 151.16 97.22 151.16 97.22 150.99 97.22 151.16 97.39 151.16 97.39 148.33 84.93 148.33 84.93 151.33 89.48 151.33 89.48 162.99 92.84 162.99 92.84 151.33 97.39 151.33 97.39 151.16 97.22 151.16 97.22 151.16"/>
    <path class="cls-8" d="M103.43,150.95c-.31,0-.62,0-.91.01-.29,0-.53.03-.71.07v3.95h1.29c.86,0,1.54-.16,2.03-.49.5-.33.75-.89.75-1.7,0-.6-.21-1.06-.63-1.37-.42-.31-1.03-.47-1.82-.47h0ZM98.79,148.64c.33-.06.69-.11,1.07-.16.39-.05.78-.08,1.18-.11.39-.03.78-.05,1.15-.06.37-.01.72-.02,1.03-.02.72,0,1.43.06,2.14.18.7.12,1.33.34,1.88.64.55.3,1,.71,1.34,1.24.34.53.51,1.18.51,1.97,0,1.17-.29,2.14-.87,2.89-.58.76-1.38,1.27-2.4,1.54l1.08.63,3.58,5.42h-3.52l-3.56-5.54-1.59-.25v5.79h-3.03v-14.17h0Z"/>
    <path class="cls-4" d="M103.43,150.95v-.17c-.31,0-.62,0-.91.01-.3,0-.54.03-.74.07l-.13.03v4.25h1.46c.88,0,1.59-.17,2.13-.52.56-.36.83-1,.82-1.84,0-.64-.23-1.17-.7-1.51-.47-.34-1.11-.5-1.92-.5v.34c.77,0,1.34.15,1.72.44.38.28.56.67.56,1.23,0,.77-.23,1.26-.67,1.55-.46.3-1.1.46-1.94.46h-1.12v-3.78s-.17,0-.17,0l.04.17c.16-.04.38-.06.67-.07.29,0,.6-.01.91-.01v-.17h0ZM98.79,148.64l.03.17c.32-.05.68-.11,1.07-.15.38-.05.77-.08,1.17-.11.39-.03.78-.05,1.15-.06.37-.01.71-.02,1.03-.02.71,0,1.41.06,2.11.18.69.12,1.29.33,1.83.62.53.29.95.68,1.28,1.18.32.49.48,1.11.48,1.88,0,1.15-.28,2.07-.83,2.79-.55.72-1.32,1.22-2.31,1.48l-.4.11,1.4.82,3.38,5.12h-3.11l-3.55-5.53-1.67-.26-.2-.03v5.82h-2.68v-14h-.17l.03.17-.03-.17h-.17v14.34h3.37v-5.76l1.32.2,3.57,5.56h3.93l-3.78-5.72-1.12-.65-.09.15.04.17c1.05-.28,1.89-.82,2.49-1.61.61-.79.9-1.8.9-3,0-.81-.18-1.51-.54-2.07-.36-.55-.83-.98-1.4-1.29-.57-.31-1.22-.53-1.93-.65-.71-.12-1.44-.19-2.17-.19-.32,0-.66,0-1.04.02-.38.02-.76.04-1.16.06-.4.03-.79.07-1.19.11-.39.05-.75.1-1.08.16l-.14.02v.14h.17Z"/>
    <path class="cls-8" d="M114.09,155.66c0,.71.07,1.36.2,1.94.14.59.34,1.09.61,1.51.27.42.62.75,1.05.98.43.23.94.35,1.52.35,1.08,0,1.92-.37,2.52-1.1.6-.74.9-1.96.9-3.68,0-.68-.06-1.32-.18-1.9-.12-.59-.32-1.09-.6-1.52-.28-.43-.63-.76-1.06-1-.43-.24-.95-.36-1.56-.36-1.06,0-1.9.38-2.5,1.15-.6.76-.9,1.98-.9,3.64h0ZM110.88,155.66c0-1.17.15-2.22.45-3.15.3-.93.73-1.71,1.3-2.34.56-.63,1.26-1.12,2.07-1.45.82-.33,1.75-.5,2.78-.5,1.1,0,2.07.18,2.89.54.82.36,1.51.87,2.06,1.52.55.66.97,1.44,1.25,2.35.28.91.42,1.92.42,3.03,0,1.17-.15,2.22-.46,3.15-.31.93-.75,1.71-1.32,2.34-.57.64-1.27,1.12-2.09,1.45-.82.33-1.74.5-2.76.5-1.11,0-2.07-.18-2.89-.54-.82-.36-1.51-.87-2.07-1.52-.55-.65-.96-1.44-1.24-2.35-.27-.91-.41-1.92-.41-3.03h0Z"/>
    <path class="cls-4" d="M114.09,155.66h-.17c0,.72.07,1.38.21,1.98.14.6.35,1.13.64,1.57.28.45.66.79,1.12,1.04.46.25,1,.37,1.61.37,1.11,0,2.02-.39,2.65-1.17.64-.79.94-2.05.94-3.79,0-.69-.06-1.34-.19-1.94-.13-.6-.34-1.13-.63-1.58-.29-.45-.67-.81-1.12-1.06-.46-.25-1.01-.38-1.65-.38-1.1,0-2,.41-2.63,1.21-.64.81-.93,2.06-.94,3.74h.34c0-1.64.3-2.82.86-3.53.57-.72,1.34-1.08,2.36-1.08.59,0,1.08.12,1.48.34.4.23.74.54,1,.95.27.41.46.9.58,1.47.12.57.18,1.2.18,1.87,0,1.7-.3,2.89-.86,3.58-.57.69-1.34,1.04-2.38,1.04-.56,0-1.04-.11-1.44-.33-.4-.22-.73-.52-.99-.92-.26-.4-.46-.89-.59-1.46-.13-.57-.2-1.2-.2-1.9h-.17ZM110.88,155.66h.17c0-1.16.15-2.19.44-3.09.29-.91.71-1.67,1.26-2.28.55-.61,1.22-1.08,2.01-1.41.79-.32,1.7-.49,2.72-.49,1.08,0,2.02.18,2.83.53.8.35,1.47.84,2,1.48.54.64.94,1.4,1.22,2.29.27.9.41,1.89.41,2.98,0,1.16-.15,2.19-.45,3.1-.3.91-.73,1.67-1.28,2.28-.56.62-1.23,1.08-2.02,1.41-.8.32-1.69.49-2.7.49-1.09,0-2.03-.18-2.83-.53-.8-.35-1.47-.84-2-1.48-.53-.63-.94-1.4-1.2-2.29-.27-.9-.4-1.89-.4-2.98h-.34c0,1.12.14,2.14.42,3.08.28.93.7,1.74,1.27,2.41.57.68,1.28,1.2,2.13,1.57.85.37,1.84.56,2.96.56,1.04,0,1.98-.17,2.83-.51.84-.34,1.56-.84,2.15-1.5.59-.65,1.04-1.45,1.35-2.4.31-.95.47-2.02.47-3.2,0-1.12-.14-2.14-.43-3.08-.29-.93-.71-1.74-1.28-2.41-.57-.68-1.28-1.2-2.13-1.57-.85-.37-1.84-.56-2.96-.56-1.05,0-2.01.17-2.85.51-.84.34-1.55.84-2.14,1.5-.59.65-1.03,1.46-1.34,2.4-.31.95-.46,2.01-.46,3.2h.17Z"/>
    <polyline class="cls-8" points="45.77 149.87 45.77 161.45 48.51 161.45 48.51 149.87"/>
    <polyline class="cls-8" points="52.93 154.29 41.35 154.29 41.35 157.03 52.93 157.03"/>
    <path class="cls-1" d="M8.92,140.1h25.36c1.21,0,2.2.99,2.2,2.2v25.36c0,1.21-.99,2.2-2.2,2.2H8.92c-1.21,0-2.2-.99-2.2-2.2v-25.36c0-1.21.99-2.2,2.2-2.2M12.65,143.34h9.77c5.41,0,8.11,2.23,8.11,6.68,0,4.88-2.81,7.32-8.42,7.32h-6.24v9.28h-3.22v-23.28h0ZM15.88,145.98v8.73h5.9c1.95,0,3.36-.4,4.2-1.19.85-.79,1.27-1.93,1.27-3.42s-.47-2.54-1.4-3.18c-.94-.63-2.3-.94-4.08-.94h-5.9Z"/>
  </g>
  <g>
    <g class="cls-15">
      <path class="cls-2" d="M5.92,178.86C2.65,178.86,0,181.51,0,184.78v30.43c0,3.27,2.65,5.92,5.92,5.92h141.43c3.27,0,5.92-2.65,5.92-5.92v-30.43c0-3.27-2.65-5.92-5.92-5.92H5.92Z"/>
    </g>
    <g class="cls-18">
      <polygon class="cls-4" points="0 178.86 153.27 178.86 153.27 221.13 0 221.13 0 178.86 0 178.86"/>
      <path class="cls-4" d="M152.7,215.66c0,2.72-2.16,4.93-4.83,4.93H5.38c-2.67,0-4.83-2.2-4.83-4.93v-31.29c0-2.72,2.16-4.93,4.83-4.93h142.49c2.67,0,4.83,2.2,4.83,4.93v31.29h0Z"/>
      <path class="cls-8" d="M152.7,215.66h-.54c0,2.43-1.93,4.38-4.29,4.38H5.38c-2.36,0-4.29-1.95-4.29-4.38v-31.29c0-2.43,1.93-4.38,4.29-4.38h142.49c2.36,0,4.29,1.95,4.29,4.38v31.29h1.09v-31.29c0-3.01-2.4-5.47-5.38-5.47H5.38c-2.98,0-5.37,2.46-5.37,5.47v31.29c0,3.01,2.4,5.47,5.37,5.47h142.49c2.98,0,5.37-2.46,5.38-5.47h-.54Z"/>
      <path class="cls-4" d="M150.84,213.95c0,2.49-2.12,4.51-4.72,4.51H7.13c-2.61,0-4.72-2.02-4.72-4.51v-27.88c0-2.49,2.12-4.51,4.72-4.51h138.99c2.61,0,4.72,2.02,4.72,4.51v27.88h0Z"/>
    </g>
    <g>
      <path class="cls-8" d="M56.32,201.63h-2.69v-3.26h-9.47v-12.7h2.78v10.33h5.19v-10.33h2.78v10.33h1.41v5.64Z"/>
      <path class="cls-8" d="M66.79,195.51c-.29.99-.81,1.75-1.58,2.3-.77.55-1.68.82-2.74.82-1.41,0-2.55-.44-3.41-1.32-.86-.88-1.29-2.04-1.29-3.5s.43-2.6,1.3-3.53c.87-.93,1.97-1.39,3.32-1.39s2.5.47,3.32,1.42,1.23,2.23,1.23,3.84v.25h-6.6c.01.8.21,1.4.58,1.82.37.42.9.62,1.58.62.89,0,1.52-.45,1.87-1.34h2.43ZM64.36,192.8c-.06-.61-.26-1.1-.59-1.49-.33-.39-.8-.58-1.39-.58-.56,0-1.02.18-1.39.55s-.59.87-.66,1.52h4.03Z"/>
      <path class="cls-8" d="M77.7,198.37h-2.51v-3.87h-3.55v3.87h-2.51v-9.2h2.51v3.33h3.55v-3.33h2.51v9.2Z"/>
      <path class="cls-8" d="M88.17,191.11h-3.03v7.26h-2.51v-7.26h-3.03v-1.94h8.58v1.94Z"/>
      <path class="cls-8" d="M92.4,189.16v1.14c.67-.93,1.62-1.39,2.85-1.39s2.23.45,2.98,1.34,1.12,2.08,1.12,3.57-.37,2.59-1.1,3.47c-.73.87-1.7,1.31-2.9,1.31s-2.18-.46-2.83-1.37v4.41h-2.51v-12.47h2.39ZM94.63,190.95c-.69,0-1.23.25-1.61.75-.39.5-.58,1.2-.58,2.09s.2,1.59.59,2.09c.39.5.93.75,1.62.75s1.21-.25,1.6-.75c.39-.5.58-1.18.58-2.05s-.2-1.59-.59-2.1c-.39-.51-.93-.77-1.6-.77Z"/>
    </g>
    <g>
      <path class="cls-8" d="M52.38,209.5c-.11,1.19-.53,2.14-1.25,2.85-.73.7-1.73,1.06-3.01,1.06-1.38,0-2.49-.46-3.33-1.37-.84-.91-1.26-2.12-1.26-3.63,0-1.42.42-2.61,1.28-3.55.85-.94,1.98-1.42,3.4-1.42,1.13,0,2.08.32,2.85.96.77.64,1.19,1.46,1.27,2.44h-2.04c-.11-.53-.34-.93-.71-1.22-.37-.29-.83-.43-1.4-.43s-1.07.16-1.46.49c-.4.33-.67.72-.83,1.2-.16.47-.24.99-.24,1.55,0,.98.23,1.76.68,2.34s1.06.88,1.83.88c1.27,0,2-.71,2.18-2.14h2.07Z"/>
      <path class="cls-8" d="M60.6,211.04c-.21.74-.61,1.31-1.18,1.72-.57.41-1.26.61-2.05.61-1.06,0-1.91-.33-2.56-.99s-.97-1.53-.97-2.62.33-1.95.98-2.64c.65-.7,1.48-1.04,2.48-1.04s1.87.35,2.48,1.06c.62.71.92,1.67.92,2.88v.19h-4.94c0,.6.15,1.05.43,1.36.28.31.67.47,1.18.47.67,0,1.14-.33,1.4-1h1.82ZM58.78,209.01c-.04-.45-.19-.83-.44-1.12-.25-.29-.6-.43-1.04-.43-.42,0-.77.14-1.04.41-.28.28-.44.65-.49,1.13h3.02Z"/>
      <path class="cls-8" d="M68.81,213.18h-1.92v-4.02c0-.49-.08-.86-.24-1.12-.16-.25-.47-.38-.94-.38-1,0-1.5.61-1.5,1.82v3.7h-1.88v-6.89h1.8v.96c.57-.77,1.33-1.15,2.28-1.15.74,0,1.32.21,1.75.64s.64,1.04.64,1.83v4.61Z"/>
      <path class="cls-8" d="M74.57,206.28v1.28h-1.4v3.25c0,.21,0,.35.01.45s.04.19.09.29c.05.1.13.16.25.19.11.03.27.05.47.05.23,0,.42,0,.57-.03v1.44c-.46.04-.85.05-1.15.05-.83,0-1.39-.14-1.69-.43-.3-.29-.45-.85-.45-1.68v-3.58h-1.15v-1.28h1.15v-2.08h1.88v2.08h1.4Z"/>
    </g>
    <g>
      <path class="cls-8" d="M80.48,206.16v1.75c-.27-.05-.51-.08-.73-.08-.62,0-1.08.2-1.38.59-.29.4-.44.93-.44,1.6v3.15h-1.9v-6.89h1.8v1.27c.45-.95,1.2-1.43,2.23-1.43.09,0,.23.01.41.04Z"/>
      <path class="cls-8" d="M87.97,211.04c-.21.74-.61,1.31-1.18,1.72-.57.41-1.26.61-2.05.61-1.06,0-1.91-.33-2.56-.99s-.97-1.53-.97-2.62.33-1.95.98-2.64c.65-.7,1.48-1.04,2.48-1.04s1.87.35,2.48,1.06c.62.71.92,1.67.92,2.88v.19h-4.94c0,.6.15,1.05.43,1.36.28.31.67.47,1.18.47.67,0,1.14-.33,1.4-1h1.82ZM86.15,209.01c-.04-.45-.19-.83-.44-1.12-.25-.29-.6-.43-1.04-.43-.42,0-.77.14-1.04.41-.28.28-.44.65-.49,1.13h3.02Z"/>
    </g>
    <path class="cls-8" d="M114.81,197.38c.04-1.48.39-2.65,1.04-3.5s1.54-1.28,2.66-1.28c1.06,0,1.92.36,2.58,1.09s.99,1.67.99,2.83c0,.69-.14,1.3-.41,1.81-.27.51-.64.85-1.09,1.01.59.19,1.06.58,1.39,1.15.34.58.5,1.29.5,2.13,0,1.36-.37,2.47-1.11,3.34-.74.86-1.7,1.3-2.87,1.3s-2.18-.45-2.89-1.35-1.07-2.11-1.07-3.63v-.2h2.1c.01.88.17,1.56.48,2.03.31.47.76.71,1.34.71.53,0,.96-.2,1.29-.6.33-.4.49-.92.49-1.56,0-.75-.18-1.29-.54-1.62-.36-.33-.83-.5-1.4-.5-.21,0-.39,0-.54.02v-2.04c.11.01.23.02.37.02,1.25,0,1.87-.6,1.87-1.8,0-.54-.13-.98-.41-1.31-.27-.33-.63-.49-1.08-.49-.51,0-.91.21-1.19.63-.28.42-.43,1.03-.44,1.82h-2.07Z"/>
    <polygon class="cls-8" points="141.28 208.38 148.36 200.18 140.88 191.6 135.74 191.6 141 198.11 128.11 198.11 128.11 202.24 141.01 202.24 136.14 208.38 141.28 208.38 141.28 208.38"/>
    <path class="cls-8" d="M27.24,199.99c0,3.36-2.72,6.08-6.08,6.08s-6.08-2.72-6.08-6.08,2.72-6.08,6.08-6.08,6.08,2.72,6.08,6.08h0Z"/>
    <path class="cls-8" d="M30.93,199.99h-.38c0,2.59-1.05,4.94-2.75,6.64-1.7,1.7-4.04,2.75-6.64,2.75-2.59,0-4.94-1.05-6.64-2.75-1.7-1.7-2.75-4.04-2.75-6.64,0-2.59,1.05-4.94,2.75-6.64,1.7-1.7,4.04-2.75,6.64-2.75,2.59,0,4.94,1.05,6.64,2.75,1.7,1.7,2.75,4.04,2.75,6.64h.75c0-5.6-4.54-10.14-10.14-10.14-5.6,0-10.14,4.54-10.14,10.14,0,5.6,4.54,10.14,10.14,10.14,5.6,0,10.14-4.54,10.14-10.14h-.38Z"/>
    <path class="cls-8" d="M35.17,199.99h-.38c0,3.76-1.52,7.17-3.99,9.63-2.47,2.47-5.87,3.99-9.63,3.99-3.76,0-7.17-1.52-9.63-3.99-2.47-2.47-3.99-5.87-3.99-9.63,0-3.76,1.52-7.17,3.99-9.63,2.47-2.47,5.87-3.99,9.63-3.99,3.76,0,7.17,1.52,9.63,3.99,2.47,2.47,3.99,5.87,3.99,9.63h.75c0-7.94-6.44-14.38-14.38-14.38-7.94,0-14.38,6.44-14.38,14.38,0,7.94,6.44,14.38,14.38,14.38,7.94,0,14.38-6.44,14.38-14.38h-.38Z"/>
  </g>
</svg>