<?xml version="1.0" encoding="utf-8"?>
<!-- Generator: Adobe Illustrator 22.0.1, SVG Export Plug-In . SVG Version: 6.00 Build 0)  -->
<svg version="1.1" id="Слой_1" xmlns="http://www.w3.org/2000/svg" xmlns:xlink="http://www.w3.org/1999/xlink" x="0px" y="0px"
	 viewBox="0 0 213.1 57.9" style="enable-background:new 0 0 213.1 57.9;" xml:space="preserve">
<style type="text/css">
	.st0{fill-rule:evenodd;clip-rule:evenodd;fill:#ED1C24;}
	.st1{fill-rule:evenodd;clip-rule:evenodd;fill:#FFF200;}
	.st2{fill-rule:evenodd;clip-rule:evenodd;}
</style>
<g>
	<polygon class="st0" points="0,0 213.1,0 213.1,57.9 0,57.9 0,0 	"/>
	<polygon class="st1" points="5.7,5.7 207.4,5.7 207.4,52.2 5.7,52.2 5.7,5.7 	"/>
	<path class="st2" d="M88.5,11H56.2c-1.2,0-2.1,0.9-2.1,2.1v14.4h-1.6V17H39.9l-3.7,8.4c0,2.2,0,4.3,0,6.5h7.4
		c-0.2,0.4-0.2,0.8-0.2,1.2c0,1.8,1.5,3.3,3.3,3.3c1.8,0,3.3-1.5,3.3-3.3c0-0.4-0.1-0.8-0.2-1.2h21.5c-0.2,0.4-0.2,0.8-0.2,1.2
		c0,1.8,1.5,3.3,3.3,3.3s3.3-1.5,3.3-3.3c0-0.4-0.1-0.8-0.2-1.2h1.9c-0.2,0.4-0.2,0.8-0.2,1.2c0,1.8,1.5,3.3,3.3,3.3
		s3.3-1.5,3.3-3.3c0-0.4-0.1-0.8-0.2-1.2h5.4v-5.2h34.7v0.7V32h4c-0.2,0.4-0.2,0.8-0.2,1.2c0,1.8,1.5,3.3,3.3,3.3
		c1.8,0,3.3-1.5,3.3-3.3c0-0.4-0.1-0.8-0.2-1.2h30.4c-0.2,0.4-0.2,0.8-0.2,1.2c0,1.8,1.5,3.3,3.3,3.3c1.8,0,3.3-1.5,3.3-3.3
		c0-0.4-0.1-0.8-0.2-1.2h5V13.1c0-1.2-0.9-2.1-2.1-2.1h-47.4c-1.2,0-2.1,0.9-2.1,2.1v2.5v9.4H90.6V13.1C90.6,11.9,89.7,11,88.5,11
		L88.5,11z M168.1,42.4h-37v0.9h37v2.1l6.2-2.5l-6.2-2.5V42.4L168.1,42.4z M44.1,42.4h37v0.9h-37v2.1l-6.2-2.5l6.2-2.5V42.4
		L44.1,42.4z M98.3,43.1v1.2H93V44c0-0.3,0-0.5,0.1-0.8c0.1-0.2,0.2-0.4,0.4-0.6c0.2-0.2,0.4-0.4,0.7-0.7c0.3-0.2,0.7-0.5,1.1-0.8
		c0.6-0.4,0.9-0.6,1.1-0.8c0.2-0.2,0.3-0.5,0.3-0.8c0-0.4-0.1-0.6-0.3-0.8c-0.2-0.2-0.5-0.2-0.8-0.2c-0.3,0-0.6,0.1-0.8,0.3
		c-0.2,0.2-0.3,0.5-0.3,0.8v0.2H93v-0.2c0-0.4,0.1-0.8,0.3-1.2c0.2-0.4,0.5-0.6,0.9-0.9c0.4-0.2,0.9-0.3,1.6-0.3
		c0.5,0,0.9,0.1,1.3,0.2c0.4,0.1,0.7,0.4,0.9,0.7c0.2,0.3,0.3,0.7,0.3,1.2c0,0.3-0.1,0.6-0.2,0.9c-0.1,0.3-0.3,0.5-0.6,0.8
		c-0.3,0.3-0.6,0.5-1.1,0.8c-0.5,0.3-0.8,0.5-1,0.6c-0.2,0.1-0.4,0.3-0.5,0.6H98.3L98.3,43.1z M104.6,43.1v1.2h-5.2V44
		c0-0.3,0-0.5,0.1-0.8c0.1-0.2,0.2-0.4,0.4-0.6c0.2-0.2,0.4-0.4,0.7-0.7c0.3-0.2,0.7-0.5,1.1-0.8c0.6-0.4,0.9-0.6,1.1-0.8
		c0.2-0.2,0.3-0.5,0.3-0.8c0-0.4-0.1-0.6-0.3-0.8c-0.2-0.2-0.5-0.2-0.8-0.2c-0.3,0-0.6,0.1-0.8,0.3c-0.2,0.2-0.3,0.5-0.3,0.8v0.2
		h-1.5v-0.2c0-0.4,0.1-0.8,0.3-1.2c0.2-0.4,0.5-0.6,0.9-0.9c0.4-0.2,0.9-0.3,1.6-0.3c0.5,0,0.9,0.1,1.3,0.2c0.4,0.1,0.7,0.4,0.9,0.7
		c0.2,0.3,0.3,0.7,0.3,1.2c0,0.3-0.1,0.6-0.2,0.9c-0.1,0.3-0.3,0.5-0.6,0.8c-0.3,0.3-0.6,0.5-1.1,0.8c-0.5,0.3-0.8,0.5-1,0.6
		c-0.2,0.1-0.4,0.3-0.5,0.6H104.6L104.6,43.1z M115.4,44.3l-1.3-3.4h0l0,0.3v3.2h-1.5v-4.9h2l1.3,3.5h0l1.3-3.5h2v4.9h-1.5v-3.2
		l0-0.3h0l-1.3,3.4H115.4L115.4,44.3z"/>
</g>
</svg>
