<?xml version="1.0" encoding="utf-8"?>
<!-- Generator: Adobe Illustrator 22.0.1, SVG Export Plug-In . SVG Version: 6.00 Build 0)  -->
<svg version="1.1" id="Слой_1" xmlns="http://www.w3.org/2000/svg" xmlns:xlink="http://www.w3.org/1999/xlink" x="0px" y="0px"
	 viewBox="0 0 55.8 55.8" style="enable-background:new 0 0 55.8 55.8;" xml:space="preserve">
<style type="text/css">
	.st0{fill-rule:evenodd;clip-rule:evenodd;fill:#ED1C24;}
	.st1{fill-rule:evenodd;clip-rule:evenodd;fill:#FFF200;}
	.st2{fill-rule:evenodd;clip-rule:evenodd;stroke:#000000;stroke-width:0.216;stroke-miterlimit:22.9256;}
</style>
<g>
	<polygon class="st0" points="0,0 55.8,0 55.8,55.8 0,55.8 0,0 	"/>
	<polygon class="st1" points="5.8,5.8 50,5.8 50,50 5.8,50 5.8,5.8 	"/>
	<path class="st2" d="M16,24.5c1.8-3.8-4.2-4.8-4.5-0.6c0.2,1,0,2.1,0.8,2.8c0.5,0.4,1.1,0.7,2,0.1C15.4,26,16,25.2,16,24.5L16,24.5
		z M30.5,15.6L30.5,15.6c1.8-3.8-4.2-4.8-4.5-0.6c0.2,0.9,0.1,2.1,0.8,2.8c0.5,0.4,1.1,0.7,2,0C29.9,17.2,30.5,16.4,30.5,15.6
		L30.5,15.6z M14.8,29.2L14.8,29.2l5.7-11.6c1.2-1.9,3.8,0,2.9,1.2l-4.1,8.1l4.5,6.2l-5.7,4.2l-1.5,3.9c-0.1,2.6-3.2,2.9-3,0.2
		l1.7-5.4l2.4-2.4C17,32.2,16,30.9,14.8,29.2L14.8,29.2z M28.7,20.6L28.7,20.6c0-1.8,1.5-2.3,2.2-3.5l7.6-0.1l1,3.2l-4.2,0.4l4,5.8
		c0.5,1.2,0.5,2.1-0.1,2.6l-6.4,5.7v6.8c0.2,2.6-3.8,2.8-4-0.1L28.4,33l4.5-4.7C32,26.6,30.1,22.8,28.7,20.6L28.7,20.6z M14,29.8
		L14,29.8l-1.2,1.3l-2-1.8c-1.9-1.7-3.6,0.6-1.9,1.7l3.5,3.9l3.3-2.9L14,29.8L14,29.8z M28.4,22.6L28.4,22.6l-1.8,4l-4-1.3
		c-2.3-1.1-2.8,1.8-1,2.4l6.8,2.3l1.9-4.1L28.4,22.6L28.4,22.6z M20.9,36.6L20.9,36.6l2.2,3.1l4.4,0l0-3.7l-2.6,0l-1.1-1.4
		L20.9,36.6L20.9,36.6z M36.4,32.5L36.4,32.5l3.9,5.9l7.3-4.4l-2.3-3.5l-4,2.5l-1.9-3L36.4,32.5L36.4,32.5z"/>
</g>
</svg>
