<?xml version="1.0" encoding="utf-8"?>
<!-- Generator: Adobe Illustrator 22.0.1, SVG Export Plug-In . SVG Version: 6.00 Build 0)  -->
<svg version="1.1" id="Слой_1" xmlns="http://www.w3.org/2000/svg" xmlns:xlink="http://www.w3.org/1999/xlink" x="0px" y="0px"
	 viewBox="0 0 55.7 55.7" style="enable-background:new 0 0 55.7 55.7;" xml:space="preserve">
<style type="text/css">
	.st0{fill-rule:evenodd;clip-rule:evenodd;fill:#FFFFFF;}
	.st1{fill-rule:evenodd;clip-rule:evenodd;fill:#ED1C24;}
</style>
<g>
	<polygon class="st0" points="0,0 55.7,0 55.7,55.7 0,55.7 0,0 	"/>
	<path class="st1" d="M0,0h9.9L0,8.4V0L0,0z M17.4,0L17.4,0L0,15.9v6.7L25.1,0H17.4L17.4,0z M33.1,0L33.1,0L0,29.3v6.6L40.8,0H33.1
		L33.1,0z M47.6,0L47.6,0L0,42.2v7L55.5,0.1v0L55.7,0H47.6L47.6,0z M55.5,6.6L0,55.7v0.1h8.7l47.1-42.5V6.4L55.5,6.6L55.5,6.6z
		 M55.7,19.9L55.7,19.9v7L22.8,55.7h-7.3L55.7,19.9L55.7,19.9z M55.7,32.4L55.7,32.4v6.9L37.3,55.7H29L55.7,32.4L55.7,32.4z
		 M55.7,45.4L55.7,45.4v10.3H43.5L55.7,45.4L55.7,45.4z"/>
</g>
</svg>
